<svg xmlns="http://www.w3.org/2000/svg" width="32" height="32" viewBox="0 0 32 32"><g transform="translate(-498 -7435)"><circle cx="16" cy="16" r="16" transform="translate(498 7435)" fill="#b19d80"/><path d="M16,1A15,15,0,0,0,5.393,26.607,15,15,0,1,0,26.607,5.393,14.9,14.9,0,0,0,16,1m0-1A16,16,0,1,1,0,16,16,16,0,0,1,16,0Z" transform="translate(498 7435)" fill="#b19d7f"/><path d="M12.8,2.586,7.586,7.8,12.8,13.019l.784-.784L9.153,7.8l4.433-4.433Z" transform="translate(502.414 7443.198)" fill="#fff" fill-rule="evenodd"/></g></svg>