<svg xmlns="http://www.w3.org/2000/svg" width="110.884" height="69.398" viewBox="0 0 110.884 69.398">
  <g id="Group_6700" data-name="Group 6700" transform="translate(-78.564 -1196.255)">
    <path id="Path_1921" data-name="Path 1921" d="M9.312-7.424c.384-.032.768-.032.768.288.224.1.8-.16.768.16A12.37,12.37,0,0,0,16.7-8.064c.448.064.512-.288.768-.448.48.064.576-.224.9-.32a4.313,4.313,0,0,1,1.7-.9,27,27,0,0,1,2.624-2.784,4.891,4.891,0,0,1,1.056-1.824,4.863,4.863,0,0,1,.928-2.3c.032-1.6.672-2.624.48-4.48a3.622,3.622,0,0,1-.48-1.536A9.062,9.062,0,0,1,23.3-24.192,4.5,4.5,0,0,1,21.92-24.8H19.456c-.224.032-.256.256-.448.32a16.41,16.41,0,0,0-5.248,3.36c-.416.032-.256.672-.768.64-.192.256-.384.512-.608.768a5.8,5.8,0,0,0-.768.768c-.384.1-.32.672-.768.768A7.77,7.77,0,0,1,9.472-16.64c0,.448-.352.544-.608.768-.224.736-.8,1.12-1.088,1.824-.32.192-.352.672-.608.928A29.869,29.869,0,0,0,5.024-9.44a4.2,4.2,0,0,0-.768,1.376c-.384.8-.7,1.5-1.088,2.176A9.487,9.487,0,0,0,1.952-3.744a1.52,1.52,0,0,0-.48.928c-.16.32-.576.416-.608.9C.288-.992-.608.384-.352,1.632c0,.224-.032.512.288.448.256.48.7-.128,1.088,0a3.111,3.111,0,0,1,.608-.928c.128-.9.992-1.024.928-2.144.224-.288.8-.224.768-.768.224-.032.128-.352.16-.608.288-.032.512-.1.608-.32.128-.96,1.056-1.184,1.216-2.144.448.1.416-.48.48-.608.064-.192.512-.48.608-.608.128-.16.32-.32.448-.48.448-.672.96-1.28,1.408-1.984C8.608-8.16,8.96-7.808,9.312-7.424ZM9.152-9.28c-.16-.736.64-.512.64-1.088.288-.256.7-.416.768-.9.672-.416.992-1.152,1.536-1.7.48-.544,1.248-.928,1.536-1.7.576-.416,1.312-.768,1.376-1.856-.064-.352-.48-.32-.608-.608-.864.192-1.216.864-1.7,1.376-.8.192-.9,1.056-1.536,1.408-.288.736-.992,1.056-1.376,1.664-.16.352-.512.544-.768.768a2.925,2.925,0,0,1-.768.64A19.657,19.657,0,0,1,7.168-9.28a2.206,2.206,0,0,0-.768.768c-.352.16-.256.768-.768.768.192-.576.672-.864.608-1.7a8.769,8.769,0,0,0,1.376-2.144A8.63,8.63,0,0,1,9.152-13.44a7.038,7.038,0,0,1,1.7-2.752c1.312-2.208,3.68-3.392,5.216-5.376.672-.1.96-.608,1.536-.768a4.967,4.967,0,0,1,1.408-.768.634.634,0,0,1,.448-.448,3.79,3.79,0,0,0,1.7,0,4.176,4.176,0,0,0,1.376.608c.288.512,1.184,1.472,1.216,2.3.032.192.256.9-.288.928.128.256.416.384.288.9-.224.672-.256,1.568-.768,2.016-.416,2.24-1.76,3.552-2.912,5.056a23.136,23.136,0,0,1-3.072,2.016,25.715,25.715,0,0,1-3.84,1.216C11.584-8.544,9.952-8.48,9.152-9.28ZM21.856-7.3A7.4,7.4,0,0,0,20.8-5.376c-.1.192-.032.416-.16.608-.064.128-.384.192-.448.32a11.179,11.179,0,0,0-.48,1.088,6.321,6.321,0,0,0,.32,2.912,8.361,8.361,0,0,0,3.392.16,17.055,17.055,0,0,0,3.68-2.3c.384-.416.256-.7.64-.768-.1-.288.7-.736.9-.928.64-.928,1.472-1.5,1.856-2.752,0-.032.064-.1.576-.288.48-.192.16-.032.672-.224.256-.1.384-.128.448-.16a3.512,3.512,0,0,0,.768-1.344,2.309,2.309,0,0,0-1.312.064c-.448.16-.032.032-.48.128-.256.064-.416,0-.448-.064a6.559,6.559,0,0,0-.384-1.664c.032-.9-1.056-1.312-1.568-1.7a12.865,12.865,0,0,0-2.432.608,13.078,13.078,0,0,1-1.248,1.408c-.832.256-1.216.928-2.144,1.056a7.961,7.961,0,0,0-.768.608A7.161,7.161,0,0,1,21.856-7.3Zm6.016-2.976a5.955,5.955,0,0,1,1.088.128c.288.384.1,1.248.16,1.856a6.139,6.139,0,0,1-2.784.448c.064-.288-.128-.544-.16-.288-.416-.32.352-.768.448-1.088a1.444,1.444,0,0,0,1.088-.608C27.648-10.08,27.84-10.08,27.872-10.272ZM24.032-7.2c.512.128.8.512,1.216.768.416,0,.864-.064,1.088.128a5.385,5.385,0,0,0,2.176-.416c0,.512-.256.512-.48.9a4.888,4.888,0,0,0-1.056.928,9.532,9.532,0,0,0-.928,1.056c-.608.1-.9.64-1.376.928-.192.1-.192.032-.32.16a6.239,6.239,0,0,1-1.536.768H21.248c-.128-.8.32-1.024.32-1.7.608-.672,1.056-1.664,1.7-2.464.16-.224.224-.576.608-.608C23.808-7.008,24-7.008,24.032-7.2ZM39.648-3.328c.256-.288.768-.448.992-.768,1.44-.736,2.016-1.7,1.664-2.688-.8.064-1.44.64-2.112.832-.544.32-.544.768-1.184,1.024-.832.48-1.6.832-2.432,1.28a7.524,7.524,0,0,1-2.912,1.056c-.416.352-1.376.9-2.016.48.128-.96.992-1.184,1.376-1.856.7-.448,1.44-2.016,2.24-2.336.608-.448.768-1.408,1.568-1.7.256-.864,1.216-1.024,1.376-1.984-.352-.224-.128-.992-.768-.928-.576-.16-.48.32-.768.448a7.4,7.4,0,0,1-.768.64c-.128.32-.576.32-.608.768-.32.128-.672.256-.768.608-1.056.768-2.176,2.72-3.168,3.552a8.47,8.47,0,0,0-1.6,2.3,2.418,2.418,0,0,0-.1,1.408c-.032.512.512.48.608.9.672-.16,1.5,0,2.3-.128.064-.032.384-.288.448-.32.32-.1.608.192.768-.16.832-.352,1.856-.512,2.624-.928.032-.192,1.024-.672,1.088-.448C37.856-2.944,39.232-2.848,39.648-3.328ZM42.4-17.952c.512.256,1.6.544,2.016,0a6.13,6.13,0,0,0-.48-2.3C42.368-20.544,42.368-19.264,42.4-17.952ZM57.472-5.024c.032-.128.544-.32.832-.32.48-.032.832-.64.672-2.144a4.162,4.162,0,0,0-2.016.864c-.224.1-.672.48-.928.576a4.6,4.6,0,0,1-.8.7,3.249,3.249,0,0,1-1.152.576C52.7-3.776,52.192-3.9,50.528-3.2c-.352.1-.352.256-.768.288-.256.224-.768,0-1.088.128-.352-.032-.672.736-.928.32.32-.192.16-.864.608-.928a5.13,5.13,0,0,0,.64-1.088,10.151,10.151,0,0,0,1.856-3.008c.416-.1.32-.7.768-.768-.032-.608.672-.48.608-1.088a1.816,1.816,0,0,0,.768-2.3c-.768-.416-2.08.224-2.624.48a24.356,24.356,0,0,1-2.624,1.536c-.16.1-.32.352-.48.448a7.564,7.564,0,0,1-1.216.768c-.288.16-.416.416-.768.32-.16.384-.608.512-.768.928C44.1-7.3,44.288-6.88,44-6.88c-.224-.064-.384.608-.48.16h.16c0-.16.224-.224,0-.32.384-.64.928-3.456.384-3.968-.768-.128-1.12-.192-1.344.352-.16.384-.736,3.072-.864,3.616A39.422,39.422,0,0,1,39.68-3.232a4.38,4.38,0,0,1-.928,1.216c-.256.48-.672.768-.608,1.536.416.576.608.064,1.408.16.352-.224.608-.544.928-.768.48-.1.416-.736.928-.768.672-.48.9-1.312,1.6-1.76a5.451,5.451,0,0,1,.96-.96,23.481,23.481,0,0,1,5.024-3.392c-.384.7-1.376,2.592-1.7,3.04a1.517,1.517,0,0,1-.32.32c-.032.032.032.256,0,.288-.128.192-.352.32-.448.48a5.264,5.264,0,0,0-.32.608c-.064.128-.256.064-.288.16-.128.192,0,.32-.16.448-.064.032.032.256,0,.32A3.334,3.334,0,0,0,45.28-.48c.7.736,1.888.352,2.784.32,1.248-.768,2.72-.864,3.9-1.7.576-.448.864-.32,1.408-.8.864-.384.992-.64,1.536-.832A13.243,13.243,0,0,0,57.472-5.024ZM68.288-3.776c-.448.064-1.024-.032-1.184.32a9.379,9.379,0,0,0-.928.16c-.288.128-.48.352-.736.48-.032,0-.864.416-.9.448a4.239,4.239,0,0,1-1.76.7c-1.12.16-2.528.64-3.552.16-.032-.032,0-.128-.128-.16a3.08,3.08,0,0,1-.928-.608c-.544-1.184-.032-2.176.16-3.392.384-.224.384-.736.608-1.056.192-.32.64-.512.608-.928.832-.512.768-1.44,1.536-1.984.352-.96,1.184-1.408,1.536-2.3.224-.1.8.16.768-.16.544-.64,1.312.064,1.7,0a3.959,3.959,0,0,0,.928-.32,1.093,1.093,0,0,0,.9,0c1.056-.32,1.12.192,2.176-.288a4.435,4.435,0,0,0,1.536.128c.864-.32,1.472-.064,2.144-.448.992.1,1.568-.192,2.464-.16-.032.032.64-.064,1.44-.128.384-.48-.16-.736-.544-.928-3.552.288-7.328.448-10.88.768-.32-.1-1.024.16-1.088-.16.512-1.76,1.856-2.656,2.624-4.16-.352-.288.16-1.376-.48-1.376-1.056-.128-.992.832-1.536,1.216-.576.832-1.056,1.7-1.7,2.464-.32.448-.992.96-1.216,1.248-.1.128-.064.32-.16.448a1.1,1.1,0,0,1-.608.448c-1.536.16-3.008.384-4.608.48-.224.32-.928.192-1.216.448-.288.288-1.152,0-1.088.608.32,1.056,1.632.576,2.624.48.7-.1,1.472-.256,1.824-.32.48-.064,1.024-.1,1.248.16A34.163,34.163,0,0,0,57.7-7.648c-.448.416-.672,1.824-1.056,2.624a5.878,5.878,0,0,0-.32,2.432c.16,1.088.992,1.664,1.376,2.3.416.128.9.16,1.088.48a9.378,9.378,0,0,1,2.752.16,2.674,2.674,0,0,1,.928-.32c.672-.16.16.064.64-.064.288-.064.864-.256,1.056-.32.384-.1.416-.224.608-.288a3.038,3.038,0,0,1,.672-.288,8.715,8.715,0,0,0,1.376-.8c.512-.256.864-.672,1.632-1.024C68.16-3.1,68.768-3.392,68.288-3.776Z" transform="matrix(0.978, -0.208, 0.208, 0.978, 84.108, 1263.353)" fill="#ddd7cf"/>
    <path id="Path_1922" data-name="Path 1922" d="M28.281,0H21.875V-48.4a14.828,14.828,0,0,1-2.168,1.7A35.339,35.339,0,0,1,16.5-44.8q-1.777.938-3.75,1.758a27.253,27.253,0,0,1-3.848,1.289v-6.484a37.242,37.242,0,0,0,4.473-1.582q2.363-1,4.648-2.227t4.316-2.578a34.268,34.268,0,0,0,3.516-2.637h2.422Z" transform="translate(161.784 1258.149) rotate(-12)" fill="#ddd7cf"/>
  </g>
</svg>
