<svg xmlns="http://www.w3.org/2000/svg" width="17.561" height="24" viewBox="0 0 17.561 24">
  <path id="Icon_material-lock-outline" data-name="Icon material-lock-outline" d="M14.78,19.786a2.288,2.288,0,1,0-2.2-2.286A2.248,2.248,0,0,0,14.78,19.786ZM21.366,9.5h-1.1V7.214A5.607,5.607,0,0,0,14.78,1.5,5.607,5.607,0,0,0,9.293,7.214V9.5H8.2A2.248,2.248,0,0,0,6,11.786V23.214A2.248,2.248,0,0,0,8.2,25.5H21.366a2.248,2.248,0,0,0,2.2-2.286V11.786A2.248,2.248,0,0,0,21.366,9.5ZM11.378,7.214a3.478,3.478,0,0,1,3.4-3.543,3.478,3.478,0,0,1,3.4,3.543V9.5h-6.8Zm9.988,16H8.2V11.786H21.366Z" transform="translate(-6 -1.5)" fill="#b19d7f"/>
</svg>
