<?xml version="1.0" encoding="utf-8"?>
<!-- Generator: Adobe Illustrator 27.7.0, SVG Export Plug-In . SVG Version: 6.00 Build 0)  -->
<svg version="1.1" id="_レイヤー_1" xmlns="http://www.w3.org/2000/svg" xmlns:xlink="http://www.w3.org/1999/xlink" x="0px"
	 y="0px" viewBox="0 0 444 76" style="enable-background:new 0 0 444 76;" xml:space="preserve">
<style type="text/css">
	.st0{fill:#FFFFFF;}
	.st1{fill:#DC6B8E;}
	.st2{fill:#717071;}
</style>
<g>
	<g>
		<path class="st0" d="M47,69.5c0,0-0.9-1.2-2.2-0.9c-1.4,0.2-2.5,2.3-2.4,3.4c0.2,1.1,2.4,3.9,4.4,3.4c0,0,2.5-0.5,3.4-2.4
			c0.9-1.8,1.7-3.9,0.6-6.8c-1.1-3-2.8-5.9-4.7-6.8c-1.1-0.4-1.2-0.3-1.2-0.3c0.6,0.4,2.4,1.5,3.5,3.5c1.1,1.9,2.5,4.7,1.4,7.5
			c-1.1,2.9-1.1,2.4-2.2,2.5c-1.1,0.2-2.6,0-2.5-1.2c0.1-1.2,0.5-1.6,0.6-1.7C45.8,69.7,46.6,69.3,47,69.5L47,69.5z"/>
		<path class="st0" d="M65.6,69.5c0,0,0.9-1.2,2.2-0.9c1.4,0.2,2.5,2.3,2.4,3.4c-0.2,1.1-2.4,3.9-4.4,3.4c0,0-2.5-0.5-3.4-2.4
			c-0.9-1.8-1.7-3.9-0.6-6.8c1.1-3,2.8-5.9,4.7-6.8c1.1-0.4,1.2-0.3,1.2-0.3c-0.6,0.4-2.4,1.5-3.5,3.5c-1.1,1.9-2.5,4.7-1.4,7.5
			c1.1,2.9,1.1,2.4,2.2,2.5c1.2,0.2,2.6,0,2.5-1.2c-0.1-1.2-0.5-1.6-0.6-1.7C66.8,69.7,66,69.3,65.6,69.5L65.6,69.5z"/>
		<rect x="48.1" y="22.6" class="st0" width="16.8" height="19.3"/>
		<path class="st1" d="M47.5,8.8c0,0-0.8-0.6,0.1-1c0.2-0.1,1.1-0.1,1.2,1c0,0.3-0.1,0.6-0.5,0.8c-0.2,0.1-0.8,0.5-1.8-0.4
			c-0.9-0.7-1.4-0.8-1.7-0.8c0,0-2.5-0.3-2.9,2.3c0,0,0.5-2.1,2.7-2c0.3,0,1.1,0.2,1.8,1.2c0.3,0.3,1.5,1.6,2.7,0.2
			c0.3-0.3,0.7-1.3-0.3-2.2c-0.1-0.1-0.7-0.5-1.4-0.1C47.3,7.8,46.7,8.3,47.5,8.8L47.5,8.8z"/>
		<g>
			<path class="st0" d="M24.8,8.2c0,0-4.9,0.7-3.6-3.9c0.5-1.2,3.4-4.4,7.8-1c1,0.9,2,2.7,1.4,4.7c-0.4,1.1-0.8,4.5-7.6,5.1
				c-5.7,0.7-7.5,2.4-8.8,3.4c0,0-9.4,8.2-1.4,18.5c0,0-6.3-9.2,1.5-16.8c1.2-1,4.5-3.5,10.5-2.7c2.1,0.1,10.9,0,9.9-9.2
				c-0.1-1.9-2.1-7-9.1-6.2c-0.8,0.2-4.4,0.7-5.2,4.7C20.3,5.4,20.1,9.5,24.8,8.2L24.8,8.2z"/>
			<path class="st1" d="M12.6,35.2C12.6,35.2,12.6,35.2,12.6,35.2C8.4,29.8,9,25,10.2,21.9c1.3-3.3,3.7-5.4,3.7-5.4l0.2-0.1
				c1.3-1.1,3.2-2.7,8.7-3.3c6.3-0.6,7.1-3.4,7.4-4.7c0-0.1,0.1-0.2,0.1-0.3C30.9,6.2,30,4.4,29,3.4c-1.3-1-2.6-1.5-3.8-1.5
				c-2.2,0-3.6,1.7-3.9,2.5C21,5.6,21,6.5,21.5,7.1c0.7,0.9,2,1,2.7,1c0.4,0,0.6,0,0.6,0c0.1,0,0.1,0,0.1,0.1c0,0,0,0.1-0.1,0.1
				c-0.6,0.2-1.2,0.3-1.7,0.3l0,0c-0.9,0-1.6-0.3-2.1-0.9c-1-1.1-0.7-2.9-0.7-2.9c0.7-3.8,4-4.5,5.1-4.7c0.1,0,0.1,0,0.2,0
				C26,0,26.5,0,26.9,0c5.7,0,7.7,4.3,7.8,6.4c0.3,2.8-0.3,5-1.7,6.6c-2.1,2.3-5.4,2.7-7.8,2.7c-0.2,0-0.4,0-0.5,0
				c-0.7-0.1-1.4-0.1-2.1-0.1c-4.7,0-7.2,2-8.3,2.8c-7.5,7.2-1.8,16.2-1.5,16.6C12.7,35,12.7,35.1,12.6,35.2
				C12.7,35.1,12.7,35.2,12.6,35.2L12.6,35.2L12.6,35.2z M25.2,1.7c1.3,0,2.6,0.5,3.9,1.6c1.1,1,2,2.9,1.4,4.8
				c0,0.1-0.1,0.2-0.1,0.3c-0.4,1.4-1.2,4.3-7.6,4.8c-5.5,0.7-7.3,2.2-8.6,3.3l-0.1,0.1c0,0-2.4,2.1-3.7,5.4
				c-1.1,2.8-1.7,7,1.4,11.7c-1.4-2.9-3.6-9.7,2.3-15.5c1.1-0.9,3.7-2.9,8.5-2.9c0.7,0,1.4,0,2.1,0.1c0.1,0,0.3,0,0.5,0
				c2.4,0,5.6-0.5,7.6-2.7c1.4-1.5,2-3.7,1.7-6.4c-0.1-2-2.1-6.2-7.6-6.2c-0.4,0-0.9,0-1.3,0.1c0,0-0.1,0-0.2,0
				c-1,0.2-4.2,0.9-4.9,4.6c0,0-0.2,1.7,0.7,2.7c0.5,0.5,1.1,0.8,2,0.8l0,0c0.2,0,0.5,0,0.7-0.1C23.1,8.3,22,8,21.4,7.2
				c-0.5-0.7-0.6-1.7-0.2-2.9C21.5,3.4,22.9,1.7,25.2,1.7L25.2,1.7z"/>
		</g>
		<g>
			<path class="st0" d="M29.6,49.4c0,0-4.3-0.5-2.7,3.2c0.5,1,3.4,3.7,6.8,0.8c0.8-0.8,1.4-2.3,0.7-3.9c-0.4-0.9-1.1-3.7-7.1-4.2
				c-5-0.6-6.7-2-7.9-2.9c0,0-9-6.9-3.1-15.5c0,0-4.5,7.7,3,14c1.2,0.8,4.2,2.9,9.4,2.3c1.8,0,9.4,0,9.5,7.7
				c0.1,1.6-1.5,5.6-7.2,5.2c-0.7-0.2-3.9-0.6-4.9-3.9C26,51.8,25.4,48.3,29.6,49.4L29.6,49.4z"/>
			<path class="st1" d="M31.9,56.3c-0.3,0-0.6,0-0.8,0l-0.2,0c-1-0.2-3.9-0.8-4.9-3.9c0,0-0.4-1.5,0.3-2.4c0.6-0.7,1.7-0.9,3.3-0.5
				c0.1,0,0.1,0.1,0.1,0.1c0,0-0.1,0.1-0.1,0.1c0,0-0.2,0-0.5,0c-0.6,0-1.7,0.1-2.2,0.8c-0.3,0.5-0.3,1.3,0.1,2.3
				c0.3,0.6,1.7,2.1,3.6,2.1c1,0,2.1-0.4,3.1-1.3c0.8-0.8,1.4-2.3,0.7-3.8c0-0.1-0.1-0.2-0.1-0.3c-0.5-1.1-1.4-3.5-6.9-3.9
				c-4.8-0.6-6.6-1.9-7.9-2.8l-0.1-0.1c-0.1-0.1-9-7-3.1-15.6c0,0,0.1-0.1,0.1,0c0,0,0.1,0.1,0,0.1c0,0.1-4.4,7.7,3,13.9
				c1,0.7,3.5,2.4,7.5,2.4c0.6,0,1.2,0,1.8-0.1c0.1,0,0.3,0,0.5,0c2.7,0,9,0.8,9.2,7.8c0.1,0.8-0.4,2.2-1.4,3.4
				C36.1,55.2,34.6,56.3,31.9,56.3L31.9,56.3z M28.2,49.3c-0.7,0-1.3,0.2-1.6,0.7c-0.7,0.9-0.3,2.2-0.3,2.2c1,3,3.8,3.6,4.7,3.8
				l0.1,0c0.3,0,0.5,0,0.8,0c2.6,0,4.1-1,4.9-1.9c1-1.1,1.4-2.4,1.4-3.2c-0.1-2.8-1.3-7.6-9-7.6c-0.2,0-0.3,0-0.4,0
				c-0.6,0.1-1.2,0.1-1.8,0.1c-4.1,0-6.5-1.7-7.6-2.4c-5.6-4.7-4.5-10.3-3.6-12.8c-4.2,7.9,3.7,14.1,3.8,14.1l0.1,0.1
				c1.2,0.9,3,2.2,7.8,2.8c5.6,0.5,6.6,2.9,7.1,4c0,0.1,0.1,0.2,0.1,0.3c0.7,1.6,0.1,3.2-0.7,4c-1.1,0.9-2.1,1.3-3.2,1.3
				c-2,0-3.4-1.5-3.8-2.2c-0.5-1.1-0.5-1.9-0.1-2.5c0.4-0.6,1.2-0.8,1.9-0.9C28.5,49.3,28.3,49.3,28.2,49.3L28.2,49.3z"/>
		</g>
		<g>
			<path class="st0" d="M34.8,13.8c0,0,0.2-1.2-0.9-0.9c-0.3,0.1-1.2,0.9-0.3,2c0.2,0.3,0.7,0.5,1.2,0.3c0.3-0.1,1.1-0.2,1.4-2
				c0.2-1.4,0.7-1.9,1-2.2c0,0,2.2-2.4,4.7-0.5c0,0-2.3-1.5-4.3,0.5c-0.3,0.3-0.9,1.1-0.8,2.7c0,0.5-0.1,2.7-2.4,2.6
				c-0.5,0-1.7-0.6-1.5-2.3c0.1-0.2,0.2-1.1,1.2-1.3C34.2,12.7,35.2,12.6,34.8,13.8z"/>
			<path class="st1" d="M34.6,16.4c-0.1,0-0.2,0-0.3,0c-0.3,0-0.8-0.2-1.1-0.6c-0.3-0.3-0.6-0.9-0.5-1.8l0-0.1
				c0.1-0.3,0.3-1.2,1.3-1.4c0,0,0.1,0,0.2,0c0.2,0,0.5,0,0.7,0.3c0.2,0.2,0.2,0.5,0,0.9c0,0.1-0.1,0.1-0.1,0.1
				c-0.1,0-0.1-0.1-0.1-0.1c0,0,0.1-0.5-0.1-0.7c-0.1-0.2-0.4-0.2-0.7-0.1c-0.1,0.1-0.5,0.3-0.6,0.7c-0.1,0.3,0,0.7,0.3,1.1
				c0.1,0.2,0.4,0.3,0.8,0.3c0.1,0,0.2,0,0.3-0.1c0,0,0,0,0.1,0c0.3-0.1,1-0.3,1.2-1.8c0.2-1.4,0.7-1.9,1-2.3l0,0
				c0-0.1,1.2-1.3,2.7-1.3c0.7,0,1.4,0.3,2.1,0.8c0,0,0.1,0.1,0,0.1c0,0-0.1,0.1-0.1,0c0,0-0.8-0.5-1.9-0.5c-0.9,0-1.6,0.3-2.3,1
				c-0.2,0.3-0.9,1.1-0.8,2.6C36.8,14.5,36.6,16.4,34.6,16.4L34.6,16.4z M33.8,12.9c-0.6,0.3-0.8,0.9-0.8,1.1l0,0
				c-0.1,0.6,0.1,1.2,0.4,1.6c0.3,0.4,0.8,0.5,1,0.5c0.1,0,0.2,0,0.3,0c1.8,0,2.1-1.5,2.1-2.5c-0.1-1.5,0.6-2.4,0.8-2.7
				c0.7-0.7,1.5-1.1,2.4-1.1c0.1,0,0.2,0,0.4,0c-0.2,0-0.3,0-0.5,0c-1.5,0-2.6,1.2-2.6,1.2l0,0c-0.3,0.3-0.7,0.8-0.9,2.2
				c-0.2,1.7-1,1.9-1.4,2c0,0-0.1,0-0.1,0c-0.1,0-0.2,0.1-0.4,0.1c-0.4,0-0.7-0.2-0.9-0.4c-0.3-0.4-0.5-0.9-0.3-1.3
				C33.3,13.3,33.6,13,33.8,12.9L33.8,12.9z"/>
		</g>
		<g>
			<path class="st0" d="M41.8,10.5c0,0-1.7-0.9-3.2-0.1c0,0-2.2,1.2-0.9,3.1c0,0.1,0.6,1,2.2,0.4c0.1,0,1.4-0.6,0.7-1.6
				c-0.1-0.1-0.3-0.6-1-0.1c-0.1,0.1-0.9,0.7-1.4,0c-0.1-0.1-0.4-0.6,0.4-1.2C38.7,11,40.1,10.1,41.8,10.5L41.8,10.5z"/>
			<path class="st1" d="M38.9,14.3c-0.8,0-1.2-0.4-1.4-0.6c-0.4-0.6-0.5-1.1-0.4-1.7c0.2-1,1.3-1.5,1.3-1.6c0.4-0.2,0.9-0.3,1.5-0.3
				c0.9,0,1.7,0.3,1.8,0.4c0,0,0.1,0.1,0.1,0.1c0,0.1,0,0.1-0.1,0.1h0c0,0,0,0,0,0c-0.3-0.1-0.6-0.1-0.9-0.1c-1.2,0-2.1,0.5-2.3,0.6
				c-0.3,0.2-0.4,0.4-0.4,0.6c0,0.1,0,0.3,0.1,0.5c0.1,0.2,0.3,0.3,0.5,0.3s0.5-0.1,0.7-0.3c0.2-0.2,0.4-0.2,0.6-0.2
				c0.3,0,0.5,0.2,0.5,0.3c0.2,0.3,0.3,0.7,0.2,1c-0.2,0.5-0.9,0.8-0.9,0.8C39.6,14.2,39.2,14.3,38.9,14.3z M40,10.2
				c-0.5,0-1,0.1-1.4,0.3c0,0-1,0.5-1.2,1.4c-0.1,0.5,0,1,0.3,1.5c0.1,0.2,0.5,0.6,1.2,0.6c0.3,0,0.6-0.1,0.9-0.2
				c0.1,0,0.7-0.3,0.8-0.7c0.1-0.2,0-0.5-0.2-0.8c-0.1-0.1-0.2-0.2-0.4-0.2c-0.1,0-0.3,0.1-0.5,0.2c-0.3,0.2-0.6,0.3-0.8,0.3
				c-0.3,0-0.5-0.1-0.7-0.4c-0.2-0.2-0.2-0.5-0.1-0.6c0-0.3,0.2-0.5,0.5-0.7c0.2-0.1,1.1-0.7,2.4-0.7h0C40.7,10.3,40.3,10.2,40,10.2
				L40,10.2z"/>
		</g>
		<path class="st1" d="M38.8,13.1c-0.1,0-0.2,0-0.3-0.1c-0.7-0.2-0.9-0.7-0.7-1.4c0.7-1.9,3.8-1.2,4-1.2c0,0,0.1,0.1,0.1,0.1
			c0,0.1-0.1,0.1-0.1,0.1c0,0-3.1-0.7-3.7,1c-0.1,0.4-0.2,0.9,0.6,1.2c0.2,0.1,0.4,0,0.6-0.1c0.2-0.1,0.4-0.3,0.4-0.5
			c0,0,0.1-0.1,0.1-0.1c0.1,0,0.1,0.1,0.1,0.1c-0.1,0.3-0.3,0.5-0.5,0.6C39.1,13,38.9,13.1,38.8,13.1L38.8,13.1z"/>
		<path class="st1" d="M38.8,13.5c-0.2,0-0.3,0-0.4-0.1c-0.7-0.3-1-0.9-0.9-1.5c0,0,0,0,0,0c0.4-1,1.2-1.6,2.4-1.7
			c0.9-0.1,1.7,0.2,1.7,0.2c0.1,0,0.1,0.1,0.1,0.1c0,0-0.1,0.1-0.1,0.1c0,0-0.8-0.3-1.7-0.2c-1.2,0.1-1.9,0.6-2.2,1.6
			c-0.1,0.6,0.2,1,0.8,1.3c0,0,0.4,0.1,0.7,0c0.2-0.1,0.4-0.5,0.4-0.9c0-0.1,0-0.1,0.1-0.1c0.1,0,0.1,0.1,0.1,0.1
			c0,0.5-0.2,0.9-0.5,1.1C39.1,13.5,38.9,13.5,38.8,13.5L38.8,13.5z"/>
		<g>
			<path class="st0" d="M12.7,35c0,0-3.8-6.3-1.1-12.3c0,0,3.7-8.7,11.5-4.4c0.2,0.1,4.3,2.1,2.4,8.6c-0.1,0.3-1.9,5.7-6.1,3.1
				c-0.3-0.2-2.2-1-0.6-3.9c0.2-0.3,2.5-3.5-0.4-5.4c-0.3-0.2-2.5-1.5-4.4,1.7C13.8,22.9,10.7,28.6,12.7,35L12.7,35z"/>
			<path class="st1" d="M12.7,35.1C12.7,35.1,12.6,35.1,12.7,35.1c-0.1-0.1-3.8-6.5-1.2-12.4c0,0,0.6-1.4,1.8-2.8
				c1.1-1.3,3-2.8,5.6-2.8c1.3,0,2.8,0.4,4.2,1.2c0,0,0,0,0.1,0c1.3,0.7,4,3,2.4,8.7c0,0-1.2,3.9-4,3.9l0,0c-0.7,0-1.4-0.2-2.2-0.7
				c0,0,0,0-0.1,0c-1-0.6-1.9-1.7-0.5-4l0,0c0.5-0.7,1.2-2.1,1-3.4c-0.1-0.7-0.6-1.4-1.3-1.9c-0.5-0.3-0.9-0.4-1.4-0.4
				c-1.1,0-2,0.7-2.9,2.1c-0.6,1-3.3,6.4-1.4,12.5C12.8,35,12.8,35,12.7,35.1C12.8,35.1,12.8,35.1,12.7,35.1L12.7,35.1L12.7,35.1z
				 M19,17.3c-2.6,0-4.4,1.5-5.5,2.8c-1.2,1.4-1.8,2.8-1.8,2.8c-2.1,4.6-0.2,9.5,0.6,11.4C11,28.3,13.5,23.4,14,22.4
				c0.9-1.4,1.9-2.2,3-2.2c0.5,0,1,0.2,1.5,0.4c0.8,0.5,1.3,1.2,1.4,2c0.3,1.4-0.5,2.8-1,3.5l0,0c-1,1.7-0.9,3,0.5,3.8
				c0,0,0.1,0,0.1,0.1c0.7,0.4,1.4,0.7,2.1,0.7l0,0c2.7,0,3.8-3.7,3.9-3.7c1.6-5.6-1-7.8-2.3-8.5c0,0,0,0-0.1,0
				C21.7,17.6,20.3,17.3,19,17.3L19,17.3z"/>
		</g>
		<path class="st1" d="M18.9,26.2c0,0,4.1-1.8,1.4-5.5c-0.6-0.8-2.6-2.4-5.7-0.1c-0.4,0.4-3,2.6-3,7.2c0.1,1.4,0,4.1,0.8,6.7
			c-1-3-2.4-7.5,0-12.1c0.1-0.3,3.5-5.8,7.7-3.6c0.7,0.3,2.5,1.7,2.7,4.1C22.9,23.9,22.5,26.1,18.9,26.2L18.9,26.2z"/>
		<g>
			<path class="st0" d="M16.4,28.1c0,0-2.1,5.9,1.2,10.4c0,0,4.6,6.6,10.6,1.7c0.2-0.2,3.2-2.5,0.5-7.6c-0.1-0.2-2.6-4.4-5.7-1.6
				c-0.2,0.2-1.7,1.2,0.2,3.4c0.2,0.2,2.7,2.5,0.6,4.6c-0.2,0.2-1.9,1.7-4-0.7C19.5,37.9,15.9,33.8,16.4,28.1L16.4,28.1z"/>
			<path class="st1" d="M23.8,42c-3.7,0-6.2-3.5-6.2-3.5C14.3,34,16.3,28.1,16.4,28c0,0,0.1-0.1,0.1-0.1c0,0,0.1,0.1,0.1,0.1
				c-0.5,5.4,2.7,9.4,3.3,10.1c0.8,0.9,1.6,1.3,2.4,1.3c0.4,0,1-0.1,1.5-0.6c0.5-0.5,0.8-1.1,0.8-1.8c0-1.1-0.9-2.1-1.4-2.6l0,0
				c-0.7-0.8-1-1.5-1-2.1c0-0.7,0.5-1.2,0.7-1.3c0,0,0,0,0,0c0.7-0.7,1.5-1,2.3-1c2.2,0,3.6,2.6,3.6,2.6c2.4,4.4,0.4,6.8-0.5,7.6
				c0,0,0,0,0,0C26.8,41.4,25.3,42,23.8,42L23.8,42z M16.3,28.9c-0.4,1.8-1.1,6,1.4,9.4c0,0,2.5,3.5,6,3.5c1.5,0,3-0.6,4.4-1.8
				c0,0,0,0,0,0c0.9-0.8,2.8-3.1,0.5-7.4c0,0-1.4-2.5-3.4-2.5c-0.7,0-1.4,0.3-2.1,0.9c0,0,0,0-0.1,0.1c-0.2,0.2-0.6,0.5-0.7,1.2
				c0,0.6,0.3,1.3,0.9,2l0,0c0.5,0.5,1.4,1.6,1.4,2.8c0,0.7-0.3,1.3-0.9,1.9c-0.6,0.6-1.2,0.7-1.7,0.7c-0.8,0-1.7-0.5-2.5-1.3
				C19.1,37.6,16.1,34,16.3,28.9L16.3,28.9z"/>
		</g>
		<path class="st1" d="M23.2,34.4c0,0,3.8,0.8,2.1,4.3c-0.3,0.7-1.7,2.6-4.8,1c-0.4-0.3-2.7-1.7-3.8-5.5c-0.3-1.2-0.7-3.4-0.5-5.7
			c-0.4,2.7-0.8,6.6,2.1,10c0.2,0.2,3.5,4.4,7.1,1.7c0.5-0.4,1.8-1.8,1.6-3.8C27,35.6,26.3,33.8,23.2,34.4L23.2,34.4z"/>
		<path class="st1" d="M47.9,60.6c-0.7-0.6-1.6-1.8-5.6-2.3c-2-0.3-4.5-0.9-3.9-2.8c0.1-0.3,0.4-0.6,1.1-0.4
			c0.3,0.1,0.7,0.4,0.8,0.8c0,0.3-0.2,0.9-0.6,0.7c0.2-0.1,0.3-0.3,0.3-0.5c0-0.3-0.3-0.4-0.5-0.4c-0.2,0-0.3,0.1-0.4,0.3
			c0,0,0,0,0,0c0,0,0,0.1,0,0.1c0,0.1,0,0.1,0,0.1c0,0,0,0.1,0,0.1l0,0c0,0,0,0.1,0,0.1l0,0c0,0.1,0.1,0.2,0.2,0.3c0,0,0,0,0.1,0
			l0,0c0,0,0.1,0,0.1,0.1c0,0,0,0,0,0c0.1,0.1,0.3,0.1,0.4,0c0.2,0,0.5-0.2,0.7-0.7c0-0.1,0-0.1,0.1-0.2l0,0c0,0,0,0,0-0.1l0,0
			c0-0.3,0-1.2-0.9-1.6c0,0,0,0,0,0c-0.1,0-0.1,0-0.2-0.1h0l0,0c-0.6-0.2-1.9-0.2-2.2,1.4c0,0.2-0.2,1.2,1.3,2.1
			c0.4,0.2,1.2,0.5,2.2,0.5c1,0,4.7,0.4,6.5,2.9c1.5,2.2,3.4,4.9,2.2,8.5c-0.1,0.3-0.6,1.5-1.1,2.1c-0.1,0.1-0.2,0.1-0.3,0.2l0,0
			c0,0-0.1,0-0.1,0c0,0,0,0,0,0c-0.4,0.2-0.9,0.3-1.5-0.2c-1.1-1,0-3.1,1.2-1.4c0,0-1.9-4.3-4.8-1.2c-0.1,0.1-1,1.2-0.9,2.6l0,0
			c0,0,0,0,0,0c0,0.1,0,0.3,0,0.4c0.4,2.6,2.7,3.3,2.7,3.3l0,0c0.5,0.2,1,0.3,1.7,0.4l0,0c0,0,0,0,0,0h0c4.1,0.1,4.9-4.3,4.9-4.3
			l0,0C51.8,69.6,51.9,65.5,47.9,60.6L47.9,60.6z M43.5,70c0.1-0.2,0.8-2.3,3.3-0.6c-0.8-0.3-2.5-0.7-2.7,1.1v0v0c0,0,0,0,0,0.1
			c0,0,0,0.1,0,0.2c0,1.7,1,2.3,1.4,2.5c0,0,0,0,0,0c0,0,0.1,0,0.2,0.1l0,0c0.8,0.2,3.6,0.5,4.6-3.1c0.3-0.7,0.8-7.1-5.2-10.9
			c0,0,4.7,2,5.8,9c0,0.3,0.1,0.8,0,1.2c-0.2,2.1-1.8,6.4-5.6,5C45.1,74.3,42.6,73,43.5,70L43.5,70z"/>
		<path class="st1" d="M65.2,8.8c0,0,0.8-0.6-0.1-1c-0.2-0.1-1.1-0.1-1.2,1c0,0.3,0.1,0.6,0.5,0.8c0.2,0.1,0.8,0.5,1.8-0.4
			c0.9-0.7,1.4-0.8,1.7-0.8c0,0,2.5-0.3,2.9,2.3c0,0-0.5-2.1-2.7-2c-0.3,0-1.1,0.2-1.8,1.2c-0.3,0.3-1.4,1.6-2.7,0.2
			c-0.3-0.3-0.7-1.3,0.3-2.2c0.1-0.1,0.7-0.5,1.4-0.1C65.4,7.8,66,8.3,65.2,8.8L65.2,8.8z"/>
		<g>
			<path class="st0" d="M87.8,8.2c0,0,4.9,0.7,3.6-3.9c-0.5-1.2-3.4-4.4-7.8-1c-1,0.9-2,2.7-1.4,4.7c0.4,1.1,0.8,4.5,7.6,5.1
				c5.7,0.7,7.5,2.4,8.8,3.4c0,0,9.4,8.2,1.4,18.5c0,0,6.3-9.2-1.5-16.8c-1.2-1-4.5-3.5-10.5-2.7c-2.1,0.1-10.9,0-9.9-9.2
				c0.1-1.9,2.1-7,9.1-6.2c0.8,0.2,4.4,0.7,5.2,4.7C92.3,5.4,92.5,9.5,87.8,8.2L87.8,8.2z"/>
			<path class="st1" d="M100,35.2C100,35.2,100,35.2,100,35.2c-0.1,0-0.1-0.1-0.1-0.1c0.1-0.1,6.1-9.3-1.5-16.7
				c-1.1-0.8-3.7-2.8-8.3-2.8c-0.7,0-1.4,0-2.1,0.1c-0.2,0-0.3,0-0.5,0c-2.4,0-5.7-0.5-7.8-2.7c-1.4-1.6-2-3.8-1.7-6.6
				C78,4.3,80.1,0,85.8,0c0.4,0,0.9,0,1.3,0.1c0.1,0,0.1,0,0.2,0c1.1,0.2,4.3,1,5.1,4.7c0,0,0.2,1.8-0.7,2.9
				c-0.8,0.9-2.1,1.1-3.8,0.6c0,0-0.1-0.1-0.1-0.1c0-0.1,0.1-0.1,0.1-0.1c0,0,0.2,0,0.6,0c0.7,0,2-0.1,2.7-1
				c0.5-0.6,0.6-1.6,0.2-2.8c-0.3-0.8-1.7-2.5-3.9-2.5c-1.2,0-2.5,0.5-3.8,1.6c-1.1,1-1.9,2.7-1.4,4.6c0,0.1,0.1,0.2,0.1,0.3
				c0.4,1.3,1.2,4.1,7.4,4.7c5.5,0.7,7.4,2.3,8.7,3.3l0.1,0.1c0,0,2.4,2.1,3.7,5.4C103.7,25,104.3,29.8,100,35.2
				C100.1,35.1,100.1,35.2,100,35.2L100,35.2z M90.1,15.4c4.7,0,7.3,2,8.5,2.9c6,5.8,3.7,12.6,2.3,15.5c3.1-4.8,2.5-8.9,1.4-11.7
				c-1.3-3.3-3.7-5.4-3.7-5.4l-0.1-0.1c-1.3-1-3.2-2.6-8.6-3.3c-6.4-0.6-7.2-3.5-7.6-4.8c0-0.1-0.1-0.2-0.1-0.3
				c-0.6-1.9,0.3-3.8,1.4-4.8c1.3-1.1,2.6-1.6,3.9-1.6c2.3,0,3.7,1.7,4.1,2.6c0.4,1.3,0.3,2.3-0.2,2.9c-0.6,0.8-1.7,1-2.5,1.1
				c1.2,0.2,2.1-0.1,2.7-0.7c0.9-1,0.7-2.7,0.7-2.7c-0.7-3.6-3.9-4.3-4.9-4.6c-0.1,0-0.1,0-0.2,0c-0.4,0-0.9-0.1-1.3-0.1
				c-5.5,0-7.5,4.2-7.6,6.2c-0.3,2.7,0.3,4.9,1.7,6.4c2,2.2,5.3,2.7,7.6,2.7c0.2,0,0.4,0,0.5,0C88.7,15.4,89.4,15.4,90.1,15.4
				L90.1,15.4z"/>
		</g>
		<g>
			<path class="st0" d="M83,49.4c0,0,4.3-0.5,2.7,3.2c-0.5,1-3.4,3.7-6.9,0.8c-0.8-0.8-1.4-2.3-0.7-3.9c0.4-0.9,1.1-3.7,7.1-4.2
				c5-0.6,6.7-2,7.9-2.9c0,0,9-6.9,3.1-15.5c0,0,4.5,7.7-3,14c-1.2,0.8-4.2,2.9-9.4,2.3c-1.8,0-9.4,0-9.5,7.7
				c-0.1,1.6,1.5,5.6,7.2,5.2c0.7-0.2,3.9-0.6,4.9-3.9C86.6,51.8,87.2,48.3,83,49.4L83,49.4z"/>
			<path class="st1" d="M80.7,56.3L80.7,56.3c-2.7,0-4.2-1.1-5-2c-1.1-1.1-1.5-2.5-1.4-3.4c0.1-7,6.4-7.8,9.2-7.8c0.2,0,0.3,0,0.5,0
				c0.6,0.1,1.2,0.1,1.8,0.1c4,0,6.4-1.7,7.5-2.4c7.3-6.2,3-13.8,3-13.9c0,0,0-0.1,0-0.1c0,0,0.1,0,0.1,0c5.9,8.6-3,15.5-3.1,15.6
				l-0.1,0.1c-1.2,0.9-3,2.2-7.8,2.8c-5.5,0.5-6.4,2.8-6.9,3.9c0,0.1-0.1,0.2-0.1,0.3c-0.6,1.5-0.1,3,0.7,3.8c1,0.8,2,1.3,3.1,1.3
				l0,0c1.9,0,3.3-1.4,3.6-2.1c0.4-1,0.4-1.8,0.1-2.3c-0.5-0.7-1.6-0.8-2.2-0.8c-0.3,0-0.5,0-0.5,0c-0.1,0-0.1,0-0.1-0.1
				c0-0.1,0-0.1,0.1-0.1c1.6-0.4,2.7-0.2,3.3,0.5c0.7,0.9,0.3,2.4,0.3,2.4c-1,3.1-3.9,3.7-4.9,3.9l-0.2,0
				C81.3,56.2,81,56.3,80.7,56.3L80.7,56.3z M83.4,43.3c-7.7,0-8.9,4.8-9,7.6c-0.1,0.8,0.3,2.2,1.4,3.3c0.8,0.9,2.3,1.9,4.9,1.9l0,0
				c0.3,0,0.5,0,0.8,0l0.1,0c0.9-0.2,3.7-0.8,4.7-3.8c0,0,0.4-1.4-0.3-2.2c-0.4-0.5-1.1-0.7-2.1-0.6c0.6,0.1,1.4,0.3,1.9,0.9
				c0.4,0.6,0.4,1.4-0.1,2.5c-0.4,0.7-1.8,2.2-3.8,2.2l0,0c-1.1,0-2.2-0.4-3.2-1.3c-0.9-0.8-1.4-2.4-0.8-4c0-0.1,0.1-0.2,0.1-0.3
				c0.5-1.2,1.5-3.6,7.1-4c4.8-0.6,6.6-1.9,7.8-2.8l0.1-0.1c0.1-0.1,8-6.3,3.8-14.1c0.9,2.5,2,8.1-3.6,12.8
				c-1.1,0.7-3.5,2.4-7.6,2.4c-0.6,0-1.2,0-1.8-0.1C83.8,43.3,83.6,43.3,83.4,43.3L83.4,43.3z"/>
		</g>
		<g>
			<path class="st0" d="M77.8,13.8c0,0-0.2-1.2,0.9-0.9c0.3,0.1,1.2,0.9,0.3,2c-0.2,0.3-0.7,0.5-1.2,0.3c-0.3-0.1-1.1-0.2-1.4-2
				c-0.2-1.4-0.7-1.9-1-2.2c0,0-2.2-2.4-4.7-0.5c0,0,2.3-1.5,4.3,0.5c0.3,0.3,0.9,1.1,0.8,2.7c0,0.5,0.1,2.7,2.4,2.6
				c0.5,0,1.7-0.6,1.5-2.3c-0.1-0.2-0.2-1.1-1.2-1.3C78.5,12.7,77.4,12.6,77.8,13.8z"/>
			<path class="st1" d="M78.1,16.4L78.1,16.4c-2,0-2.3-1.9-2.3-2.7c0.1-1.5-0.5-2.3-0.8-2.6c-0.7-0.7-1.4-1-2.3-1
				c-1.1,0-1.9,0.5-1.9,0.5c0,0-0.1,0-0.1,0c0,0,0-0.1,0-0.1c0.7-0.5,1.4-0.8,2.1-0.8c1.6,0,2.7,1.2,2.7,1.3l0,0
				c0.3,0.3,0.7,0.8,1,2.2c0.2,1.5,0.9,1.8,1.2,1.9c0,0,0.1,0,0.1,0c0.1,0,0.2,0.1,0.3,0.1c0.3,0,0.6-0.2,0.8-0.3
				c0.3-0.4,0.4-0.8,0.3-1.1c-0.1-0.4-0.5-0.7-0.6-0.7c-0.3-0.1-0.6-0.1-0.7,0.1c-0.2,0.2-0.1,0.5-0.1,0.7c0,0,0,0,0,0
				c0,0,0,0.1-0.1,0.1c0,0-0.1,0-0.1-0.1c-0.1-0.4-0.1-0.7,0-0.9c0.2-0.3,0.5-0.3,0.7-0.3c0.1,0,0.1,0,0.2,0c1,0.2,1.2,1.1,1.3,1.4
				l0,0c0.1,0.9-0.2,1.5-0.5,1.8c-0.3,0.4-0.8,0.6-1.1,0.6C78.3,16.4,78.2,16.4,78.1,16.4L78.1,16.4z M72.8,9.9
				c0.9,0,1.7,0.4,2.4,1.1c0.3,0.3,0.9,1.2,0.8,2.7c0,0.9,0.3,2.5,2.1,2.5l0,0c0.1,0,0.2,0,0.3,0c0.2,0,0.7-0.1,1-0.5
				c0.3-0.4,0.5-1,0.4-1.6l0,0c-0.1-0.2-0.2-0.8-0.8-1.1c0.2,0.1,0.5,0.4,0.6,0.8c0.1,0.4,0,0.8-0.3,1.3c-0.2,0.2-0.5,0.4-0.9,0.4
				c-0.1,0-0.2,0-0.4-0.1c0,0-0.1,0-0.1,0c-0.3-0.1-1.1-0.3-1.4-2c-0.2-1.4-0.6-1.8-0.9-2.1l0,0c0,0-1.1-1.2-2.6-1.2
				c-0.2,0-0.3,0-0.5,0C72.5,9.9,72.7,9.9,72.8,9.9L72.8,9.9z"/>
		</g>
		<g>
			<path class="st0" d="M70.9,10.5c0,0,1.7-0.9,3.2-0.1c0,0,2.2,1.2,0.9,3.1c0,0.1-0.6,1-2.2,0.4c-0.1,0-1.4-0.6-0.7-1.6
				c0-0.1,0.3-0.6,1-0.1c0.1,0.1,0.9,0.7,1.4,0c0.1-0.1,0.4-0.6-0.4-1.2C74,11,72.6,10.1,70.9,10.5L70.9,10.5z"/>
			<path class="st1" d="M73.7,14.3c-0.3,0-0.6-0.1-1-0.2c-0.1,0-0.7-0.3-0.9-0.8c-0.1-0.3-0.1-0.6,0.2-0.9c0.1-0.1,0.2-0.3,0.5-0.3
				c0.2,0,0.4,0.1,0.6,0.2c0.5,0.4,1,0.4,1.3,0c0.1-0.2,0.1-0.3,0.1-0.5c0-0.2-0.2-0.4-0.5-0.6c-0.2-0.1-1.1-0.6-2.3-0.6
				c-0.3,0-0.6,0-0.9,0.1c-0.1,0-0.1,0-0.1-0.1c0,0,0-0.1,0-0.1c0,0,0.8-0.4,1.8-0.4c0.5,0,1,0.1,1.5,0.3c0,0,1.1,0.6,1.3,1.6
				c0.1,0.5,0,1.1-0.4,1.7C74.8,14,74.3,14.3,73.7,14.3L73.7,14.3z M72.5,12.2c-0.2,0-0.3,0.2-0.4,0.2c0,0,0,0,0,0
				c-0.2,0.3-0.2,0.5-0.2,0.8c0.2,0.4,0.7,0.7,0.8,0.7c0.3,0.1,0.6,0.2,0.9,0.2c0.7,0,1.1-0.3,1.2-0.6c0.4-0.5,0.5-1,0.3-1.5
				C75,11.1,74,10.6,74,10.6c-0.4-0.2-0.9-0.3-1.4-0.3c-0.3,0-0.7,0.1-0.9,0.1h0.1c1.2,0,2.2,0.6,2.4,0.7c0.3,0.2,0.5,0.4,0.5,0.7
				c0,0.2,0,0.4-0.1,0.6c-0.2,0.3-0.4,0.4-0.7,0.4l0,0c-0.3,0-0.6-0.1-0.8-0.3C72.8,12.3,72.6,12.2,72.5,12.2L72.5,12.2z"/>
		</g>
		<path class="st1" d="M73.9,13.1c-0.1,0-0.3,0-0.4-0.1c-0.3-0.1-0.4-0.4-0.5-0.6c0-0.1,0-0.1,0.1-0.1s0.1,0,0.1,0.1
			c0.1,0.2,0.2,0.4,0.4,0.5c0.2,0.1,0.4,0.1,0.6,0.1c0.8-0.3,0.6-0.9,0.6-1.2c-0.6-1.8-3.7-1-3.8-1c0,0-0.1,0-0.1-0.1
			c0-0.1,0-0.1,0.1-0.1c0.1,0,3.3-0.7,4,1.2c0.2,0.7,0,1.2-0.7,1.4C74.1,13,74,13.1,73.9,13.1L73.9,13.1z"/>
		<path class="st1" d="M73.9,13.5c-0.1,0-0.3,0-0.5-0.1c-0.3-0.2-0.4-0.5-0.5-1.1c0,0,0-0.1,0.1-0.1c0.1,0,0.1,0,0.1,0.1
			c0,0.5,0.1,0.8,0.4,0.9c0.3,0.2,0.7,0.1,0.7,0c0.6-0.3,0.9-0.8,0.8-1.3c-0.8-2.3-3.9-1.4-3.9-1.3c-0.1,0-0.1,0-0.1-0.1
			c0-0.1,0-0.1,0.1-0.1c0,0,0.8-0.3,1.7-0.2c1.2,0.1,2.1,0.7,2.4,1.7c0,0,0,0,0,0c0.1,0.6-0.2,1.2-0.9,1.5
			C74.2,13.5,74,13.5,73.9,13.5L73.9,13.5z"/>
		<g>
			<path class="st0" d="M99.9,35c0,0,3.8-6.3,1.1-12.3c0,0-3.7-8.7-11.5-4.4c-0.2,0.1-4.3,2.1-2.4,8.6c0.1,0.3,1.9,5.7,6.1,3.1
				c0.3-0.2,2.2-1,0.6-3.9c-0.2-0.3-2.5-3.5,0.4-5.4c0.3-0.2,2.5-1.5,4.4,1.7C98.8,22.9,101.9,28.6,99.9,35L99.9,35z"/>
			<path class="st1" d="M99.9,35.1C99.9,35.1,99.9,35.1,99.9,35.1c-0.1,0-0.1-0.1-0.1-0.1c1.9-6.1-0.8-11.5-1.4-12.5
				c-0.8-1.4-1.8-2.1-2.9-2.1c-0.5,0-1,0.1-1.4,0.4c-0.7,0.5-1.2,1.1-1.3,1.9c-0.3,1.3,0.5,2.7,1,3.4l0,0c0.7,1.3,1.3,3-0.5,4
				c0,0,0,0-0.1,0c-0.8,0.5-1.5,0.7-2.2,0.7c-2.9,0-4-3.8-4-3.9c-1.7-5.7,1.1-8,2.4-8.7c0,0,0,0,0,0c1.5-0.8,2.9-1.2,4.2-1.2
				c2.6,0,4.5,1.5,5.6,2.8c1.2,1.4,1.8,2.8,1.8,2.8C103.8,28.6,100.1,35,99.9,35.1C100,35.1,100,35.1,99.9,35.1L99.9,35.1z
				 M95.6,20.2c1.2,0,2.2,0.7,3,2.2c0.5,1,3.1,5.9,1.7,11.8c0.9-1.9,2.7-6.8,0.6-11.4c0,0-0.6-1.4-1.8-2.8c-1.1-1.3-2.9-2.8-5.5-2.8
				c-1.3,0-2.7,0.4-4.1,1.2c0,0,0,0-0.1,0c-1.2,0.7-3.9,3-2.3,8.5c0,0,1.2,3.7,3.9,3.7c0.7,0,1.4-0.2,2.1-0.7c0,0,0,0,0.1-0.1
				c1.3-0.8,1.5-2,0.5-3.8l0,0c-0.5-0.7-1.3-2.1-1-3.5c0.2-0.8,0.6-1.5,1.4-2C94.6,20.4,95.1,20.2,95.6,20.2L95.6,20.2z"/>
		</g>
		<path class="st1" d="M93.7,26.2c0,0-4.1-1.8-1.4-5.5c0.6-0.8,2.6-2.4,5.7-0.1c0.4,0.4,3,2.6,3,7.2c-0.1,1.4,0,4.1-0.8,6.7
			c1-3,2.4-7.5,0-12.1c-0.1-0.3-3.5-5.8-7.7-3.6c-0.7,0.3-2.5,1.7-2.7,4.1C89.7,23.9,90.1,26.1,93.7,26.2L93.7,26.2z"/>
		<g>
			<path class="st0" d="M96.2,28.1c0,0,2.1,5.9-1.2,10.4c0,0-4.6,6.6-10.6,1.7c-0.2-0.2-3.3-2.5-0.5-7.6c0.1-0.2,2.6-4.4,5.7-1.6
				c0.2,0.2,1.7,1.2-0.2,3.4c-0.2,0.2-2.7,2.5-0.6,4.6c0.2,0.2,1.9,1.7,4-0.7C93.2,37.9,96.8,33.8,96.2,28.1L96.2,28.1z"/>
			<path class="st1" d="M88.9,42c-1.5,0-3-0.6-4.5-1.8c0,0,0,0,0,0c-0.9-0.8-2.9-3.2-0.5-7.6c0.1-0.3,1.6-2.6,3.6-2.6
				c0.8,0,1.5,0.3,2.3,1c0,0,0,0,0.1,0c0.2,0.2,0.7,0.6,0.7,1.3c0,0.7-0.3,1.4-1,2.1l0,0c-0.5,0.5-1.4,1.5-1.4,2.6
				c0,0.6,0.3,1.2,0.8,1.8c0.6,0.5,1.1,0.6,1.5,0.6c0.8,0,1.6-0.4,2.4-1.3c0.6-0.7,3.9-4.7,3.3-10.1c0,0,0-0.1,0.1-0.1
				c0.1,0,0.1,0,0.1,0.1c0,0.1,2.1,6-1.2,10.4C95,38.5,92.5,42,88.9,42L88.9,42L88.9,42z M87.4,30.1c-2,0-3.4,2.5-3.4,2.5
				c-2.3,4.3-0.5,6.6,0.5,7.4c0,0,0,0,0,0c1.4,1.2,2.9,1.7,4.4,1.7l0,0c3.6,0,6-3.4,6-3.5c2.5-3.4,1.9-7.6,1.4-9.4
				c0.1,5-2.8,8.7-3.4,9.4c-0.8,0.9-1.7,1.3-2.5,1.3l0,0c-0.4,0-1-0.1-1.7-0.7c-0.6-0.6-0.9-1.2-0.9-1.9c0-1.2,0.9-2.3,1.5-2.8l0,0
				c0.7-0.7,1-1.4,0.9-2c0-0.6-0.5-1-0.7-1.2c0,0,0,0-0.1-0.1C88.9,30.4,88.1,30.1,87.4,30.1L87.4,30.1z"/>
		</g>
		<path class="st1" d="M89.4,34.4c0,0-3.8,0.8-2.1,4.3c0.4,0.7,1.7,2.6,4.8,1c0.4-0.3,2.7-1.7,3.8-5.5c0.2-1.2,0.7-3.4,0.5-5.7
			c0.4,2.7,0.8,6.6-2.1,10c-0.2,0.2-3.6,4.4-7.1,1.7c-0.5-0.4-1.8-1.8-1.6-3.8C85.6,35.6,86.3,33.8,89.4,34.4L89.4,34.4z"/>
		<path class="st1" d="M61.3,71.7L61.3,71.7c0,0,0.8,4.4,4.9,4.3h0.1c0.6,0,1.2-0.2,1.7-0.4l0,0c0,0,2.3-0.7,2.7-3.3
			c0-0.1,0-0.3,0-0.4c0,0,0,0,0,0l0,0c0-1.4-0.8-2.5-0.9-2.6c-2.9-3.1-4.8,1.2-4.8,1.2c1.2-1.7,2.3,0.4,1.2,1.4
			c-0.6,0.5-1.1,0.4-1.5,0.2c0,0,0,0,0,0c0,0-0.1,0-0.1,0l0,0c-0.1-0.1-0.2-0.1-0.3-0.2c-0.5-0.6-1-1.8-1.1-2.1
			c-1.2-3.5,0.6-6.3,2.2-8.5c1.8-2.5,5.5-2.8,6.5-2.9c1,0,1.8-0.3,2.2-0.5c1.5-0.9,1.3-1.9,1.3-2.1c-0.3-1.7-1.6-1.6-2.2-1.4l0,0
			l0,0c-0.1,0-0.1,0.1-0.2,0.1c0,0,0,0,0,0C72,54.8,72,55.7,72,56l0,0c0,0.1,0,0.1,0,0.1l0,0c0,0.1,0,0.1,0.1,0.2
			c0.2,0.5,0.5,0.6,0.7,0.7c0.2,0,0.3,0,0.4,0c0,0,0,0,0,0c0.1,0,0.1-0.1,0.1-0.1l0,0c0,0,0,0,0.1,0c0.1-0.1,0.2-0.2,0.2-0.3l0,0
			c0-0.1,0-0.1,0-0.1l0,0c0-0.1,0-0.1,0-0.1s0-0.1,0-0.1c0,0,0-0.1,0-0.1c0,0,0,0,0,0c-0.1-0.1-0.2-0.2-0.3-0.3
			c-0.3,0-0.5,0.1-0.5,0.4c0,0.2,0.1,0.4,0.3,0.5c-0.5,0.2-0.7-0.4-0.6-0.7c0.1-0.4,0.5-0.8,0.8-0.8c0.7-0.2,1,0.1,1.1,0.4
			c0.7,1.9-1.9,2.6-3.9,2.8c-4,0.5-4.9,1.7-5.6,2.3C60.7,65.5,60.8,69.7,61.3,71.7L61.3,71.7z M67.3,74.4c-3.9,1.4-5.4-2.9-5.6-5
			c0-0.4,0-0.9,0-1.2c1.1-7,5.8-9,5.8-9c-6,3.8-5.5,10.2-5.2,10.9c1,3.7,3.8,3.3,4.6,3.1l0,0c0.1,0,0.1-0.1,0.2-0.1c0,0,0,0,0,0
			c0.4-0.2,1.4-0.8,1.4-2.5c0-0.1,0-0.1,0-0.2c0,0,0,0,0-0.1v0c0,0,0,0,0,0c-0.2-1.8-1.9-1.4-2.7-1.1c2.5-1.6,3.3,0.4,3.3,0.6
			C70.1,73,67.6,74.3,67.3,74.4L67.3,74.4z"/>
		<path class="st1" d="M56.3,22.5c0,0.4,0.3,3.4,4,7.5h0c1.2,1.1,2.1,2.7,2.1,4.5c0,3.3-2.7,6-6,6c-3.3,0-6-2.7-6-6
			c0-1.8,0.8-3.4,2-4.5h0C56,25.9,56.3,22.9,56.3,22.5c-2.2-14-25.9-10.9-25.9,5.9c0,20.9,24.1,26.2,25.9,31.6
			c1.8-5.4,25.9-10.7,25.9-31.6C82.2,11.7,58.5,8.6,56.3,22.5L56.3,22.5z"/>
		<path class="st1" d="M56.5,22.5L56.5,22.5C56.5,22.5,56.5,22.5,56.5,22.5C56.5,22.5,56.5,22.5,56.5,22.5L56.5,22.5z"/>
		<path class="st0" d="M49.2,17.8c-4-4.2-9.9-0.5-9.9-0.5c-5.4,3.5-4.3,7.3-4.3,7.3l0,0c0,0.2,0.1,0.4,0.1,0.6
			c0.7,2.4,3,3.8,5.2,3.2c1.7-0.5,2.8-2.2,2.8-4c-0.1-1.2-1.1-2.3-2.3-2.4c-1.3-0.1-2.3,0.8-2.4,2c-0.1,0.9,0.4,1.7,1.2,2
			c-1-0.4-1.8-1.3-1.8-2.3c0-1.4,1.3-2.5,2.9-2.5c1.2,0,2.3,0.7,2.8,1.6c-0.4-0.8-0.3-1.8,0.3-2.6c0.8-0.9,2.1-1.2,2.9-0.5
			c0.6,0.5,0.8,1.4,0.5,2.2c0.2-0.7-0.1-1.3-0.6-1.7c-0.7-0.5-1.8-0.3-2.4,0.5c-0.5,0.7-0.4,1.9,0.1,2.6c0.6,0.7,1.4,1.1,2.3,1.1
			c0.5,0,0.9-0.1,1.3-0.3c0.2-0.1,0.5-0.2,0.7-0.5c0,0,0.1-0.1,0.1-0.1c0,0,0,0,0.1-0.1c0.1-0.1,0.2-0.2,0.3-0.4c0,0,0,0,0,0
			C51.3,20.3,49.5,18.1,49.2,17.8L49.2,17.8z"/>
		<path class="st0" d="M34.2,22.9c0,0-0.9,4.7,3.8,6.4c-0.4,0-4.1,0.9-4.4,4.6C33.1,32,32,27.1,34.2,22.9L34.2,22.9z"/>
		<path class="st0" d="M43.2,43.1c-0.4-2.6-1.8-2.9-2.5-3c-2.1,0-2.1,1.4-2.1,1.6c0.2,1.9,1.6,1.5,1.8,1.2c0.4-1-0.7-0.9-1-0.7
			c0.2-1,2.3-0.5,1.6,1C40.7,44,40,44,39.3,43.8c2.9,2.9,6.1,4.8,6.1,4.8C44.1,48,43.2,43.1,43.2,43.1L43.2,43.1z M39.5,39.4
			c2.4-0.7,3.8,1.2,4.4,2.5c0.2-1.8,0.5-3.4,0.7-4.2c0.6-5.7-3.3-7.4-4.4-7.6c-5.3-0.8-5.7,3.6-5.7,4.2c0,0.5,0,1,0.1,1.5
			c0.5,0.9,1.4,1.6,2.6,1.7c1.5,0.1,2.8-1,2.9-2.4c0.1-1-0.6-2-1.5-2.4c1.3,0.4,2.2,1.5,2.2,2.7c0,1.6-1.5,3-3.5,3
			c-0.7,0-1.4-0.2-2.1-0.5c0.6,1.5,1.6,2.9,2.7,4.2C37.6,40.9,38.4,39.8,39.5,39.4L39.5,39.4z"/>
		<path class="st0" d="M46.9,42.7c0,0-1.1,1.2-1.7-0.2c-0.1-0.4,0-1.8,1.7-1.8c0.4,0,1,0.3,1.3,0.9c0.1,0.4,0.7,1.3-0.9,2.8
			c-1.3,1.3-1.4,2.1-1.5,2.7c0,0-0.7,4,3.4,5c0,0-3.4-1-3-4.5c0.1-0.5,0.4-1.8,2.1-2.8c0.5-0.4,2.7-2.2,0.6-4.3
			c-0.4-0.4-2-1.2-3.5,0.3c-0.2,0.2-0.9,1.1-0.3,2.2C45.2,42.9,46,44,46.9,42.7L46.9,42.7z"/>
		<path class="st0" d="M49.5,51.9c0,0-2.2-0.9-2.6-2.9c0,0-0.6-3,2.2-3.3c0.1,0,1.4-0.2,2.2,1.8c0,0.1,0.6,1.8-1,2
			c-0.1,0-0.8,0.1-0.9-0.9c0-0.1,0-1.4-1.1-1.3c-0.1,0-0.9,0.1-0.8,1.3C47.5,48.5,47.7,50.6,49.5,51.9L49.5,51.9z"/>
		<path class="st0" d="M54.8,53L54.8,53c0,0,1.5-0.5,1.3-1.9l0,0v0l0,0c0-0.2-0.1-0.4-0.2-0.6l0,0c0,0-0.4-0.8-1.3-0.8
			c-0.1,0-0.1,0-0.1,0h0c-0.5,0.1-0.8,0.4-0.9,0.4c-0.9,1.2,0.7,1.6,0.7,1.6c-0.7-0.3,0-0.8,0.4-0.5c0.2,0.2,0.2,0.4,0.2,0.5
			c0,0,0,0,0,0c0,0,0,0,0,0l0,0c0,0,0,0.1-0.1,0.1c-0.2,0.2-0.6,0.4-0.7,0.5c-1.2,0.6-2.2,0.1-3.1-0.4c-1-0.5-1.3-1.8-1.3-2.1
			c-0.1-0.3-0.2-0.6-0.3-0.7c-0.4-0.5-0.7-0.4-0.8-0.4C48,49,48,49.4,48.1,49.7l0,0c0,0,0,0,0,0.1v0c0.2,0.3,0.5,0.3,0.6,0.2l0,0
			c0,0,0,0,0,0l0,0c0,0,0,0,0.1,0c0.2-0.1,0.2-0.2,0.2-0.3c0-0.1,0-0.1,0-0.1c0,0,0,0,0,0c0,0,0,0,0,0l0,0c0,0,0,0,0,0
			c0,0-0.1-0.1-0.1-0.1l0,0c0,0-0.1,0-0.1,0l0,0l0,0h-0.1c0,0,0,0,0,0h0c0,0-0.1,0.1-0.1,0.1c0,0.1,0.1,0.2,0.2,0.2
			c0.1,0,0.1,0,0.2-0.1c0.1,0.2-0.1,0.3-0.2,0.3c-0.2,0-0.3-0.1-0.3-0.2c-0.1-0.2,0-0.3,0.1-0.4c0.6-0.3,1,0.5,1.2,1.2
			c0.4,1.4,0.8,1.6,1.1,1.8C52.6,53.4,54.1,53.2,54.8,53L54.8,53z M55.4,50.7c0.7,1.3-0.7,2-1.5,2.2c-0.1,0-0.3,0-0.4,0
			c-2.5,0-3.4-1.6-3.4-1.6c1.6,1.9,3.8,1.4,4.1,1.3c1.2-0.5,1-1.5,0.9-1.8l0,0c0,0,0-0.1,0-0.1h0c-0.1-0.1-0.3-0.5-0.9-0.4h0
			c0,0,0,0,0,0h0c-0.6,0.2-0.4,0.7-0.3,1c-0.7-0.8,0-1.2,0.1-1.2C54.8,49.8,55.4,50.6,55.4,50.7z"/>
		<path class="st0" d="M63.4,17.8c4-4.2,9.9-0.5,9.9-0.5c5.4,3.5,4.3,7.3,4.3,7.3h0c0,0.2-0.1,0.4-0.1,0.6c-0.7,2.4-3,3.8-5.2,3.2
			c-1.7-0.5-2.8-2.2-2.8-4c0.1-1.2,1.1-2.3,2.3-2.4c1.2-0.1,2.3,0.8,2.4,2c0.1,0.9-0.4,1.7-1.2,2c1-0.4,1.8-1.3,1.8-2.3
			c0-1.4-1.3-2.5-2.9-2.5c-1.2,0-2.3,0.7-2.8,1.6c0.4-0.8,0.3-1.8-0.3-2.6c-0.8-0.9-2.1-1.2-2.9-0.5c-0.6,0.5-0.8,1.4-0.5,2.2
			c-0.1-0.7,0.1-1.3,0.6-1.7c0.7-0.5,1.8-0.3,2.4,0.5c0.5,0.7,0.4,1.9-0.1,2.6c-0.6,0.7-1.4,1.1-2.3,1.1c-0.5,0-0.9-0.1-1.3-0.3
			c-0.2-0.1-0.5-0.2-0.7-0.5c0,0-0.1-0.1-0.1-0.1c0,0,0,0-0.1-0.1c-0.1-0.1-0.2-0.2-0.3-0.4c0,0,0,0,0,0
			C61.3,20.3,63.2,18.1,63.4,17.8L63.4,17.8z"/>
		<path class="st0" d="M78.5,22.9c0,0,0.9,4.7-3.8,6.4c0.4,0,4.1,0.9,4.4,4.6C79.5,32,80.6,27.1,78.5,22.9L78.5,22.9z"/>
		<path class="st0" d="M67.3,48.6c0,0,3.1-1.9,6.1-4.8c-0.7,0.2-1.4,0.2-1.8-0.6c-0.7-1.5,1.4-2,1.6-1c-0.2-0.2-1.3-0.2-1,0.7
			c0.1,0.3,1.6,0.7,1.8-1.2c0-0.2,0-1.6-2.1-1.6c-0.7,0.1-2.1,0.4-2.5,3C69.4,43.1,68.6,48,67.3,48.6L67.3,48.6z M74.9,42.2
			c1.1-1.3,2.1-2.7,2.7-4.2c-0.6,0.3-1.3,0.5-2.1,0.5c-1.9,0-3.5-1.4-3.5-3c0-1.2,0.9-2.3,2.2-2.7c-1,0.4-1.6,1.4-1.5,2.4
			c0.1,1.4,1.4,2.5,2.9,2.4c1.1-0.1,2.1-0.8,2.6-1.7c0.1-0.5,0.1-1,0.1-1.5c0-0.6-0.4-5-5.7-4.2c-1.1,0.2-5,2-4.4,7.6
			c0.1,0.7,0.5,2.4,0.7,4.2c0.6-1.3,1.9-3.2,4.4-2.5C74.2,39.8,75,40.9,74.9,42.2L74.9,42.2z"/>
		<path class="st0" d="M65.8,42.7c0,0,1.1,1.2,1.7-0.2c0.1-0.4,0-1.8-1.7-1.8c-0.4,0-1,0.3-1.3,0.9c-0.1,0.4-0.7,1.3,0.9,2.8
			c1.3,1.3,1.4,2.1,1.5,2.7c0,0,0.7,4-3.4,5c0,0,3.4-1,3-4.5c-0.1-0.5-0.4-1.8-2.1-2.8c-0.5-0.4-2.7-2.2-0.6-4.3
			c0.4-0.4,2-1.2,3.5,0.3c0.2,0.2,0.9,1.1,0.3,2.2C67.4,42.9,66.7,44,65.8,42.7L65.8,42.7z"/>
		<path class="st0" d="M63.2,51.9c0,0,2.2-0.9,2.6-2.9c0,0,0.6-3-2.2-3.3c-0.1,0-1.4-0.2-2.2,1.8c0,0.1-0.6,1.8,1,2
			c0.1,0,0.8,0.1,0.9-0.9c0-0.1,0-1.4,1.1-1.3c0.1,0,0.9,0.1,0.8,1.3C65.2,48.5,64.9,50.6,63.2,51.9L63.2,51.9z"/>
		<path class="st0" d="M61.9,52.3c0.2-0.2,0.7-0.5,1.1-1.8c0.2-0.7,0.5-1.5,1.2-1.2c0.1,0.1,0.2,0.2,0.1,0.4c0,0.1-0.2,0.2-0.3,0.2
			c-0.1,0-0.3-0.1-0.2-0.3c0,0.1,0.1,0.1,0.2,0.1c0.1,0,0.2-0.1,0.2-0.2c0-0.1,0-0.1-0.1-0.1l0,0c0,0,0,0,0,0h-0.1c0,0,0,0,0,0l0,0
			c0,0,0,0-0.1,0l0,0c0,0-0.1,0-0.1,0.1c0,0,0,0,0,0l0,0c0,0,0,0,0,0v0c0,0-0.1,0.1,0,0.1c0,0.1,0,0.2,0.2,0.3c0,0,0,0,0.1,0l0,0
			c0,0,0,0,0,0l0,0c0.1,0,0.4,0.1,0.6-0.2v0c0,0,0,0,0-0.1l0,0c0.1-0.2,0.2-0.7-0.4-0.9c-0.1,0-0.4-0.1-0.8,0.4
			c-0.1,0.1-0.2,0.4-0.3,0.7c-0.1,0.4-0.4,1.6-1.3,2.1c-0.8,0.4-1.9,0.9-3.1,0.4c-0.1-0.1-0.5-0.3-0.7-0.5c0,0,0-0.1-0.1-0.1l0,0
			c0,0,0,0,0,0s0,0,0,0c-0.1-0.1-0.1-0.3,0.2-0.5c0.4-0.4,1.1,0.1,0.4,0.5c0,0,1.6-0.5,0.6-1.6c0-0.1-0.4-0.4-0.9-0.4h0
			c-0.1,0-0.1,0-0.1,0c-0.9,0-1.3,0.8-1.3,0.8l0,0c-0.1,0.2-0.2,0.3-0.2,0.6l0,0v0l0,0c-0.2,1.4,1.3,1.9,1.3,1.9l0,0
			C58.6,53.2,60,53.5,61.9,52.3L61.9,52.3z M58.8,50.3c0.1,0,0.7,0.4,0.1,1.2c0.2-0.3,0.4-0.8-0.3-1l0,0c0,0,0,0,0,0c0,0,0,0,0,0
			h-0.1c-0.6-0.1-0.8,0.2-0.9,0.4l0,0c0,0,0,0,0,0.1l0,0c-0.1,0.3-0.3,1.2,0.9,1.8c0.2,0.1,2.4,0.6,4.1-1.3c0,0-0.9,1.6-3.4,1.6
			c-0.1,0-0.3,0-0.4,0c-0.7-0.2-2.2-0.9-1.5-2.2C57.3,50.6,57.8,49.8,58.8,50.3L58.8,50.3z"/>
	</g>
	<g>
		<g>
			<path class="st2" d="M233.8,59.9v-3.5H233v3.5c0,0.4-0.1,0.7-0.2,1c-0.1,0.2-0.2,0.3-0.4,0.4c-0.1,0-0.2,0.1-0.3,0.1
				c-0.2,0-0.4-0.1-0.6-0.2l-0.4,0.5c0.3,0.2,0.6,0.2,0.9,0.2c0.5,0,0.9-0.1,1.2-0.3C233.6,61.3,233.8,60.7,233.8,59.9L233.8,59.9z"
				/>
			<path class="st2" d="M248.1,61.8v-0.6h-2.6v-2.1h2.6v-0.6h-2.6V57h2.6v-0.6h-3.4v5.4L248.1,61.8L248.1,61.8z"/>
			<path class="st2" d="M264.6,62l-1.8-4l-1.8,4l-2.6-5.6h0.8l1.8,3.9l1.8-4l1.8,4l1.8-3.9h0.8L264.6,62L264.6,62z"/>
			<path class="st2" d="M277.5,61.8v-5.4h3.4V57h-2.6v1.5h2.6v0.6h-2.6v2.1h2.6v0.6L277.5,61.8L277.5,61.8z"/>
			<path class="st2" d="M294.5,61.8v-0.6h-1.9v-4.8h-0.8v5.4L294.5,61.8L294.5,61.8z"/>
			<path class="st2" d="M307.9,61.8l-1.9-2.3h-0.4v2.3h-0.8v-5.4h1.1c0.7,0,1.3,0.1,1.6,0.3c0.5,0.3,0.7,0.7,0.7,1.2
				c0,0.2,0,0.4-0.1,0.6c0,0.1-0.1,0.2-0.1,0.2c0,0.1-0.1,0.1-0.2,0.2c-0.2,0.2-0.5,0.4-0.8,0.4c-0.1,0-0.2,0-0.4,0.1l2,2.4
				L307.9,61.8L307.9,61.8z M307.2,57.2c-0.2-0.2-0.7-0.3-1.3-0.3h-0.3v2c0.2,0,0.4,0,0.6,0c0.2,0,0.4,0,0.5-0.1
				c0.4-0.1,0.7-0.3,0.8-0.6c0-0.1,0.1-0.2,0.1-0.4C307.6,57.7,307.5,57.4,307.2,57.2z"/>
			<path class="st2" d="M323.6,56.4h-0.9l-1.6,2.3l-1.6-2.3h-0.9l2.1,3v2.4h0.8v-2.4L323.6,56.4z"/>
		</g>
		<g>
			<path class="st2" d="M128.9,44.9l-8.6-17.5h2.6l5.9,12.5l6-12.5h2.6L128.9,44.9L128.9,44.9z"/>
			<path class="st2" d="M154.4,44.1V27.4H165v1.8h-8.2V34h8v1.8h-8v6.5h8.2v1.8H154.4z"/>
			<path class="st2" d="M185.4,31.4v12.6H183V26.6l14.9,13.3V27.3h2.4v17.4L185.4,31.4L185.4,31.4z"/>
			<path class="st2" d="M232.7,40.6c-0.5,1.2-1.3,2.1-2.5,2.8c-0.5,0.3-0.9,0.5-1.3,0.6c-0.9,0.3-1.8,0.5-2.9,0.5
				c-1.4,0-2.6-0.3-3.7-0.8c-1.2-0.6-2.1-1.5-2.7-2.6c-0.5-1-0.8-2-0.8-3V27.4h2.4v10.2c0,1.6,0.4,2.8,1.2,3.6
				c0.8,0.9,2,1.3,3.6,1.3c1.7,0,2.9-0.4,3.7-1.3c0.8-0.9,1.2-2.2,1.2-3.8V27.4h2.4V38C233.3,38.9,233.1,39.8,232.7,40.6L232.7,40.6
				z"/>
			<path class="st2" d="M261.5,42.9c-0.6,0.5-1.3,0.9-2,1.1c-0.8,0.3-1.6,0.5-2.4,0.5c-1,0-2-0.2-2.9-0.6c-0.5-0.2-0.8-0.4-1.2-0.7
				c-0.4-0.3-0.8-0.6-1-1c-0.5-0.7-0.9-1.5-1-2.4l2.4-0.4c0,0.6,0.2,1.2,0.6,1.7c0.4,0.5,0.9,0.9,1.5,1.1c0.6,0.2,1.2,0.3,1.8,0.3
				c0.9,0,1.7-0.2,2.4-0.7c0.8-0.5,1.2-1.2,1.3-2.1l0.1-0.6c0.1-0.8-0.3-1.5-1.1-2c-0.6-0.4-1.6-0.9-2.8-1.3
				c-1.5-0.5-2.4-0.9-2.9-1.1c-0.7-0.3-1.2-0.8-1.7-1.4c-0.5-0.6-0.7-1.3-0.7-2.1c0-0.7,0.3-1.4,0.9-2.2c0.2-0.3,0.4-0.5,0.6-0.7
				c1.2-0.9,2.6-1.3,4.3-1.3c2.2,0,3.9,0.8,5,2.5l-1.8,0.9c-0.7-1.1-1.8-1.6-3.3-1.6c-1.2,0-2.2,0.4-2.9,1.3
				c-0.3,0.4-0.4,0.7-0.4,1.1c0,1.1,0.7,1.9,2,2.3l2.3,0.7c2.3,0.7,3.7,1.7,4.4,2.9c0.3,0.7,0.5,1.4,0.5,2.1
				C263.3,40.7,262.7,41.9,261.5,42.9L261.5,42.9z"/>
			<path class="st2" d="M309.4,29.2v14.9H307V29.2h-4.7v-1.8h11.8v1.8H309.4L309.4,29.2z"/>
			<path class="st2" d="M331.3,44.1V27.4h10.6v1.8h-8.2V34h8v1.8h-8v6.5h8.2v1.8H331.3z"/>
			<path class="st2" d="M374.4,44.1l-2.3-4.2H363l-2.3,4.2h-2.6l9.4-17.4l9.4,17.4H374.4z M367.5,31.1l-3.6,7h7.2L367.5,31.1z"/>
			<path class="st2" d="M403.2,44.1l-5.9-7.1h-1.1v7.1h-2.4V27.4h3.5c2.3,0,4,0.3,4.9,0.9c1.5,0.9,2.3,2.2,2.3,3.7
				c0,0.6-0.1,1.2-0.4,1.8c-0.1,0.3-0.2,0.6-0.4,0.7c-0.1,0.2-0.3,0.4-0.6,0.7c-0.6,0.6-1.4,1.1-2.4,1.4c-0.3,0.1-0.7,0.1-1.1,0.2
				l6.3,7.3L403.2,44.1L403.2,44.1z M401.2,30c-0.8-0.6-2.2-0.9-4.1-0.9h-0.9v6.3c0.7,0,1.3,0,1.9-0.1c0.7-0.1,1.2-0.1,1.5-0.2
				c1.3-0.3,2.1-0.9,2.5-1.8c0.1-0.3,0.2-0.7,0.2-1.2C402.4,31.3,402,30.5,401.2,30L401.2,30z"/>
			<path class="st2" d="M432.8,42.9c-0.6,0.5-1.3,0.9-2,1.1c-0.8,0.3-1.6,0.5-2.4,0.5c-1,0-2-0.2-2.9-0.6c-0.5-0.2-0.9-0.4-1.2-0.7
				c-0.4-0.3-0.8-0.6-1-1c-0.5-0.7-0.9-1.5-1-2.4l2.4-0.4c0,0.6,0.2,1.2,0.6,1.7c0.4,0.5,0.9,0.9,1.5,1.1c0.6,0.2,1.2,0.3,1.8,0.3
				c0.9,0,1.7-0.2,2.4-0.7c0.8-0.5,1.2-1.2,1.3-2.1l0.1-0.6c0.1-0.8-0.3-1.5-1.1-2c-0.6-0.4-1.6-0.9-2.8-1.3
				c-1.5-0.5-2.4-0.9-2.9-1.1c-0.7-0.3-1.2-0.8-1.7-1.4c-0.5-0.6-0.7-1.3-0.7-2.1c0-0.7,0.3-1.4,0.9-2.2c0.2-0.3,0.4-0.5,0.6-0.7
				c1.2-0.9,2.6-1.3,4.3-1.3c2.2,0,3.9,0.8,5,2.5l-1.8,0.9c-0.7-1.1-1.8-1.6-3.3-1.6c-1.2,0-2.2,0.4-2.9,1.3
				c-0.3,0.4-0.4,0.7-0.4,1.1c0,1.1,0.7,1.9,2,2.3l2.3,0.7c2.3,0.7,3.7,1.7,4.4,2.9c0.3,0.7,0.5,1.4,0.5,2.1
				C434.7,40.7,434.1,41.9,432.8,42.9L432.8,42.9z"/>
		</g>
	</g>
</g>
</svg>
