<svg xmlns="http://www.w3.org/2000/svg" width="23" height="22" viewBox="0 0 23 22"><defs><style>.a{fill:#c1a760;}</style></defs><path class="a" d="M11.5,22a.42.42,0,0,1-.417-.421c0-2.232-2.944-2.376-3.069-2.382H.418A.42.42,0,0,1,0,18.777V.421A.42.42,0,0,1,.418,0H8.585a3.036,3.036,0,0,1,3.333,2.943V21.579A.42.42,0,0,1,11.5,22m-3.47-3.644a4.827,4.827,0,0,1,3.053,1.19V2.943c0-.213-.1-2.1-2.5-2.1H.835V18.356Z" transform="translate(0)"/><path class="a" d="M9.668,22a.419.419,0,0,1-.417-.421V2.943A3.035,3.035,0,0,1,12.583,0h8.168a.419.419,0,0,1,.417.421V18.777a.419.419,0,0,1-.417.421H13.137c-.117.006-3.051.16-3.051,2.382A.42.42,0,0,1,9.668,22M12.583.842a2.2,2.2,0,0,0-2.5,2.1v16.6a4.8,4.8,0,0,1,3.035-1.189h7.213V.842Z" transform="translate(1.832)"/></svg>