<svg xmlns="http://www.w3.org/2000/svg" width="202" height="44" viewBox="0 0 202 44"><defs><style>.a{fill:#eb88a2;}.b{fill:#ddd7cf;}</style></defs><g transform="translate(-11372.043 19596.674)"><rect class="a" width="200" height="42" rx="21" transform="translate(11372.043 -19596.674)"/><path class="b" d="M21,1a20.006,20.006,0,0,0-7.785,38.429A19.874,19.874,0,0,0,21,41H179a20.006,20.006,0,0,0,7.785-38.429A19.874,19.874,0,0,0,179,1H21m0-1H179a21,21,0,0,1,0,42H21A21,21,0,0,1,21,0Z" transform="translate(11374.043 -19594.674)"/></g></svg>