<svg xmlns="http://www.w3.org/2000/svg" xmlns:xlink="http://www.w3.org/1999/xlink" width="57.858" height="50.538" viewBox="0 0 57.858 50.538"><defs><style>.a{fill:#fff;}.b{clip-path:url(#a);}</style><clipPath id="a"><rect class="a" width="57.858" height="50.538" transform="translate(0 0)"/></clipPath></defs><g class="b" transform="translate(0 0)"><path class="a" d="M57.82,16.15a16.436,16.436,0,0,1-1.53,5.725,21.683,21.683,0,0,1-3.513,5.278A1.015,1.015,0,0,1,51.262,25.8a19.653,19.653,0,0,0,3.187-4.781A14.414,14.414,0,0,0,55.795,16a11.611,11.611,0,0,0-.684-4.91,12.957,12.957,0,0,0-2.97-4.566A14.924,14.924,0,0,0,34.46,3.784a1.015,1.015,0,0,1-.954-1.793A16.944,16.944,0,0,1,53.59,5.1,14,14,0,0,1,57.82,16.15M28.87,22.089a1.015,1.015,0,0,0-1.436.013L14.417,35.35a1.015,1.015,0,0,0,1.448,1.423L28.883,23.525a1.015,1.015,0,0,0-.013-1.436m4.69,4.774a1.015,1.015,0,0,0-1.436.013L19.109,40.126a1.015,1.015,0,1,0,1.449,1.423L33.574,28.3a1.015,1.015,0,0,0-.013-1.436M31.232,21.2a6.928,6.928,0,0,0,4.975,2.1h0a6.925,6.925,0,0,0,4.972-2.1l0-.005a2.234,2.234,0,0,0,.634-1.562s0,0,0-.006a2.246,2.246,0,0,0-.634-1.558l-.005-.005-5-5.093C34,10.757,31.761,8.482,29.615,6.3L29.3,5.979l-.27-.274-.266-.27c-.09-.093-.2-.207-.307-.313A16.994,16.994,0,0,0,16.307.005h0a16.923,16.923,0,0,0-12.111,5.1A13.859,13.859,0,0,0,.1,16.682a17.387,17.387,0,0,0,1.851,5.964,22.816,22.816,0,0,0,3.907,5.411,1.015,1.015,0,1,0,1.463-1.408,18.039,18.039,0,0,1-5.2-10.195A11.889,11.889,0,0,1,5.642,6.529,14.892,14.892,0,0,1,16.3,2.036h0A14.864,14.864,0,0,1,22,3.164a15.029,15.029,0,0,1,5.01,3.385l.006.006c.1.1.205.207.287.292l.006.007.272.277.267.272.315.32C30.313,9.9,32.548,12.18,34.727,14.4l5,5.09a.228.228,0,0,1,.061.151.22.22,0,0,1-.061.144,4.909,4.909,0,0,1-3.521,1.485h0a4.913,4.913,0,0,1-3.526-1.488l-5.449-5.547-.006-.006-.006-.007-.013-.012-.019-.018-.019-.016-.021-.017-.019-.015-.022-.016-.02-.014-.022-.015-.02-.013-.022-.014L27,14.058l-.022-.012-.022-.011-.022-.011-.023-.01L26.889,14,26.865,14l-.022-.008-.025-.008-.022-.007-.025-.007-.022-.006-.026-.006-.022,0-.026,0-.022,0-.026,0-.023,0-.026,0h-.121l-.024,0-.024,0-.024,0-.025,0-.023,0-.025,0-.023,0-.024.006-.023.006-.024.007-.023.007-.024.008L26.148,14,26.125,14l-.023.01-.022.01-.023.011-.021.011-.023.013-.02.012-.023.014-.019.012-.023.016-.019.013-.023.017-.018.014-.022.018-.018.015-.02.019-.012.011-.006.006-.007.006L9.724,30.574A1.015,1.015,0,1,0,11.173,32l15.334-15.6Zm14.4,6.247a4.292,4.292,0,0,0-6.137-.1l-.04.042A4.419,4.419,0,0,0,38.2,30.836c-.127-.013-.254-.021-.383-.023a4.264,4.264,0,0,0-3.085,1.245A4.38,4.38,0,0,0,33.423,35.2q0,.167.012.331c-.125-.013-.25-.021-.377-.023a4.274,4.274,0,0,0-3.091,1.245,4.393,4.393,0,0,0-1.309,3.148q0,.167.012.332c-.124-.013-.249-.02-.375-.022A4.277,4.277,0,0,0,25.2,41.458a4.434,4.434,0,0,0-.125,6.165,1.016,1.016,0,0,0,.089.091l2.53,2.53a1.015,1.015,0,1,0,1.436-1.436l-2.558-2.558a2.4,2.4,0,0,1,.053-3.347,2.264,2.264,0,0,1,3.244.051h0l2.474,2.6a1.015,1.015,0,0,0,1.471-1.4l-2.476-2.6h0a2.4,2.4,0,0,1,.049-3.351,2.262,2.262,0,0,1,3.245.053l2.446,2.568a1.015,1.015,0,1,0,1.47-1.4l-2.435-2.556-.011-.012A2.4,2.4,0,0,1,36.16,33.5a2.253,2.253,0,0,1,1.594-.66h.034a2.259,2.259,0,0,1,1.613.711h0l2.416,2.536a1.015,1.015,0,0,0,1.47-1.4l-2.416-2.536a2.4,2.4,0,0,1,.051-3.351l.031-.032a2.261,2.261,0,0,1,3.211.082l2.389,2.5a1.015,1.015,0,0,0,1.469-1.4Z" transform="translate(0 -0.004)"/></g></svg>