<svg xmlns="http://www.w3.org/2000/svg" width="15" height="12.934" viewBox="0 0 15 12.934">
  <g id="home" transform="translate(0 -17.319)">
    <path id="Path_1763" data-name="Path 1763" d="M45.056,135.551a.447.447,0,0,0-.447.447v4.54h-9.08V136a.447.447,0,1,0-.895,0v4.987a.447.447,0,0,0,.447.447h9.974a.447.447,0,0,0,.447-.447V136A.447.447,0,0,0,45.056,135.551Z" transform="translate(-32.568 -111.18)" fill="#939393"/>
    <path id="Path_1764" data-name="Path 1764" d="M14.869,24.5,7.816,17.45a.447.447,0,0,0-.633,0L.131,24.5a.447.447,0,0,0,.633.633L7.5,18.4l6.737,6.736a.447.447,0,1,0,.633-.633Z" fill="#939393"/>
  </g>
</svg>
