<svg xmlns="http://www.w3.org/2000/svg" width="19.9" height="19.58" viewBox="0 0 19.9 19.58"><defs><style>.a{fill:#c1a760;}</style></defs><g transform="translate(0.1 0.1)"><path class="a" d="M254.072,22.071a.35.35,0,0,1-.35-.35V11.713L246.56,5.5,239.4,11.713V21.721a.35.35,0,1,1-.7,0V11.553a.35.35,0,0,1,.121-.264l7.512-6.512a.35.35,0,0,1,.459,0l7.512,6.512a.35.35,0,0,1,.121.264V21.721A.35.35,0,0,1,254.072,22.071Z" transform="translate(-236.698 -4.691)"/><path class="a" d="M254.072,22.171a.451.451,0,0,1-.45-.45V11.758L246.56,5.636,239.5,11.758v9.963a.45.45,0,1,1-.9,0V11.553a.45.45,0,0,1,.155-.34L246.266,4.7a.45.45,0,0,1,.59,0l7.512,6.512a.45.45,0,0,1,.155.34V21.721A.451.451,0,0,1,254.072,22.171Zm-7.512-16.8,7.262,6.3V21.721a.25.25,0,1,0,.5,0V11.553a.25.25,0,0,0-.086-.189l-7.512-6.512a.256.256,0,0,0-.328,0l-7.512,6.512a.25.25,0,0,0-.086.189V21.721a.25.25,0,1,0,.5,0V11.667Z" transform="translate(-236.698 -4.691)"/><path class="a" d="M19,.35H0A.35.35,0,0,1-.35,0,.35.35,0,0,1,0-.35H19a.35.35,0,0,1,.35.35A.35.35,0,0,1,19,.35Z" transform="translate(0.35 19.03)"/><path class="a" d="M19,.45H0A.451.451,0,0,1-.45,0,.451.451,0,0,1,0-.45H19a.451.451,0,0,1,.45.45A.451.451,0,0,1,19,.45ZM0-.25A.25.25,0,0,0-.25,0,.25.25,0,0,0,0,.25H19A.25.25,0,0,0,19.25,0,.25.25,0,0,0,19-.25Z" transform="translate(0.35 19.03)"/></g></svg>