<svg xmlns="http://www.w3.org/2000/svg" width="18.585" height="16.026" viewBox="0 0 18.585 16.026">
  <g id="home" transform="translate(0 -17.319)">
    <path id="Path_1763" data-name="Path 1763" d="M47.547,135.551a.554.554,0,0,0-.554.554v5.625H35.743v-5.625a.554.554,0,0,0-1.109,0v6.179a.554.554,0,0,0,.554.554H47.547a.554.554,0,0,0,.554-.554v-6.179A.554.554,0,0,0,47.547,135.551Z" transform="translate(-32.074 -109.494)" fill="#333"/>
    <path id="Path_1764" data-name="Path 1764" d="M18.423,26.219,9.684,17.481a.554.554,0,0,0-.784,0L.163,26.219A.554.554,0,0,0,.947,27l8.346-8.346L17.64,27a.554.554,0,1,0,.784-.784Z" transform="translate(0 0)" fill="#333"/>
  </g>
</svg>
