<svg xmlns="http://www.w3.org/2000/svg" xmlns:xlink="http://www.w3.org/1999/xlink" width="16.559" height="20" viewBox="0 0 16.559 20">
  <defs>
    <clipPath id="clip-path">
      <rect id="Rectangle_432" data-name="Rectangle 432" width="16.559" height="20" transform="translate(0 0)" fill="#fff"/>
    </clipPath>
  </defs>
  <g id="Group_4169" data-name="Group 4169" transform="translate(0 0)">
    <g id="Group_2744" data-name="Group 2744" transform="translate(0 0)" clip-path="url(#clip-path)">
      <path id="Path_843" data-name="Path 843" d="M23.067,4.45c-.211-.609-2.014,1.827-2.623.4-.609-1.405-.82-3.443-2.623-4.848C15.995,1.405,15.807,3.443,15.2,4.848s-2.412-1.007-2.623-.4-.4,3.232,1.405,4.239c1.827,1.007,3.232,3.232,3.232,4.637s-.8,2.014-.8,2.834A20.049,20.049,0,0,0,17.821,20a19.457,19.457,0,0,0,1.405-3.841c0-.82-.82-1.405-.82-2.834,0-1.405,1.405-3.63,3.232-4.637s1.616-3.63,1.429-4.239M19.32,7.564A4.812,4.812,0,0,0,17.8,9.415a4.812,4.812,0,0,0-1.522-1.85c-.867-.468-.539-.984-.258-.984.258,0,.984-.4.867-.8A1.74,1.74,0,0,1,17.8,4.192a1.763,1.763,0,0,1,.937,1.593c-.141.4.585.8.867.8.258,0,.585.515-.281.984" transform="translate(-9.53 0)" fill="#fff"/>
      <path id="Path_844" data-name="Path 844" d="M5.34,40.883c.7-.7.8-3.443-.7-4.145A6.54,6.54,0,0,1,1.8,33.6c-.913.3-.913,1.92-.4,2.623C.4,35.825,0,35.614,0,35.918a2.293,2.293,0,0,0,1.827,2.412c1.522.515,3.607,1.827,3.513,2.553" transform="translate(0 -25.731)" fill="#fff"/>
      <path id="Path_845" data-name="Path 845" d="M46.275,40.883c-.7-.7-.82-3.443.7-4.145A6.54,6.54,0,0,0,49.812,33.6c.913.3.913,1.92.4,2.623,1.007-.4,1.405-.609,1.405-.3a2.293,2.293,0,0,1-1.827,2.412c-1.522.515-3.607,1.827-3.513,2.553" transform="translate(-35.057 -25.731)" fill="#fff"/>
    </g>
  </g>
</svg>
