<svg id="Group_2745" data-name="Group 2745" xmlns="http://www.w3.org/2000/svg" xmlns:xlink="http://www.w3.org/1999/xlink" width="16" height="19.325" viewBox="0 0 16 19.325">
  <defs>
    <clipPath id="clip-path">
      <rect id="Rectangle_432" data-name="Rectangle 432" width="16" height="19.325" transform="translate(0 0)" fill="#b19d7f"/>
    </clipPath>
  </defs>
  <g id="Group_2744" data-name="Group 2744" transform="translate(0 0)" clip-path="url(#clip-path)">
    <path id="Path_843" data-name="Path 843" d="M22.709,4.3c-.2-.588-1.946,1.765-2.534.385C19.586,3.326,19.382,1.358,17.64,0c-1.765,1.358-1.946,3.326-2.534,4.684s-2.331-.973-2.534-.385-.385,3.123,1.358,4.1c1.765.973,3.123,3.123,3.123,4.481s-.769,1.946-.769,2.738a19.373,19.373,0,0,0,1.358,3.711A18.8,18.8,0,0,0,19,15.614c0-.792-.792-1.358-.792-2.738,0-1.358,1.358-3.507,3.123-4.481s1.561-3.507,1.38-4.1m-3.621,3.01A4.649,4.649,0,0,0,17.617,9.1a4.649,4.649,0,0,0-1.471-1.788c-.837-.453-.52-.95-.249-.95.249,0,.95-.385.837-.769a1.681,1.681,0,0,1,.883-1.539,1.7,1.7,0,0,1,.905,1.539c-.136.385.566.769.837.769.249,0,.566.5-.272.95" transform="translate(-9.629 0)" fill="#b19d7f"/>
    <path id="Path_844" data-name="Path 844" d="M5.16,40.638c.679-.679.769-3.326-.679-4.005A6.319,6.319,0,0,1,1.743,33.6c-.883.294-.883,1.856-.385,2.534C.385,35.75,0,35.546,0,35.84a2.216,2.216,0,0,0,1.765,2.331c1.471.5,3.485,1.765,3.394,2.467" transform="translate(0 -25.997)" fill="#b19d7f"/>
    <path id="Path_845" data-name="Path 845" d="M46.258,40.638c-.679-.679-.792-3.326.679-4.005A6.319,6.319,0,0,0,49.675,33.6c.883.294.883,1.856.385,2.534.973-.385,1.358-.588,1.358-.294a2.216,2.216,0,0,1-1.765,2.331c-1.471.5-3.485,1.765-3.394,2.467" transform="translate(-35.419 -25.997)" fill="#b19d7f"/>
  </g>
</svg>
