<svg xmlns="http://www.w3.org/2000/svg" width="25" height="25.001" viewBox="0 0 25 25.001"><defs><style>.a{fill:#333;}</style></defs><g transform="translate(-0.005)"><g transform="translate(0.005)"><g transform="translate(0)"><path class="a" d="M18.755,0H6.255A6.269,6.269,0,0,0,0,6.25v12.5A6.269,6.269,0,0,0,6.255,25h12.5A6.269,6.269,0,0,0,25,18.751V6.25A6.269,6.269,0,0,0,18.755,0Zm4.167,18.751a4.171,4.171,0,0,1-4.167,4.167H6.255a4.172,4.172,0,0,1-4.167-4.167V6.25A4.171,4.171,0,0,1,6.255,2.083h12.5A4.171,4.171,0,0,1,22.922,6.25v12.5Z" transform="translate(-0.005)"/></g></g><g transform="translate(17.714 4.167)"><circle class="a" cx="1.563" cy="1.563" r="1.563"/></g><g transform="translate(6.255 6.25)"><path class="a" d="M108.655,102.4a6.25,6.25,0,1,0,6.25,6.25A6.249,6.249,0,0,0,108.655,102.4Zm0,10.417a4.167,4.167,0,1,1,4.167-4.167A4.167,4.167,0,0,1,108.655,112.817Z" transform="translate(-102.405 -102.4)"/></g></g></svg>