<svg xmlns="http://www.w3.org/2000/svg" width="56.352" height="53.757" viewBox="0 0 56.352 53.757"><defs><style>.a{fill:#fff;}</style></defs><path class="a" d="M28.186,0A33.481,33.481,0,0,1,41.17,2.613a28.143,28.143,0,0,1,6.875,4.13,23.358,23.358,0,0,1,6.347,7.824,19.42,19.42,0,0,1,1.839,6.517,17.927,17.927,0,0,1-1.785,10.084,23.216,23.216,0,0,1-2.737,4.261,44.491,44.491,0,0,1-3.983,4.3,52.776,52.776,0,0,1-4.507,3.9c-2.362,1.808-4.727,3.506-7.028,5.047-2.14,1.432-4.394,2.752-6.574,4.029l-.017.01a11.046,11.046,0,0,1-2.332.943,1.653,1.653,0,0,1-1.732-.383,1.7,1.7,0,0,1-.42-1.3c.04-.563.122-1.12.2-1.658.069-.471.135-.915.174-1.365a10.281,10.281,0,0,0,.038-2.24c-.066-.472-.573-.658-.869-.727-.546-.126-1.114-.237-1.662-.345-.878-.173-1.787-.351-2.674-.6-1.974-.554-3.718-1.125-5.333-1.745A23.8,23.8,0,0,1,8.7,39.624a22.968,22.968,0,0,1-7.283-9.5,18.1,18.1,0,0,1-1.4-7.653,19.851,19.851,0,0,1,4-11.208A26.11,26.11,0,0,1,12.92,3.713,27.755,27.755,0,0,1,20.327.964C21.658.7,23.1.469,24.874.235,25.594.142,26.317.1,27.017.061c.315-.018.641-.036.959-.059l.048,0Zm-1.51,52.312a.565.565,0,0,0,.163-.028,9.87,9.87,0,0,0,2.031-.81l.017-.01c2.161-1.266,4.4-2.575,6.5-3.983,2.276-1.524,4.615-3.2,6.953-4.994a51.323,51.323,0,0,0,4.382-3.8,43.1,43.1,0,0,0,3.856-4.164,21.773,21.773,0,0,0,2.568-3.994,16.5,16.5,0,0,0,1.648-9.282,18,18,0,0,0-1.7-6.04,21.941,21.941,0,0,0-5.965-7.346,26.692,26.692,0,0,0-6.52-3.917,32.039,32.039,0,0,0-12.425-2.5h-.132c-.32.023-.643.041-.956.059-.7.04-1.37.077-2.036.163-1.738.23-3.153.457-4.452.714A26.363,26.363,0,0,0,13.587,5,24.672,24.672,0,0,0,5.17,12.129,18.428,18.428,0,0,0,1.464,22.535a16.691,16.691,0,0,0,1.3,7.05,21.561,21.561,0,0,0,6.844,8.91,22.354,22.354,0,0,0,5.906,3.458c1.572.6,3.274,1.16,5.2,1.7.831.233,1.711.406,2.562.573.56.11,1.138.224,1.709.355a2.38,2.38,0,0,1,1.978,1.94,11.532,11.532,0,0,1-.03,2.565c-.043.491-.115.978-.184,1.448-.079.535-.153,1.04-.189,1.548a.326.326,0,0,0,.034.212A.132.132,0,0,0,26.676,52.312Z" transform="translate(0 0)"/><path class="a" d="M4.2,6.681H7.083v10.36h5.086v2.423H4.2Zm12.573,0V19.464H13.88V6.681Zm2.514,12.783V6.681h3.364L25.3,11.369a36.593,36.593,0,0,1,2.088,4.385l.05-.005a50.571,50.571,0,0,1-.233-5.34V6.681h2.65V19.464H26.83L24.091,14.54a46.338,46.338,0,0,1-2.218-4.516l-.065.008c.092,1.693.128,3.5.128,5.588v3.843Zm20.67-5.408h-4.7V17.1h5.258v2.368H32.361V6.681h7.872V9.049H35.249v2.663h4.7Z" transform="translate(6.556 10.572)"/></svg>