<svg xmlns="http://www.w3.org/2000/svg" width="31.578" height="30.124" viewBox="0 0 31.578 30.124"><defs><style>.a{fill:#ba4f4f;}</style></defs><path class="a" d="M15.794,0a18.762,18.762,0,0,1,7.276,1.464,15.77,15.77,0,0,1,3.853,2.314A13.089,13.089,0,0,1,30.48,8.163a10.882,10.882,0,0,1,1.031,3.652,10.046,10.046,0,0,1-1,5.651,13.009,13.009,0,0,1-1.534,2.388,24.931,24.931,0,0,1-2.232,2.411,29.574,29.574,0,0,1-2.526,2.188c-1.324,1.013-2.649,1.965-3.938,2.828-1.2.8-2.462,1.542-3.684,2.258l-.009.005a6.19,6.19,0,0,1-1.307.528.926.926,0,0,1-.97-.214.954.954,0,0,1-.235-.729c.022-.316.068-.627.112-.929.039-.264.076-.513.1-.765a5.761,5.761,0,0,0,.021-1.255c-.037-.265-.321-.369-.487-.407-.306-.071-.624-.133-.931-.193-.492-.1-1-.2-1.5-.336-1.106-.311-2.083-.631-2.989-.978A13.337,13.337,0,0,1,4.876,22.2,12.87,12.87,0,0,1,.795,16.879,10.145,10.145,0,0,1,.01,12.591,11.124,11.124,0,0,1,2.249,6.31,14.631,14.631,0,0,1,7.24,2.081,15.553,15.553,0,0,1,11.391.541c.746-.148,1.555-.278,2.548-.409.4-.052.809-.075,1.2-.1.177-.01.359-.02.537-.033h.118Zm-.846,29.314a.317.317,0,0,0,.091-.016,5.531,5.531,0,0,0,1.138-.454l.009-.006c1.211-.71,2.464-1.443,3.642-2.232,1.275-.854,2.586-1.8,3.9-2.8a28.759,28.759,0,0,0,2.456-2.128,24.152,24.152,0,0,0,2.161-2.333,12.2,12.2,0,0,0,1.439-2.238,9.248,9.248,0,0,0,.924-5.2,10.089,10.089,0,0,0-.951-3.384,12.3,12.3,0,0,0-3.343-4.116,14.958,14.958,0,0,0-3.654-2.2,17.954,17.954,0,0,0-6.963-1.4h-.074c-.179.013-.36.023-.536.033-.395.022-.768.043-1.141.091-.974.129-1.767.256-2.495.4A14.773,14.773,0,0,0,7.614,2.8,13.826,13.826,0,0,0,2.9,6.8,10.327,10.327,0,0,0,.82,12.628a9.353,9.353,0,0,0,.728,3.951,12.082,12.082,0,0,0,3.835,4.993,12.527,12.527,0,0,0,3.31,1.938c.881.338,1.835.65,2.916.954.466.131.959.227,1.436.321.314.062.638.125.957.2A1.333,1.333,0,0,1,15.11,26.07a6.462,6.462,0,0,1-.017,1.437c-.024.275-.064.548-.1.811-.044.3-.086.583-.106.867a.182.182,0,0,0,.019.119A.074.074,0,0,0,14.948,29.314Z" transform="translate(0 0)"/><path class="a" d="M4.2,6.681H5.813v5.805h2.85v1.358H4.2Zm7.046,0v7.163H9.622V6.681Zm1.409,7.163V6.681h1.885l1.488,2.627a20.506,20.506,0,0,1,1.17,2.457l.028,0a28.338,28.338,0,0,1-.13-2.992V6.681h1.485v7.163h-1.7l-1.535-2.759A25.966,25.966,0,0,1,14.1,8.555l-.037,0c.051.949.072,1.962.072,3.131v2.154Zm11.583-3.03H21.6v1.7h2.947v1.327H19.978V6.681h4.411V8.008H21.6V9.5h2.636Z" transform="translate(1.829 2.987)"/></svg>