<svg xmlns="http://www.w3.org/2000/svg" width="65.342" height="48.494" viewBox="0 0 65.342 48.494"><defs><style>.a{fill:#fff;}</style></defs><g transform="translate(0.8 0.8)"><path class="a" d="M40.145,28.678H0a.8.8,0,1,1,0-1.6H40.141a2.718,2.718,0,0,0,1.089-.287,1.76,1.76,0,0,0,.922-1.721V12.312a.8.8,0,0,1,1.6,0V25.071a3.349,3.349,0,0,1-1.846,3.172A4.265,4.265,0,0,1,40.145,28.678Z" transform="translate(0 18.013)"/><path class="a" d="M2.931,32.223a.8.8,0,0,1-.8-.8v-12.5a9.887,9.887,0,0,1,1.563-4.9,9.59,9.59,0,0,1,3.714-3.348,15.154,15.154,0,0,1,7.008-1.485c3.9,0,6.865,1.1,8.822,3.268a10.575,10.575,0,0,1,2.439,7.52v5.172a.8.8,0,0,1-1.6,0V19.9l0-.041a9.106,9.106,0,0,0-2.042-6.341c-1.642-1.811-4.207-2.729-7.624-2.729a13.592,13.592,0,0,0-6.271,1.306,8.01,8.01,0,0,0-3.1,2.793,8.292,8.292,0,0,0-1.308,4.033v12.5A.8.8,0,0,1,2.931,32.223Z" transform="translate(4.468 14.468)"/><path class="a" d="M11.214,20.274A7.319,7.319,0,0,1,3.9,12.964v-2.8a7.311,7.311,0,1,1,14.622,0v2.8A7.319,7.319,0,0,1,11.214,20.274Zm0-15.821A5.717,5.717,0,0,0,5.5,10.164v2.8a5.711,5.711,0,1,0,11.422,0v-2.8A5.717,5.717,0,0,0,11.214,4.453Z" transform="translate(7.17 4.812)"/><path class="a" d="M24.845,20.284a8.7,8.7,0,0,1-8.694-8.694v-3.4a8.694,8.694,0,1,1,17.389,0v3.4A8.7,8.7,0,0,1,24.845,20.284Zm0-19.184a7.1,7.1,0,0,0-7.094,7.094v3.4a7.094,7.094,0,1,0,14.189,0v-3.4A7.1,7.1,0,0,0,24.845,1.1Z" transform="translate(25.843 -0.3)"/><path class="a" d="M49.683,36.331a.8.8,0,0,1-.8-.8V19.858a13.335,13.335,0,0,0-1.527-5.627,9.867,9.867,0,0,0-3.508-3.76A13.011,13.011,0,0,0,36.926,8.75a23.385,23.385,0,0,0-7.9,1.175,10.763,10.763,0,0,0-4.2,2.626,7.863,7.863,0,0,0-1.946,3.5,6.31,6.31,0,0,0-.22,1.7l0,.025V28.921H13.319l-.035,0a4.018,4.018,0,0,0-2.643.728,2.432,2.432,0,0,0,0,3.239,4.513,4.513,0,0,0,2.9.842.8.8,0,0,1,.1,1.6,6.075,6.075,0,0,1-4.087-1.269,4.015,4.015,0,0,1,.017-5.594,5.546,5.546,0,0,1,3.82-1.141H21.06V17.813a9.165,9.165,0,0,1,2.573-6.33,12.3,12.3,0,0,1,4.819-3.05A24.906,24.906,0,0,1,36.926,7.15a14.549,14.549,0,0,1,7.8,1.981,11.461,11.461,0,0,1,4.07,4.395,14.738,14.738,0,0,1,1.689,6.332V35.531A.8.8,0,0,1,49.683,36.331Z" transform="translate(14.059 11.363)"/></g></svg>