<svg xmlns="http://www.w3.org/2000/svg" width="19.666" height="23.712" viewBox="0 0 19.666 23.712"><defs><style>.a{fill:#c1a760;}</style></defs><path class="a" d="M13.655,23.712a5.022,5.022,0,0,1-2.186-.49,27.848,27.848,0,0,1-6.745-6.344A27.584,27.584,0,0,1,.555,9.3C.272,8.4-.562,5.334.6,3.478S4.754.234,4.881.175L5.227.022,5.364,0a.424.424,0,0,1,.359.2L8.766,5.23a1.1,1.1,0,0,1-.272,1.528c-.787.488-2.472,1.54-2.671,1.69-.026.019-.064.089-.013.334.059.159,1.459,2.732,2.013,3.494l.243.337c2.724,3.779,3.282,4.328,3.4,4.389a.556.556,0,0,0,.207.041.4.4,0,0,0,.2-.048l2.324-1.922a1.314,1.314,0,0,1,.7-.208,1.055,1.055,0,0,1,.538.137l.024.014.082.075,4.036,4.858a.42.42,0,0,1-.029.566A16.214,16.214,0,0,1,15.8,23.228a5.022,5.022,0,0,1-2.147.484M5.2.952c-.317.154-2.929,1.441-3.888,2.971-1,1.59-.138,4.546.044,5.123a26.907,26.907,0,0,0,4.036,7.327,26.844,26.844,0,0,0,6.452,6.1,4.207,4.207,0,0,0,3.6,0,14.957,14.957,0,0,0,3.228-2.29l-3.749-4.51a.874.874,0,0,0-.252.085l-2.305,1.911a1.232,1.232,0,0,1-.7.214,1.37,1.37,0,0,1-.552-.119c-.338-.144-1.056-.953-3.726-4.659l-.242-.334A33.788,33.788,0,0,1,4.989,8.946,1.077,1.077,0,0,1,5.32,7.776c.214-.16,1.56-1,2.651-1.681.1-.062.222-.166.069-.452Z" transform="translate(0)"/></svg>