<svg id="Group_6582" data-name="Group 6582" xmlns="http://www.w3.org/2000/svg" xmlns:xlink="http://www.w3.org/1999/xlink" width="335" height="25.125" viewBox="0 0 335 25.125">
  <defs>
    <clipPath id="clip-path">
      <rect id="Rectangle_2375" data-name="Rectangle 2375" width="335" height="25.125" fill="#ddd7cf"/>
    </clipPath>
  </defs>
  <g id="Group_6578" data-name="Group 6578" clip-path="url(#clip-path)">
    <path id="Path_2273" data-name="Path 2273" d="M168.81,9.5a34.132,34.132,0,0,1-1.383,9.5,34.132,34.132,0,0,1-1.383-9.5c0-5.244.62-9.5,1.383-9.5s1.383,4.252,1.383,9.5" fill="#ddd7cf"/>
    <path id="Path_2274" data-name="Path 2274" d="M178.442,15.61c.23.58-1.733,1.925-4.384,3a13.059,13.059,0,0,1-5.219.9,13.19,13.19,0,0,1,4.384-3c2.652-1.079,4.988-1.483,5.219-.9" fill="#ddd7cf"/>
    <path id="Path_2275" data-name="Path 2275" d="M175.773,8.473c.606.451-.573,3.115-2.633,5.951a16.117,16.117,0,0,1-4.827,4.319,16.368,16.368,0,0,1,2.633-5.951c2.06-2.836,4.221-4.77,4.827-4.319" fill="#ddd7cf"/>
    <path id="Path_2276" data-name="Path 2276" d="M156.023,16.3c-.18.6,1.889,1.768,4.623,2.612a13.053,13.053,0,0,0,5.277.445,13.187,13.187,0,0,0-4.624-2.612c-2.733-.844-5.1-1.043-5.276-.445" fill="#ddd7cf"/>
    <path id="Path_2277" data-name="Path 2277" d="M158.076,8.96c-.565.5.835,3.054,3.129,5.7a16.054,16.054,0,0,0,5.175,3.883,16.323,16.323,0,0,0-3.128-5.7c-2.293-2.646-4.611-4.385-5.176-3.883" fill="#ddd7cf"/>
    <rect id="Rectangle_2373" data-name="Rectangle 2373" width="141.184" height="0.916" transform="translate(12.736 17.964)" fill="#ddd7cf"/>
    <path id="Path_2278" data-name="Path 2278" d="M162.343,21.578a6.243,6.243,0,0,1-.778.224,6.788,6.788,0,0,1-.8.125,7.41,7.41,0,0,1-.816.029c-.136,0-.272-.01-.408-.017s-.272-.023-.407-.041a9.734,9.734,0,0,1-3.1-.952c-.243-.12-.48-.249-.714-.384s-.462-.281-.685-.432l-.167-.116L154.3,19.9c-.108-.079-.218-.156-.322-.239l-.315-.248c-.1-.084-.205-.171-.307-.256s-.2-.174-.3-.262-.2-.176-.294-.267l-.289-.272-.281-.277c-.372-.372-.73-.754-1.079-1.139-.173-.193-.346-.387-.515-.581l-.506-.583-.993-1.159a25.918,25.918,0,0,0-2.019-2.153,10.115,10.115,0,0,0-1.1-.889,6.859,6.859,0,0,0-.587-.37c-.1-.061-.2-.111-.3-.164l-.155-.08-.159-.071c-.107-.047-.212-.1-.322-.136l-.164-.063c-.054-.021-.109-.043-.165-.06l-.335-.107-.342-.091a7.741,7.741,0,0,0-1.411-.2c-.24-.015-.48-.01-.721,0l-.361.025-.36.047a7.132,7.132,0,0,0-1.411.374,6.481,6.481,0,0,0-1.309.69,6.814,6.814,0,0,0-1.14.974,6.676,6.676,0,0,0-.9,1.206,6.51,6.51,0,0,0-.342.671,6.018,6.018,0,0,0-.256.706,6.111,6.111,0,0,0-.165.73,5.7,5.7,0,0,0-.027,1.484,5.993,5.993,0,0,0,.134.729,5.636,5.636,0,0,0,.537,1.369,5.383,5.383,0,0,0,.865,1.17,5.125,5.125,0,0,0,.541.481,4.934,4.934,0,0,0,.6.393,3.012,3.012,0,0,0,.312.155,3.141,3.141,0,0,0,.325.116,2.822,2.822,0,0,0,.668.117,1.865,1.865,0,0,0,.625-.07,1.027,1.027,0,0,0,.722-.741,2.259,2.259,0,0,0,.068-.623c0-.113-.008-.229-.018-.348l-.008-.089-.009-.092c-.007-.061-.013-.122-.02-.183-.029-.244-.068-.487-.111-.728-.024-.12-.046-.24-.074-.36s-.054-.238-.083-.356c-.062-.237-.126-.472-.2-.7s-.156-.462-.246-.687c-.043-.114-.093-.225-.139-.338s-.1-.222-.151-.331a8.916,8.916,0,0,0-.711-1.252,6.247,6.247,0,0,0-.914-1.066,4.713,4.713,0,0,0-.54-.43,4.432,4.432,0,0,0-.6-.342,4.128,4.128,0,0,0-.645-.239,3.627,3.627,0,0,0-.676-.126,3.5,3.5,0,0,0-.687.009l-.085.011a.827.827,0,0,0-.085.012l-.169.033c-.056.016-.112.028-.168.045l-.084.025a.81.81,0,0,0-.083.028,4.51,4.51,0,0,0-1.265.707,6.989,6.989,0,0,0-.572.493c-.091.088-.18.18-.269.27-.046.045-.088.093-.13.141l-.128.142A8.843,8.843,0,0,0,130,17.092a8.371,8.371,0,0,0-.567,2.992,2.943,2.943,0,0,0,.1.732,1.934,1.934,0,0,0,.122.332,1.516,1.516,0,0,0,.181.289,1.393,1.393,0,0,0,.108.119l.06.052.063.047a1.227,1.227,0,0,0,.274.146.935.935,0,0,0,.546.042.684.684,0,0,0,.2-.1.813.813,0,0,0,.166-.161,1.643,1.643,0,0,0,.248-.507c.015-.049.029-.1.042-.151s.022-.105.033-.157.016-.106.023-.159.011-.107.013-.161a2.725,2.725,0,0,0-.049-.648,3.147,3.147,0,0,0-.527-1.215,3.2,3.2,0,0,0-.444-.507,2.924,2.924,0,0,0-.543-.4,2.574,2.574,0,0,0-1.3-.353,2.745,2.745,0,0,0-.7.092,3.145,3.145,0,0,0-.675.268,3.539,3.539,0,0,0-1.13.956,3.215,3.215,0,0,0-.622,1.343,2.662,2.662,0,0,0-.04.733,1.215,1.215,0,0,0,.03.174,1.028,1.028,0,0,0,.055.162.549.549,0,0,0,.186.238.3.3,0,0,0,.116.046.23.23,0,0,0,.111,0,.348.348,0,0,0,.1-.045.465.465,0,0,0,.09-.076.4.4,0,0,0,.066-.094.325.325,0,0,0,.035-.093.7.7,0,0,0,.014-.221,1.1,1.1,0,0,0-.049-.248,1.011,1.011,0,0,0-.047-.126l-.028-.063c-.01-.02-.022-.04-.033-.061a1.247,1.247,0,0,0-.164-.231,1.418,1.418,0,0,0-.215-.2,1.511,1.511,0,0,0-.258-.161,1.34,1.34,0,0,0-.292-.106,1.218,1.218,0,0,0-.315-.036,1.317,1.317,0,0,0-.331.048,1.455,1.455,0,0,0-.992.96.732.732,0,0,0-.023.086c0,.028-.01.057-.013.085a.733.733,0,0,0,0,.169.326.326,0,0,0,.139.247.173.173,0,0,0,.115.028.22.22,0,0,0,.114-.057.444.444,0,0,0,.138-.268.323.323,0,0,0-.008-.14.223.223,0,0,0-.064-.1.411.411,0,0,0-.266-.1.627.627,0,0,0-.154.017.824.824,0,0,0-.151.054.881.881,0,0,0-.139.083c-.02.018-.043.032-.062.051l-.028.027-.026.028c-.017.018-.035.041-.052.063s-.034.046-.051.071c-.033.049-.064.1-.1.155-.063.109-.13.228-.213.35a2.18,2.18,0,0,1-.3.339,2.244,2.244,0,0,1-.365.264,2.027,2.027,0,0,1-.413.182,1.859,1.859,0,0,1-.219.058l-.111.02c-.037.006-.075.009-.113.013a1.962,1.962,0,0,1-.453-.01,1.866,1.866,0,0,1-.433-.121,1.829,1.829,0,0,1-.382-.221c-.029-.023-.059-.044-.085-.069l-.081-.073a2.006,2.006,0,0,1-.145-.161,1.5,1.5,0,0,1-.329-.777l.211-.072a2.622,2.622,0,0,0,.211.287,2.019,2.019,0,0,0,.52.431,1.947,1.947,0,0,0,.3.137,1.921,1.921,0,0,0,.314.078l.08.009c.027,0,.054,0,.081,0a.748.748,0,0,0,.082,0,.763.763,0,0,0,.082,0,1.544,1.544,0,0,0,.327-.056,1.782,1.782,0,0,0,.314-.12,1.821,1.821,0,0,0,.288-.179,1.756,1.756,0,0,0,.245-.235c.075-.089.147-.194.229-.3a2.163,2.163,0,0,1,.288-.332,1.194,1.194,0,0,1,.629-.293.98.98,0,0,1,.236,0,.7.7,0,0,1,.427.206.477.477,0,0,1,.121.229.6.6,0,0,1,.013.125.786.786,0,0,1-.013.12.711.711,0,0,1-.239.406.458.458,0,0,1-.24.1.406.406,0,0,1-.253-.062.474.474,0,0,1-.166-.179.653.653,0,0,1-.069-.217,1.008,1.008,0,0,1-.007-.219,1.07,1.07,0,0,1,.038-.212,1.863,1.863,0,0,1,.151-.394,2.176,2.176,0,0,1,.231-.357,2.2,2.2,0,0,1,.666-.562,1.87,1.87,0,0,1,.424-.17,1.869,1.869,0,0,1,.928,0,1.871,1.871,0,0,1,.437.168,1.813,1.813,0,0,1,.386.273,1.749,1.749,0,0,1,.307.371,1.52,1.52,0,0,1,.239.971,1.229,1.229,0,0,1-.184.53,1.078,1.078,0,0,1-.432.384,1.091,1.091,0,0,1-.267.09.9.9,0,0,1-.284.007.921.921,0,0,1-.138-.032l-.066-.026c-.021-.009-.041-.02-.061-.031a.775.775,0,0,1-.2-.163,1.073,1.073,0,0,1-.217-.408,1.744,1.744,0,0,1-.05-.208,1.891,1.891,0,0,1-.029-.208,3.107,3.107,0,0,1,.03-.817,3.814,3.814,0,0,1,.625-1.514,4.219,4.219,0,0,1,.536-.636,4.161,4.161,0,0,1,.656-.525,3.9,3.9,0,0,1,.76-.383,3.379,3.379,0,0,1,.84-.2,3.251,3.251,0,0,1,.87.03,3.41,3.41,0,0,1,.828.255,3.669,3.669,0,0,1,.734.448,3.865,3.865,0,0,1,.613.6,3.778,3.778,0,0,1,.762,1.549,3.348,3.348,0,0,1-.071,1.8,2.555,2.555,0,0,1-.2.443,2.01,2.01,0,0,1-.316.415,1.619,1.619,0,0,1-.457.32,1.448,1.448,0,0,1-.545.132,1.465,1.465,0,0,1-.514-.073,1.675,1.675,0,0,1-.433-.211,1.9,1.9,0,0,1-.346-.3c-.024-.03-.049-.058-.073-.088l-.066-.092a1.691,1.691,0,0,1-.114-.194,2.452,2.452,0,0,1-.158-.4,3.1,3.1,0,0,1-.09-.408,5.386,5.386,0,0,1-.052-.807,9.989,9.989,0,0,1,2.036-5.974l.126-.161c.042-.053.083-.108.128-.159.09-.1.176-.208.267-.31a7.889,7.889,0,0,1,.585-.586,5.3,5.3,0,0,1,1.422-.935c.033-.016.066-.03.1-.043l.1-.04c.068-.025.138-.047.208-.071l.213-.059a1.034,1.034,0,0,1,.107-.025l.109-.023a4.2,4.2,0,0,1,.872-.075,4.487,4.487,0,0,1,.86.1,4.945,4.945,0,0,1,1.582.632,5.62,5.62,0,0,1,.684.495,6.452,6.452,0,0,1,.6.58c.094.1.182.208.27.314l.127.163c.042.054.081.11.122.165a9.032,9.032,0,0,1,.824,1.4c.059.121.112.244.168.367l.078.187c.026.062.05.125.074.188.1.25.185.506.265.764l.058.194.053.2c.018.065.034.13.05.2s.032.131.046.2c.06.264.108.53.149.8s.069.537.089.807c0,.068.008.136.012.2l.006.1,0,.1c0,.14.005.283,0,.429a3.728,3.728,0,0,1-.045.449,2.739,2.739,0,0,1-.117.466,2.1,2.1,0,0,1-.566.863,2,2,0,0,1-.435.3,2.123,2.123,0,0,1-.475.168,2.706,2.706,0,0,1-.927.041,3.57,3.57,0,0,1-.845-.21,3.908,3.908,0,0,1-.755-.386,5.763,5.763,0,0,1-1.223-1.067,6.57,6.57,0,0,1-.49-.64,6.655,6.655,0,0,1-.4-.694,6.7,6.7,0,0,1-.72-3.1,6.308,6.308,0,0,1,.061-.81,6.635,6.635,0,0,1,.162-.8,6.849,6.849,0,0,1,.255-.777,7.711,7.711,0,0,1,.342-.746,8.042,8.042,0,0,1,.421-.708c.153-.228.317-.45.493-.663a8.159,8.159,0,0,1,1.182-1.168,7.855,7.855,0,0,1,1.41-.912c.064-.031.126-.064.191-.092l.193-.085.194-.085c.065-.027.132-.049.2-.074a8.1,8.1,0,0,1,.8-.257l.412-.1.417-.073c.278-.039.559-.073.84-.085a8.8,8.8,0,0,1,1.686.075l.417.071c.138.029.275.062.412.094.07.014.137.034.205.054l.2.059c.137.037.268.087.4.134l.2.072.195.083c.13.056.262.108.387.174a7.75,7.75,0,0,1,.74.406,10.34,10.34,0,0,1,1.332.983,15.187,15.187,0,0,1,1.158,1.121c.181.193.358.389.53.586l.256.3.251.3c.666.792,1.3,1.59,1.943,2.366q.481.581.977,1.138c.33.372.67.729,1.019,1.076.088.085.176.172.264.256l.27.25c.044.043.091.082.137.122l.138.121.138.121.14.116a12.3,12.3,0,0,0,1.178.857q.309.195.629.373t.655.33a9.347,9.347,0,0,0,1.379.514q.355.1.722.17a7.3,7.3,0,0,0,.741.1q.375.033.757.029c.254,0,.509-.021.767-.05Z" fill="#ddd7cf"/>
    <path id="Path_2279" data-name="Path 2279" d="M5.959,19.386a22.361,22.361,0,0,0,5.95-.859,22.418,22.418,0,0,0-5.96-.792c-3.288.019-5.952.4-5.949.859s2.67.81,5.959.792" fill="#ddd7cf"/>
    <path id="Path_2280" data-name="Path 2280" d="M9.827,25.114c.365.135,1.2-1.041,1.869-2.628a7.444,7.444,0,0,0,.547-3.118A7.909,7.909,0,0,0,10.375,22c-.668,1.586-.913,2.982-.548,3.118" fill="#ddd7cf"/>
    <path id="Path_2281" data-name="Path 2281" d="M5.343,23.546c.285.36,1.951-.352,3.723-1.593a9.748,9.748,0,0,0,2.691-2.9,10.54,10.54,0,0,0-3.723,1.594c-1.771,1.239-2.976,2.535-2.691,2.9" fill="#ddd7cf"/>
    <path id="Path_2282" data-name="Path 2282" d="M10.182,11.73c.374-.11,1.115,1.122,1.655,2.75a7.438,7.438,0,0,1,.3,3.148,7.783,7.783,0,0,1-1.653-2.75c-.54-1.629-.674-3.038-.3-3.148" fill="#ddd7cf"/>
    <path id="Path_2283" data-name="Path 2283" d="M5.586,12.981c.313-.339,1.918.488,3.585,1.847A9.623,9.623,0,0,1,11.625,17.9a10.448,10.448,0,0,1-3.586-1.847C6.372,14.7,5.273,13.32,5.586,12.981" fill="#ddd7cf"/>
    <rect id="Rectangle_2374" data-name="Rectangle 2374" width="141.184" height="0.916" transform="translate(181.08 17.556)" fill="#ddd7cf"/>
    <path id="Path_2284" data-name="Path 2284" d="M172.657,21.17a6.243,6.243,0,0,0,.778.224,6.787,6.787,0,0,0,.8.125,7.409,7.409,0,0,0,.816.029c.136,0,.272-.01.408-.017s.272-.023.407-.041a9.71,9.71,0,0,0,3.1-.953c.243-.119.48-.248.714-.383s.462-.282.685-.432l.167-.116.162-.118c.108-.079.218-.156.322-.24l.315-.247c.1-.084.2-.171.307-.256s.2-.174.3-.262.2-.176.294-.268l.289-.271.281-.277c.372-.374.73-.754,1.079-1.139.173-.193.346-.387.515-.582l.506-.583L185.9,14.2a25.761,25.761,0,0,1,2.019-2.153,10.115,10.115,0,0,1,1.1-.889,6.859,6.859,0,0,1,.587-.37c.1-.061.2-.111.3-.165l.155-.079.159-.072c.107-.046.212-.1.322-.135l.164-.063c.054-.021.109-.043.165-.06l.335-.107.342-.091a7.741,7.741,0,0,1,1.411-.2c.24-.015.48-.011.721,0l.361.026.36.047a7.132,7.132,0,0,1,1.411.374,6.481,6.481,0,0,1,1.309.69,6.814,6.814,0,0,1,1.14.974,6.641,6.641,0,0,1,.9,1.206,6.313,6.313,0,0,1,.342.671,5.953,5.953,0,0,1,.256.706,6.067,6.067,0,0,1,.165.73,5.7,5.7,0,0,1,.027,1.484,5.993,5.993,0,0,1-.134.729,5.745,5.745,0,0,1-.224.7,5.682,5.682,0,0,1-.313.665,5.319,5.319,0,0,1-.865,1.17,5.015,5.015,0,0,1-.541.481,4.709,4.709,0,0,1-.6.393,3.024,3.024,0,0,1-.312.156,3.393,3.393,0,0,1-.325.116,2.77,2.77,0,0,1-.668.116,1.84,1.84,0,0,1-.625-.069,1.072,1.072,0,0,1-.466-.279,1.061,1.061,0,0,1-.256-.462,2.262,2.262,0,0,1-.068-.624c0-.112.008-.229.018-.347l.008-.089.009-.092c.007-.062.012-.123.02-.183.029-.244.068-.487.111-.728.024-.12.046-.24.074-.361s.054-.238.083-.356c.062-.236.126-.472.2-.7s.156-.462.246-.688c.043-.114.093-.225.139-.338s.1-.221.151-.33a8.8,8.8,0,0,1,.711-1.252,6.286,6.286,0,0,1,.913-1.066,4.6,4.6,0,0,1,.541-.43,4.327,4.327,0,0,1,.6-.342,4.236,4.236,0,0,1,.645-.24,3.708,3.708,0,0,1,.676-.125,3.584,3.584,0,0,1,.687.008l.085.011c.028,0,.057.007.085.013l.169.033c.056.015.112.027.168.045l.084.025a.624.624,0,0,1,.083.028,4.485,4.485,0,0,1,1.265.707,6.8,6.8,0,0,1,.572.493c.091.087.18.179.269.269.046.045.088.094.13.141l.128.142a8.922,8.922,0,0,1,.9,1.24,8.819,8.819,0,0,1,.676,1.38,8.37,8.37,0,0,1,.567,2.991,2.951,2.951,0,0,1-.1.733,2.054,2.054,0,0,1-.122.332,1.516,1.516,0,0,1-.181.289,1.563,1.563,0,0,1-.108.119L205,21.2l-.063.047a1.227,1.227,0,0,1-.274.146.935.935,0,0,1-.546.042.684.684,0,0,1-.2-.1.793.793,0,0,1-.166-.162,1.632,1.632,0,0,1-.248-.507c-.015-.049-.029-.1-.042-.151s-.022-.1-.033-.156-.016-.107-.023-.16-.011-.106-.013-.16a2.737,2.737,0,0,1,.049-.649,3.154,3.154,0,0,1,.527-1.215,3.286,3.286,0,0,1,.444-.507,2.975,2.975,0,0,1,.543-.4,2.593,2.593,0,0,1,1.3-.352,2.745,2.745,0,0,1,.7.092,3.2,3.2,0,0,1,.675.269,3.539,3.539,0,0,1,1.13.956,3.215,3.215,0,0,1,.622,1.343,2.658,2.658,0,0,1,.04.732,1.232,1.232,0,0,1-.03.175,1.029,1.029,0,0,1-.055.162.546.546,0,0,1-.186.237.274.274,0,0,1-.116.047.243.243,0,0,1-.111,0,.35.35,0,0,1-.1-.046.434.434,0,0,1-.156-.17.3.3,0,0,1-.035-.093.689.689,0,0,1-.014-.22,1.1,1.1,0,0,1,.049-.248.955.955,0,0,1,.047-.126l.028-.064.033-.06a1.246,1.246,0,0,1,.164-.231,1.423,1.423,0,0,1,.215-.2,1.446,1.446,0,0,1,.258-.16,1.29,1.29,0,0,1,.292-.106,1.219,1.219,0,0,1,.315-.037,1.367,1.367,0,0,1,.331.049,1.385,1.385,0,0,1,.322.135,1.433,1.433,0,0,1,.289.214,1.4,1.4,0,0,1,.381.611.733.733,0,0,1,.023.086c.005.028.01.057.013.084a.741.741,0,0,1,0,.17.326.326,0,0,1-.139.247.179.179,0,0,1-.115.028.215.215,0,0,1-.114-.058.439.439,0,0,1-.138-.267.329.329,0,0,1,.008-.141.225.225,0,0,1,.064-.1.406.406,0,0,1,.266-.1.582.582,0,0,1,.154.017.756.756,0,0,1,.151.054.811.811,0,0,1,.139.083c.02.017.043.031.062.05l.028.028.026.028c.017.017.035.041.053.062s.033.046.05.072c.033.047.064.1.1.155.065.109.131.227.214.35a2.228,2.228,0,0,0,.3.339,2.306,2.306,0,0,0,.365.264,2.026,2.026,0,0,0,.413.182c.072.024.145.041.219.058l.111.02c.037.006.075.009.113.013a1.962,1.962,0,0,0,.453-.01,1.772,1.772,0,0,0,.815-.342c.029-.023.059-.044.085-.069l.081-.073a2,2,0,0,0,.145-.161,1.508,1.508,0,0,0,.329-.778l-.211-.072a2.544,2.544,0,0,1-.211.288,1.98,1.98,0,0,1-.245.24,2,2,0,0,1-.573.328,1.922,1.922,0,0,1-.314.078l-.08.009c-.027,0-.054,0-.081,0a.748.748,0,0,1-.082,0,.763.763,0,0,1-.082,0,1.545,1.545,0,0,1-.327-.056,1.782,1.782,0,0,1-.314-.12,1.9,1.9,0,0,1-.288-.179,1.756,1.756,0,0,1-.245-.235c-.075-.09-.148-.194-.229-.3a2.168,2.168,0,0,0-.288-.333,1.2,1.2,0,0,0-.4-.237,1.183,1.183,0,0,0-.226-.055,1.034,1.034,0,0,0-.236,0,.705.705,0,0,0-.427.207.477.477,0,0,0-.121.229.591.591,0,0,0-.013.125.678.678,0,0,0,.014.12.7.7,0,0,0,.238.406.458.458,0,0,0,.24.105.406.406,0,0,0,.253-.062.482.482,0,0,0,.166-.179.659.659,0,0,0,.069-.218,1,1,0,0,0,.007-.218,1.174,1.174,0,0,0-.038-.213,1.885,1.885,0,0,0-.151-.394,2.22,2.22,0,0,0-.231-.357,2.185,2.185,0,0,0-.666-.561,1.825,1.825,0,0,0-.424-.17,1.885,1.885,0,0,0-.928-.006,1.92,1.92,0,0,0-.437.169,1.808,1.808,0,0,0-.386.272,1.779,1.779,0,0,0-.307.372,1.517,1.517,0,0,0-.239.97,1.228,1.228,0,0,0,.184.531,1.078,1.078,0,0,0,.432.384,1.091,1.091,0,0,0,.267.09.932.932,0,0,0,.284.007.815.815,0,0,0,.138-.033l.066-.025c.021-.009.041-.02.061-.031a.8.8,0,0,0,.2-.163,1.088,1.088,0,0,0,.217-.408,1.792,1.792,0,0,0,.05-.208,1.9,1.9,0,0,0,.029-.209,3.1,3.1,0,0,0-.03-.816,3.814,3.814,0,0,0-.625-1.514,4.22,4.22,0,0,0-.536-.636,4.123,4.123,0,0,0-.656-.526,3.891,3.891,0,0,0-.76-.382,3.38,3.38,0,0,0-.84-.2,3.251,3.251,0,0,0-.87.03,3.325,3.325,0,0,0-.828.255,3.726,3.726,0,0,0-.734.446,3.921,3.921,0,0,0-.613.6,3.793,3.793,0,0,0-.763,1.549,3.358,3.358,0,0,0,.072,1.8,2.52,2.52,0,0,0,.2.443,1.97,1.97,0,0,0,.315.415,1.619,1.619,0,0,0,.457.32,1.448,1.448,0,0,0,.545.132,1.465,1.465,0,0,0,.514-.073,1.675,1.675,0,0,0,.433-.211,1.905,1.905,0,0,0,.346-.3c.024-.03.049-.058.073-.088l.066-.092a1.691,1.691,0,0,0,.114-.194,2.452,2.452,0,0,0,.158-.4,3.177,3.177,0,0,0,.09-.408,5.386,5.386,0,0,0,.052-.807,9.987,9.987,0,0,0-2.036-5.974l-.126-.161c-.042-.054-.083-.108-.128-.16-.09-.1-.176-.207-.267-.311-.184-.2-.378-.4-.585-.584a5.3,5.3,0,0,0-1.422-.935c-.033-.016-.066-.029-.1-.043l-.1-.04c-.068-.025-.138-.049-.208-.071l-.213-.06c-.035-.01-.072-.017-.107-.024L200.5,11.3a4.271,4.271,0,0,0-.872-.076,4.569,4.569,0,0,0-.86.1,4.945,4.945,0,0,0-1.582.632,5.62,5.62,0,0,0-.684.495,6.452,6.452,0,0,0-.6.58c-.094.1-.182.208-.27.314l-.127.163c-.042.054-.081.11-.122.165a9.069,9.069,0,0,0-.824,1.4c-.059.122-.112.245-.168.368-.026.061-.052.125-.078.186s-.05.125-.074.189c-.1.25-.185.505-.265.764l-.058.194-.053.2c-.018.066-.034.13-.05.2s-.032.132-.046.2c-.06.264-.108.53-.149.8s-.069.536-.089.807c0,.068-.008.135-.012.2l-.006.1,0,.1c0,.14-.005.283,0,.429a3.748,3.748,0,0,0,.045.449,2.739,2.739,0,0,0,.117.466,2.1,2.1,0,0,0,.566.863,2,2,0,0,0,.435.3,2.071,2.071,0,0,0,.475.167,2.682,2.682,0,0,0,.927.042,3.57,3.57,0,0,0,.845-.21,3.908,3.908,0,0,0,.755-.386,5.763,5.763,0,0,0,1.223-1.067,6.57,6.57,0,0,0,.49-.64,6.774,6.774,0,0,0,.4-.695,6.7,6.7,0,0,0,.72-3.1,6.308,6.308,0,0,0-.061-.81,6.557,6.557,0,0,0-.162-.8,7.139,7.139,0,0,0-.255-.778,7.805,7.805,0,0,0-.342-.745,7.9,7.9,0,0,0-.421-.708c-.153-.228-.317-.45-.493-.663a8.217,8.217,0,0,0-1.182-1.169,7.85,7.85,0,0,0-1.41-.911c-.064-.031-.126-.064-.191-.092l-.193-.085-.194-.085c-.065-.028-.132-.049-.2-.074a7.846,7.846,0,0,0-.8-.257l-.412-.1-.417-.073c-.278-.04-.559-.073-.84-.086a8.722,8.722,0,0,0-1.686.076l-.417.07c-.138.029-.275.062-.412.094a2.063,2.063,0,0,0-.205.055l-.2.059c-.137.036-.268.087-.4.133l-.2.072-.195.083c-.13.057-.262.109-.387.175a7.75,7.75,0,0,0-.74.406,10.428,10.428,0,0,0-1.332.982,15.579,15.579,0,0,0-1.158,1.121c-.181.194-.358.389-.53.587l-.256.3-.251.3c-.666.792-1.3,1.59-1.943,2.366q-.481.579-.977,1.138t-1.019,1.076c-.088.085-.176.172-.264.255l-.27.25c-.044.043-.091.083-.137.123l-.138.12-.138.122-.14.116a12.3,12.3,0,0,1-1.178.857q-.309.193-.629.372t-.655.33a9.351,9.351,0,0,1-1.379.515q-.355.1-.722.169a7.025,7.025,0,0,1-.741.1c-.25.021-.5.032-.757.029s-.509-.022-.767-.05Z" fill="#ddd7cf"/>
    <path id="Path_2285" data-name="Path 2285" d="M329.041,18.978a22.361,22.361,0,0,1-5.95-.859,22.418,22.418,0,0,1,5.96-.792c3.288.019,5.952.4,5.949.859s-2.67.81-5.959.792" fill="#ddd7cf"/>
    <path id="Path_2286" data-name="Path 2286" d="M325.173,24.706c-.365.136-1.2-1.041-1.868-2.627a7.441,7.441,0,0,1-.548-3.119,7.909,7.909,0,0,1,1.868,2.628c.668,1.586.913,2.983.548,3.118" fill="#ddd7cf"/>
    <path id="Path_2287" data-name="Path 2287" d="M329.657,23.138c-.285.36-1.951-.353-3.723-1.593a9.748,9.748,0,0,1-2.691-2.9,10.549,10.549,0,0,1,3.723,1.593c1.771,1.239,2.976,2.536,2.691,2.9" fill="#ddd7cf"/>
    <path id="Path_2288" data-name="Path 2288" d="M324.818,11.322c-.375-.11-1.115,1.122-1.654,2.75a7.429,7.429,0,0,0-.3,3.148,7.81,7.81,0,0,0,1.654-2.75c.539-1.629.673-3.038.3-3.148" fill="#ddd7cf"/>
    <path id="Path_2289" data-name="Path 2289" d="M329.414,12.573c-.313-.339-1.918.488-3.586,1.847a9.616,9.616,0,0,0-2.452,3.076,10.448,10.448,0,0,0,3.585-1.847c1.668-1.36,2.766-2.737,2.453-3.076" fill="#ddd7cf"/>
  </g>
</svg>
