<svg id="Group_6568" data-name="Group 6568" xmlns="http://www.w3.org/2000/svg" xmlns:xlink="http://www.w3.org/1999/xlink" width="1280" height="36" viewBox="0 0 1280 36">
  <defs>
    <clipPath id="clip-path">
      <rect id="Rectangle_2372" data-name="Rectangle 2372" width="1280" height="36" fill="#ddd7cf"/>
    </clipPath>
  </defs>
  <g id="Group_6568-2" data-name="Group 6568" clip-path="url(#clip-path)">
    <path id="Path_2256" data-name="Path 2256" d="M641.876,13.606A48.916,48.916,0,0,1,639.9,27.212a48.892,48.892,0,0,1-1.982-13.606C637.913,6.092,638.8,0,639.9,0s1.981,6.092,1.981,13.606" fill="#ddd7cf"/>
    <path id="Path_2257" data-name="Path 2257" d="M655.678,22.366c.33.832-2.482,2.759-6.282,4.305a18.723,18.723,0,0,1-7.478,1.293,18.921,18.921,0,0,1,6.282-4.305c3.8-1.545,7.148-2.124,7.478-1.293" fill="#ddd7cf"/>
    <path id="Path_2258" data-name="Path 2258" d="M651.854,12.141c.868.646-.821,4.464-3.773,8.527a23.084,23.084,0,0,1-6.916,6.188,23.453,23.453,0,0,1,3.773-8.527c2.951-4.064,6.048-6.834,6.916-6.188" fill="#ddd7cf"/>
    <path id="Path_2259" data-name="Path 2259" d="M623.556,23.358c-.258.857,2.707,2.533,6.624,3.742a18.7,18.7,0,0,0,7.56.639A18.851,18.851,0,0,0,631.116,24c-3.917-1.21-7.3-1.5-7.56-.638" fill="#ddd7cf"/>
    <path id="Path_2260" data-name="Path 2260" d="M626.5,12.838c-.81.719,1.2,4.376,4.483,8.168a23.018,23.018,0,0,0,7.416,5.563,23.4,23.4,0,0,0-4.483-8.167c-3.286-3.792-6.606-6.283-7.416-5.564" fill="#ddd7cf"/>
    <rect id="Rectangle_2370" data-name="Rectangle 2370" width="602.294" height="1.312" transform="translate(18.249 25.74)" fill="#ddd7cf"/>
    <path id="Path_2261" data-name="Path 2261" d="M632.611,30.917a9.01,9.01,0,0,1-1.115.321,9.889,9.889,0,0,1-1.152.179,10.364,10.364,0,0,1-1.169.042c-.2,0-.39-.014-.585-.025s-.389-.033-.582-.058a13.978,13.978,0,0,1-4.439-1.364c-.347-.172-.687-.357-1.023-.55s-.661-.4-.981-.62l-.239-.165-.232-.17c-.154-.114-.313-.224-.462-.343l-.451-.355c-.149-.12-.293-.244-.439-.367s-.289-.249-.431-.375-.285-.252-.421-.383l-.414-.39-.4-.4c-.532-.533-1.046-1.079-1.545-1.631-.248-.277-.5-.554-.739-.832l-.724-.835-1.423-1.661a37.112,37.112,0,0,0-2.893-3.086,14.759,14.759,0,0,0-1.576-1.274,9.947,9.947,0,0,0-.842-.53c-.14-.087-.29-.159-.437-.235l-.221-.114-.229-.1c-.152-.067-.3-.14-.461-.195l-.234-.09c-.078-.03-.156-.062-.237-.085l-.481-.155-.49-.13a11.089,11.089,0,0,0-2.021-.291c-.343-.021-.688-.013-1.033,0l-.517.037-.516.068a10.241,10.241,0,0,0-2.022.535,9.3,9.3,0,0,0-1.875.989,9.764,9.764,0,0,0-1.633,1.4,9.511,9.511,0,0,0-1.293,1.728,9.06,9.06,0,0,0-.49.962,8.54,8.54,0,0,0-.6,2.057,8.056,8.056,0,0,0-.09,1.063,8.2,8.2,0,0,0,.051,1.063,8.568,8.568,0,0,0,.191,1.045,8.43,8.43,0,0,0,.322,1.008,8.192,8.192,0,0,0,.448.953,7.614,7.614,0,0,0,1.24,1.678,7.314,7.314,0,0,0,.775.688,7.138,7.138,0,0,0,.862.564,4.225,4.225,0,0,0,.448.221,4.519,4.519,0,0,0,.465.167,4.039,4.039,0,0,0,.957.167,2.686,2.686,0,0,0,.9-.1,1.467,1.467,0,0,0,1.034-1.062,3.25,3.25,0,0,0,.1-.892c0-.162-.012-.329-.026-.5l-.011-.128-.014-.131c-.01-.088-.017-.176-.029-.263-.041-.349-.1-.7-.158-1.042-.035-.172-.066-.345-.106-.516s-.078-.341-.12-.511c-.088-.339-.18-.676-.289-1.008s-.224-.662-.353-.985c-.062-.163-.134-.322-.2-.483s-.14-.319-.216-.476a12.791,12.791,0,0,0-1.018-1.793,8.951,8.951,0,0,0-1.31-1.527,6.766,6.766,0,0,0-.774-.616,6.2,6.2,0,0,0-.853-.49,5.926,5.926,0,0,0-.924-.344,5.233,5.233,0,0,0-.969-.179,4.967,4.967,0,0,0-.983.012l-.122.015c-.041.006-.082.01-.122.019l-.242.047c-.08.022-.161.04-.241.063l-.12.037c-.04.012-.08.025-.119.04a6.432,6.432,0,0,0-1.813,1.013,10.079,10.079,0,0,0-.82.706c-.13.127-.257.258-.386.388-.065.064-.125.133-.186.2l-.183.2a12.632,12.632,0,0,0-2.261,3.752,12,12,0,0,0-.812,4.287,4.315,4.315,0,0,0,.137,1.049,2.873,2.873,0,0,0,.176.476,2.167,2.167,0,0,0,.259.413,1.616,1.616,0,0,0,.155.171l.085.075.091.068a1.771,1.771,0,0,0,.393.209,1.331,1.331,0,0,0,.781.059.957.957,0,0,0,.291-.139,1.157,1.157,0,0,0,.238-.232,2.331,2.331,0,0,0,.355-.726c.023-.071.043-.143.061-.217s.031-.15.048-.225.023-.152.032-.228.016-.153.018-.23a3.936,3.936,0,0,0-.07-.929,4.51,4.51,0,0,0-.754-1.74,4.68,4.68,0,0,0-.637-.727,4.258,4.258,0,0,0-.778-.576,3.7,3.7,0,0,0-1.866-.506,3.951,3.951,0,0,0-1,.133,4.492,4.492,0,0,0-.967.384,5.054,5.054,0,0,0-1.619,1.369,4.613,4.613,0,0,0-.891,1.925,3.791,3.791,0,0,0-.057,1.051,1.723,1.723,0,0,0,.042.249,1.437,1.437,0,0,0,.079.232.784.784,0,0,0,.267.34.405.405,0,0,0,.166.066.327.327,0,0,0,.159-.006.5.5,0,0,0,.147-.063.678.678,0,0,0,.129-.11.555.555,0,0,0,.095-.134.437.437,0,0,0,.049-.134.994.994,0,0,0,.022-.316,1.651,1.651,0,0,0-.071-.356,1.569,1.569,0,0,0-.067-.18l-.041-.09c-.014-.03-.032-.058-.047-.088a1.852,1.852,0,0,0-.235-.331,2.2,2.2,0,0,0-.678-.518,1.925,1.925,0,0,0-.417-.153,1.749,1.749,0,0,0-.453-.051,1.854,1.854,0,0,0-.473.069,2.115,2.115,0,0,0-.876.5,1.994,1.994,0,0,0-.546.876,1.014,1.014,0,0,0-.033.122c-.008.041-.014.081-.018.123a.969.969,0,0,0,0,.241.462.462,0,0,0,.2.354.248.248,0,0,0,.166.04.306.306,0,0,0,.163-.081.645.645,0,0,0,.2-.384.458.458,0,0,0-.013-.2.3.3,0,0,0-.091-.146.591.591,0,0,0-.381-.138.921.921,0,0,0-.22.024,1.128,1.128,0,0,0-.217.079,1.251,1.251,0,0,0-.2.118c-.028.025-.061.046-.087.073l-.042.039c-.013.013-.024.027-.037.04s-.05.059-.075.091-.048.066-.072.1c-.047.07-.092.144-.138.222-.092.157-.187.327-.307.5a3.116,3.116,0,0,1-.426.486,3.313,3.313,0,0,1-.524.379,3.029,3.029,0,0,1-.591.261c-.1.034-.208.059-.313.083l-.16.028c-.053.009-.107.013-.161.019a2.828,2.828,0,0,1-.65-.015,2.672,2.672,0,0,1-.621-.173,2.63,2.63,0,0,1-.547-.317c-.041-.033-.083-.063-.122-.1l-.115-.105a2.84,2.84,0,0,1-.208-.231,2.161,2.161,0,0,1-.472-1.113l.3-.1a3.861,3.861,0,0,0,.3.413,2.7,2.7,0,0,0,.351.343,2.565,2.565,0,0,0,.394.273,2.7,2.7,0,0,0,.427.2,2.606,2.606,0,0,0,.449.111l.115.014c.038,0,.077,0,.116.006s.078,0,.117,0a1.146,1.146,0,0,0,.117-.006,2.226,2.226,0,0,0,.469-.081,2.393,2.393,0,0,0,.451-.172,2.619,2.619,0,0,0,.412-.256,2.537,2.537,0,0,0,.351-.337c.108-.126.211-.277.328-.435a3.165,3.165,0,0,1,.412-.475,1.693,1.693,0,0,1,.579-.342,1.769,1.769,0,0,1,.323-.079,1.414,1.414,0,0,1,.338,0,1,1,0,0,1,.612.3.679.679,0,0,1,.173.328.782.782,0,0,1,.019.179,1.094,1.094,0,0,1-.019.172,1.018,1.018,0,0,1-.342.582.653.653,0,0,1-.344.149.57.57,0,0,1-.363-.088.684.684,0,0,1-.237-.256.955.955,0,0,1-.1-.312,1.367,1.367,0,0,1-.009-.313,1.535,1.535,0,0,1,.054-.3,2.681,2.681,0,0,1,.217-.564,2.963,2.963,0,0,1,.331-.512,3.135,3.135,0,0,1,.954-.805,2.638,2.638,0,0,1,.607-.243,2.559,2.559,0,0,1,.664-.088,2.72,2.72,0,0,1,1.293.321,2.587,2.587,0,0,1,.552.392,2.465,2.465,0,0,1,.441.531,2.177,2.177,0,0,1,.341,1.391,1.751,1.751,0,0,1-.262.759,1.54,1.54,0,0,1-.62.551,1.521,1.521,0,0,1-.382.128,1.292,1.292,0,0,1-.407.01,1.21,1.21,0,0,1-.2-.046l-.1-.036c-.03-.014-.058-.029-.087-.045a1.1,1.1,0,0,1-.291-.234,1.546,1.546,0,0,1-.311-.584,2.308,2.308,0,0,1-.072-.3c-.019-.1-.032-.2-.042-.3a4.5,4.5,0,0,1,.043-1.171,5.469,5.469,0,0,1,.9-2.169,6.117,6.117,0,0,1,1.708-1.664,5.577,5.577,0,0,1,1.088-.549,4.883,4.883,0,0,1,1.2-.28,4.644,4.644,0,0,1,1.246.043,4.875,4.875,0,0,1,1.187.365,5.35,5.35,0,0,1,1.052.641,5.617,5.617,0,0,1,.877.86,5.412,5.412,0,0,1,1.093,2.22,4.812,4.812,0,0,1-.1,2.575,3.575,3.575,0,0,1-.286.635,2.762,2.762,0,0,1-.453.594,2.3,2.3,0,0,1-.653.459,2.1,2.1,0,0,1-.781.189,2.141,2.141,0,0,1-.738-.1,2.444,2.444,0,0,1-.62-.3,2.766,2.766,0,0,1-.5-.437c-.035-.042-.071-.083-.1-.125l-.095-.133a2.628,2.628,0,0,1-.163-.277,3.561,3.561,0,0,1-.227-.572,4.516,4.516,0,0,1-.128-.584,7.561,7.561,0,0,1-.075-1.157,14.3,14.3,0,0,1,2.918-8.559l.18-.231c.06-.077.119-.155.184-.228.128-.148.252-.3.382-.445a11.257,11.257,0,0,1,.839-.839,7.593,7.593,0,0,1,2.036-1.34c.048-.022.1-.042.145-.061l.146-.057c.1-.037.2-.069.3-.1l.305-.085c.051-.015.1-.024.154-.035l.155-.033a6.052,6.052,0,0,1,1.25-.108,6.329,6.329,0,0,1,1.232.142,7.083,7.083,0,0,1,2.267.905,7.939,7.939,0,0,1,.98.709,9.239,9.239,0,0,1,.859.831c.135.146.261.3.387.45l.182.233c.06.078.117.158.175.237a12.978,12.978,0,0,1,1.18,2.011c.085.174.162.351.241.527.038.089.074.178.112.267s.072.179.107.269c.142.36.265.726.379,1.1l.083.278.075.28c.026.093.049.187.072.281s.047.188.067.283c.085.377.154.759.213,1.142s.1.769.127,1.156c.008.1.012.194.018.291l.008.145.006.149c.006.2.007.4,0,.614a5.386,5.386,0,0,1-.066.643,3.935,3.935,0,0,1-.167.668,2.991,2.991,0,0,1-.811,1.236,2.79,2.79,0,0,1-.624.423,3.054,3.054,0,0,1-.68.241,3.924,3.924,0,0,1-1.329.059,5.1,5.1,0,0,1-1.21-.3,5.4,5.4,0,0,1-1.081-.553,8.257,8.257,0,0,1-1.754-1.528,9.111,9.111,0,0,1-1.277-1.912,9.9,9.9,0,0,1-.454-1.054,9.657,9.657,0,0,1-.325-1.1,9.423,9.423,0,0,1-.252-2.291,9.222,9.222,0,0,1,.086-1.16,9.739,9.739,0,0,1,.233-1.144,10,10,0,0,1,.365-1.114A11.238,11.238,0,0,1,594.487,18c.22-.327.455-.646.707-.95a11.76,11.76,0,0,1,1.693-1.675,11.279,11.279,0,0,1,2.021-1.306c.091-.044.181-.092.273-.132l.277-.121.278-.122c.093-.039.189-.071.283-.107a11.391,11.391,0,0,1,1.155-.367l.59-.14.6-.1c.4-.056.8-.1,1.205-.121a12.6,12.6,0,0,1,2.416.108l.6.1c.2.041.394.088.591.133.1.021.2.05.293.078l.291.085c.2.053.384.125.575.192l.286.1.28.118c.186.08.375.156.554.25a11.18,11.18,0,0,1,1.061.582,14.94,14.94,0,0,1,1.908,1.408,22.143,22.143,0,0,1,1.659,1.606c.259.278.513.557.759.84l.367.423.36.426c.954,1.135,1.863,2.278,2.784,3.389q.69.833,1.4,1.631t1.461,1.541c.126.122.251.247.378.368l.387.358c.063.061.13.117.2.175l.2.173.2.173.2.166a17.328,17.328,0,0,0,1.689,1.228q.441.281.9.535t.937.473a13.271,13.271,0,0,0,1.976.736q.51.147,1.035.243a9.9,9.9,0,0,0,1.062.148,10.551,10.551,0,0,0,1.084.042c.364-.008.73-.031,1.1-.071Z" fill="#ddd7cf"/>
    <path id="Path_2262" data-name="Path 2262" d="M8.539,27.777a32.07,32.07,0,0,0,8.525-1.23,32.1,32.1,0,0,0-8.539-1.135C3.813,25.438,0,25.989,0,26.642S3.827,27.8,8.539,27.777" fill="#ddd7cf"/>
    <path id="Path_2263" data-name="Path 2263" d="M14.081,35.985c.522.194,1.721-1.491,2.677-3.765a10.676,10.676,0,0,0,.785-4.468,11.328,11.328,0,0,0-2.677,3.765c-.956,2.273-1.308,4.274-.785,4.468" fill="#ddd7cf"/>
    <path id="Path_2264" data-name="Path 2264" d="M7.655,33.738c.408.516,2.8-.506,5.334-2.282a13.971,13.971,0,0,0,3.856-4.15,15.127,15.127,0,0,0-5.334,2.282c-2.538,1.776-4.264,3.634-3.856,4.15" fill="#ddd7cf"/>
    <path id="Path_2265" data-name="Path 2265" d="M14.59,16.808c.537-.157,1.6,1.607,2.37,3.941a10.648,10.648,0,0,1,.427,4.51,11.17,11.17,0,0,1-2.37-3.941c-.773-2.333-.964-4.353-.427-4.51" fill="#ddd7cf"/>
    <path id="Path_2266" data-name="Path 2266" d="M8,18.6c.448-.486,2.748.7,5.137,2.647a13.766,13.766,0,0,1,3.515,4.407,14.952,14.952,0,0,1-5.137-2.647C9.129,21.059,7.555,19.086,8,18.6" fill="#ddd7cf"/>
    <rect id="Rectangle_2371" data-name="Rectangle 2371" width="602.294" height="1.312" transform="translate(659.457 25.155)" fill="#ddd7cf"/>
    <path id="Path_2267" data-name="Path 2267" d="M647.389,30.332a9.011,9.011,0,0,0,1.115.321,9.678,9.678,0,0,0,1.152.178,10.135,10.135,0,0,0,1.169.043c.2,0,.39-.014.585-.025s.389-.033.582-.058a13.978,13.978,0,0,0,4.439-1.364c.347-.172.687-.357,1.023-.55s.661-.4.981-.62l.239-.165.232-.17c.154-.114.313-.224.462-.343l.451-.355c.149-.12.293-.244.439-.367s.289-.249.431-.375.285-.253.421-.383l.414-.39.4-.4c.532-.533,1.046-1.079,1.545-1.631.248-.277.5-.554.739-.832l.724-.836,1.423-1.66a37.112,37.112,0,0,1,2.893-3.086,14.759,14.759,0,0,1,1.576-1.274,9.946,9.946,0,0,1,.842-.53c.14-.087.29-.159.437-.235l.221-.114.229-.1c.152-.067.3-.14.461-.195l.234-.09c.078-.031.156-.062.237-.086l.481-.154.49-.13a11.089,11.089,0,0,1,2.021-.291c.343-.021.688-.013,1.033,0l.517.037.516.068a10.105,10.105,0,0,1,2.022.535,9.3,9.3,0,0,1,1.875.989,9.764,9.764,0,0,1,1.633,1.395,9.443,9.443,0,0,1,1.293,1.728,9.06,9.06,0,0,1,.49.962,8.541,8.541,0,0,1,.6,2.057,8.056,8.056,0,0,1,.09,1.063,8.2,8.2,0,0,1-.051,1.063,8.568,8.568,0,0,1-.191,1.045,8.43,8.43,0,0,1-.322,1.008,8.27,8.27,0,0,1-.448.953,7.614,7.614,0,0,1-1.24,1.678,7.314,7.314,0,0,1-.775.688,7.138,7.138,0,0,1-.862.564,4.224,4.224,0,0,1-.448.221,4.519,4.519,0,0,1-.465.167,4.039,4.039,0,0,1-.957.167,2.66,2.66,0,0,1-.9-.1,1.463,1.463,0,0,1-1.034-1.061,3.25,3.25,0,0,1-.1-.892c0-.162.012-.328.026-.5l.011-.128.014-.132c.01-.087.017-.175.029-.262.041-.35.1-.7.158-1.042.035-.172.066-.345.106-.516s.078-.341.12-.511c.088-.339.18-.677.289-1.008s.224-.662.353-.985c.062-.164.134-.322.2-.483s.14-.319.216-.476a12.791,12.791,0,0,1,1.018-1.793,8.913,8.913,0,0,1,1.31-1.527,6.886,6.886,0,0,1,.774-.617,6.3,6.3,0,0,1,.853-.489,5.926,5.926,0,0,1,.924-.344,5.233,5.233,0,0,1,.969-.179,4.967,4.967,0,0,1,.983.012l.122.015c.041.006.082.01.122.019l.242.047c.08.022.161.04.241.063l.12.037c.04.012.08.025.119.04a6.452,6.452,0,0,1,1.814,1.013,10.245,10.245,0,0,1,.819.706c.13.127.257.258.386.388.065.064.125.133.186.2l.183.2a12.632,12.632,0,0,1,2.261,3.752,12,12,0,0,1,.812,4.287,4.315,4.315,0,0,1-.137,1.049,2.961,2.961,0,0,1-.175.476,2.22,2.22,0,0,1-.26.413,1.616,1.616,0,0,1-.155.171l-.085.075-.091.068a1.771,1.771,0,0,1-.393.209,1.331,1.331,0,0,1-.781.059.957.957,0,0,1-.291-.139,1.157,1.157,0,0,1-.238-.232,2.331,2.331,0,0,1-.355-.726c-.023-.071-.043-.143-.061-.217s-.031-.15-.048-.225-.023-.151-.032-.228-.016-.153-.018-.23a3.936,3.936,0,0,1,.07-.929,4.51,4.51,0,0,1,.754-1.74,4.68,4.68,0,0,1,.637-.727,4.258,4.258,0,0,1,.778-.576,3.7,3.7,0,0,1,1.866-.506,3.951,3.951,0,0,1,1,.133,4.54,4.54,0,0,1,.967.383,5.058,5.058,0,0,1,1.619,1.37,4.613,4.613,0,0,1,.891,1.925,3.786,3.786,0,0,1,.057,1.05,1.713,1.713,0,0,1-.042.25,1.437,1.437,0,0,1-.079.232.784.784,0,0,1-.267.34.405.405,0,0,1-.166.066.327.327,0,0,1-.159-.006.5.5,0,0,1-.147-.063.678.678,0,0,1-.129-.11.575.575,0,0,1-.095-.134.437.437,0,0,1-.049-.134,1,1,0,0,1-.022-.317,1.654,1.654,0,0,1,.071-.355,1.569,1.569,0,0,1,.067-.18l.04-.09c.015-.03.033-.058.048-.088a1.817,1.817,0,0,1,.235-.331,2.011,2.011,0,0,1,.308-.288,2.058,2.058,0,0,1,.369-.23,1.954,1.954,0,0,1,.418-.153,1.749,1.749,0,0,1,.453-.051,1.854,1.854,0,0,1,.473.069,1.979,1.979,0,0,1,.463.194,2.07,2.07,0,0,1,.414.306,2,2,0,0,1,.545.876.966.966,0,0,1,.033.122c.008.041.014.081.018.122a.977.977,0,0,1,0,.242.464.464,0,0,1-.2.354.248.248,0,0,1-.166.04.306.306,0,0,1-.163-.081.645.645,0,0,1-.2-.384.443.443,0,0,1,.013-.2.3.3,0,0,1,.091-.146.591.591,0,0,1,.381-.138.921.921,0,0,1,.22.024,1.243,1.243,0,0,1,.416.2c.029.025.062.046.088.073l.042.038c.013.014.024.028.037.041s.05.059.075.091.048.066.072.1c.047.069.092.144.138.222.092.157.187.327.307.5a3.116,3.116,0,0,0,.426.486,3.313,3.313,0,0,0,.524.379,3.029,3.029,0,0,0,.591.261c.1.034.208.059.313.083l.16.028c.053.009.107.013.161.019a2.885,2.885,0,0,0,.65-.015,2.672,2.672,0,0,0,.621-.173,2.63,2.63,0,0,0,.547-.317c.041-.033.083-.063.122-.1l.115-.106a2.826,2.826,0,0,0,.208-.23,2.161,2.161,0,0,0,.472-1.113l-.3-.1a3.749,3.749,0,0,1-.3.412,2.649,2.649,0,0,1-.351.344,2.613,2.613,0,0,1-.394.273,2.7,2.7,0,0,1-.427.2,2.606,2.606,0,0,1-.449.111l-.115.014c-.038,0-.077,0-.116.006a1.142,1.142,0,0,1-.117,0,.916.916,0,0,1-.117-.005,2.226,2.226,0,0,1-.469-.081,2.393,2.393,0,0,1-.451-.172,2.619,2.619,0,0,1-.412-.256,2.537,2.537,0,0,1-.351-.337c-.108-.126-.211-.277-.328-.435a3.165,3.165,0,0,0-.412-.475,1.693,1.693,0,0,0-.579-.342,1.79,1.79,0,0,0-.323-.079,1.364,1.364,0,0,0-.338,0,.993.993,0,0,0-.612.3.689.689,0,0,0-.174.328.839.839,0,0,0-.018.179,1.094,1.094,0,0,0,.019.172,1.018,1.018,0,0,0,.342.582.653.653,0,0,0,.344.149.576.576,0,0,0,.363-.088.684.684,0,0,0,.237-.256.955.955,0,0,0,.1-.312,1.367,1.367,0,0,0,.009-.313,1.535,1.535,0,0,0-.054-.3,2.681,2.681,0,0,0-.217-.564,2.926,2.926,0,0,0-.331-.512,3.135,3.135,0,0,0-.954-.805,2.638,2.638,0,0,0-.607-.243,2.559,2.559,0,0,0-.664-.088,2.72,2.72,0,0,0-1.293.321,2.587,2.587,0,0,0-.552.392,2.465,2.465,0,0,0-.441.531,2.176,2.176,0,0,0-.341,1.39,1.75,1.75,0,0,0,.262.76,1.54,1.54,0,0,0,.62.551,1.508,1.508,0,0,0,.382.128,1.292,1.292,0,0,0,.407.01,1.21,1.21,0,0,0,.2-.046l.1-.036c.03-.014.058-.029.087-.045a1.1,1.1,0,0,0,.291-.234,1.546,1.546,0,0,0,.311-.584,2.323,2.323,0,0,0,.072-.3c.019-.1.032-.2.042-.3a4.5,4.5,0,0,0-.043-1.171,5.469,5.469,0,0,0-.9-2.169,6.117,6.117,0,0,0-1.708-1.664,5.577,5.577,0,0,0-1.088-.549,4.883,4.883,0,0,0-1.2-.28,4.644,4.644,0,0,0-1.246.043,4.832,4.832,0,0,0-1.187.365,5.3,5.3,0,0,0-1.052.641,5.617,5.617,0,0,0-.877.86,5.412,5.412,0,0,0-1.093,2.22,4.812,4.812,0,0,0,.1,2.575,3.575,3.575,0,0,0,.286.635,2.762,2.762,0,0,0,.453.594,2.3,2.3,0,0,0,.653.459,2.1,2.1,0,0,0,.781.189,2.141,2.141,0,0,0,.738-.1,2.444,2.444,0,0,0,.62-.3,2.766,2.766,0,0,0,.5-.437c.035-.042.071-.083.1-.125l.095-.133a2.628,2.628,0,0,0,.163-.277,3.561,3.561,0,0,0,.227-.572,4.516,4.516,0,0,0,.128-.584,7.561,7.561,0,0,0,.075-1.157,14.3,14.3,0,0,0-2.918-8.559l-.18-.231c-.06-.077-.119-.155-.184-.228-.128-.148-.252-.3-.382-.445a11.269,11.269,0,0,0-.839-.84,7.593,7.593,0,0,0-2.036-1.34c-.048-.021-.1-.041-.145-.06l-.146-.057c-.1-.037-.2-.069-.3-.1l-.305-.085c-.051-.015-.1-.024-.154-.035l-.155-.033a6.052,6.052,0,0,0-1.25-.108,6.329,6.329,0,0,0-1.232.142,7.083,7.083,0,0,0-2.267.9,7.94,7.94,0,0,0-.98.709,9.239,9.239,0,0,0-.859.831c-.135.146-.261.3-.387.45l-.182.233c-.06.078-.117.158-.175.237a12.978,12.978,0,0,0-1.18,2.011c-.085.174-.162.351-.241.527-.038.089-.074.178-.112.267s-.072.179-.107.269c-.142.36-.265.726-.379,1.1l-.083.278-.075.28c-.026.093-.049.187-.072.281s-.047.188-.067.283c-.085.377-.154.759-.213,1.142s-.1.769-.127,1.156c-.008.1-.012.194-.018.291l-.008.145-.006.149c-.006.2-.007.4,0,.613a5.381,5.381,0,0,0,.066.644,3.935,3.935,0,0,0,.167.668,3,3,0,0,0,.811,1.236,2.79,2.79,0,0,0,.624.423,3.054,3.054,0,0,0,.68.241,3.924,3.924,0,0,0,1.329.059,5.1,5.1,0,0,0,1.21-.3,5.4,5.4,0,0,0,1.081-.553,8.234,8.234,0,0,0,1.754-1.529,9.139,9.139,0,0,0,1.277-1.911,9.9,9.9,0,0,0,.454-1.054,9.657,9.657,0,0,0,.325-1.1,9.423,9.423,0,0,0,.252-2.291,9.209,9.209,0,0,0-.086-1.16,9.657,9.657,0,0,0-.233-1.144,10.215,10.215,0,0,0-.365-1.114,11.193,11.193,0,0,0-.491-1.068,11.423,11.423,0,0,0-.6-1.015c-.22-.327-.455-.645-.707-.949a11.76,11.76,0,0,0-1.693-1.675,11.279,11.279,0,0,0-2.021-1.306c-.091-.044-.181-.092-.273-.132l-.277-.121-.278-.122c-.093-.039-.189-.071-.283-.107a11.391,11.391,0,0,0-1.155-.367l-.59-.14-.6-.1c-.4-.056-.8-.1-1.2-.121a12.6,12.6,0,0,0-2.416.108l-.6.1c-.2.042-.394.089-.591.134-.1.021-.2.05-.293.078l-.291.085c-.2.053-.384.125-.575.192l-.286.1-.28.118c-.186.08-.375.155-.554.251a10.953,10.953,0,0,0-1.061.581,14.845,14.845,0,0,0-1.908,1.408,21.947,21.947,0,0,0-1.659,1.606c-.259.278-.513.557-.759.84l-.367.423-.36.426c-.954,1.135-1.864,2.278-2.784,3.389q-.69.833-1.4,1.631t-1.461,1.541c-.126.122-.251.247-.378.368l-.387.358c-.063.061-.13.117-.2.175l-.2.173-.2.173-.2.166a17.328,17.328,0,0,1-1.689,1.228q-.441.281-.9.535t-.937.473a13.27,13.27,0,0,1-1.976.736c-.34.1-.685.179-1.035.243a9.9,9.9,0,0,1-1.062.148,10.552,10.552,0,0,1-1.084.042c-.364-.008-.73-.031-1.1-.071Z" fill="#ddd7cf"/>
    <path id="Path_2268" data-name="Path 2268" d="M1271.461,27.193a32.07,32.07,0,0,1-8.525-1.23,32.1,32.1,0,0,1,8.539-1.135c4.712.026,8.529.577,8.525,1.23s-3.827,1.161-8.539,1.135" fill="#ddd7cf"/>
    <path id="Path_2269" data-name="Path 2269" d="M1265.919,35.4c-.523.194-1.721-1.491-2.677-3.765a10.677,10.677,0,0,1-.785-4.468,11.342,11.342,0,0,1,2.677,3.765c.956,2.273,1.308,4.274.785,4.468" fill="#ddd7cf"/>
    <path id="Path_2270" data-name="Path 2270" d="M1272.345,33.154c-.408.516-2.8-.506-5.334-2.282a13.984,13.984,0,0,1-3.856-4.15A15.113,15.113,0,0,1,1268.489,29c2.538,1.777,4.264,3.635,3.856,4.151" fill="#ddd7cf"/>
    <path id="Path_2271" data-name="Path 2271" d="M1265.41,16.223c-.537-.157-1.6,1.607-2.37,3.941a10.647,10.647,0,0,0-.427,4.51,11.169,11.169,0,0,0,2.37-3.941c.773-2.333.964-4.353.427-4.51" fill="#ddd7cf"/>
    <path id="Path_2272" data-name="Path 2272" d="M1272,18.015c-.448-.486-2.748.7-5.137,2.647a13.766,13.766,0,0,0-3.515,4.407,14.952,14.952,0,0,0,5.137-2.647c2.39-1.948,3.963-3.921,3.515-4.407" fill="#ddd7cf"/>
  </g>
</svg>
