<svg xmlns="http://www.w3.org/2000/svg" xmlns:xlink="http://www.w3.org/1999/xlink" width="20" height="20" viewBox="0 0 20 20">
  <defs>
    <clipPath id="clip-path">
      <rect id="Rectangle_2339" data-name="Rectangle 2339" width="20" height="20" fill="#333"/>
    </clipPath>
  </defs>
  <g id="Group_6383" data-name="Group 6383" transform="translate(0 0.242)">
    <g id="Group_6382" data-name="Group 6382" transform="translate(0 -0.242)" clip-path="url(#clip-path)">
      <path id="Path_2029" data-name="Path 2029" d="M19.453.289c-.539-.539-1.469-.3-2.454.5-.893.709-5.572,4.494-8.021,6.85-1.707,1.485-3.034,2.933-3.327,4a1.592,1.592,0,0,0-.052.286L4.361,13.171l-2.93,2.064a1.525,1.525,0,0,0-.2.165,1.493,1.493,0,0,0-.4.721L0,19.741l3.62-.835a1.5,1.5,0,0,0,.721-.4,1.441,1.441,0,0,0,.165-.2l2.065-2.929L7.81,14.142a1.549,1.549,0,0,0,.286-.052c1.072-.292,2.519-1.62,4-3.327,2.356-2.449,6.141-7.127,6.85-8.021.8-.986,1.041-1.915.5-2.454M3.962,17.926a.807.807,0,0,1-.092.109.829.829,0,0,1-.4.222l-2.251.519,1.5-1.5a.461.461,0,1,0-.253-.254l-1.5,1.5.52-2.252a.827.827,0,0,1,.222-.4.837.837,0,0,1,.108-.092l2.819-1.987,1.315,1.315Zm2.218-3.1L4.911,13.562l.886-.886a1.91,1.91,0,0,0,.223.259l.787.787a1.909,1.909,0,0,0,.259.223Z" transform="translate(0 0.255)" fill="#333"/>
    </g>
  </g>
</svg>
