<svg xmlns="http://www.w3.org/2000/svg" width="184" height="184" viewBox="0 0 184 184"><defs><style>.a{fill:#fff;}.b{fill:#ddd7cf;}</style></defs><g transform="translate(-58 -45)"><path class="a" d="M90,0A90,90,0,1,1,0,90,90,90,0,0,1,90,0Z" transform="translate(58 45)"/><path class="b" d="M90,1A89.663,89.663,0,0,0,72.062,2.808,88.507,88.507,0,0,0,40.24,16.2,89.263,89.263,0,0,0,7.994,55.357a88.544,88.544,0,0,0-5.185,16.7,89.877,89.877,0,0,0,0,35.875A88.507,88.507,0,0,0,16.2,139.76a89.263,89.263,0,0,0,39.158,32.246,88.544,88.544,0,0,0,16.7,5.185,89.877,89.877,0,0,0,35.875,0A88.507,88.507,0,0,0,139.76,163.8a89.263,89.263,0,0,0,32.246-39.158,88.545,88.545,0,0,0,5.185-16.7,89.877,89.877,0,0,0,0-35.875A88.507,88.507,0,0,0,163.8,40.24,89.263,89.263,0,0,0,124.643,7.994a88.545,88.545,0,0,0-16.7-5.185A89.663,89.663,0,0,0,90,1m0-1A90,90,0,1,1,0,90,90,90,0,0,1,90,0Z" transform="translate(62 49)"/></g></svg>