<svg xmlns="http://www.w3.org/2000/svg" width="28" height="25.308" viewBox="0 0 28 25.308"><g transform="translate(0 -18.982)"><g transform="translate(0 18.982)"><path d="M24.422,31.247a.886.886,0,0,0-.886.886V42.517H1.773V20.755H19.256a.886.886,0,0,0,0-1.773H.886A.886.886,0,0,0,0,19.868V43.4a.886.886,0,0,0,.886.886H24.422a.886.886,0,0,0,.886-.886V32.134A.886.886,0,0,0,24.422,31.247Z" transform="translate(0 -18.982)" fill="#fff"/><path d="M118.823,23.8a.886.886,0,0,0-1.253,0L103.134,38.239l-3.587-3.587a.886.886,0,1,0-1.253,1.253l4.213,4.213a.886.886,0,0,0,1.253,0l15.063-15.063A.886.886,0,0,0,118.823,23.8Z" transform="translate(-91.083 -23.22)" fill="#fff"/></g></g></svg>