<svg xmlns="http://www.w3.org/2000/svg" width="821.459" height="134.758" viewBox="0 0 821.459 134.758"><g transform="translate(-1620.51 -4994.965)"><path d="M59.5,37.89a18.076,18.076,0,0,1-5.24,1.963c-5.858,1.293-13.645-.166-16.995-5.594a9.869,9.869,0,0,1,2.761-13.389c4.548-3.324,8.73-1.412,10.343,1.22,1.293,2.112,1.894,3.742,1.19,5.965a6.67,6.67,0,0,0,.026-7.5c-3.725-6.059-12.86-4.024-16.231,1.31-3.132,4.958-.964,12.463,3.413,16.022,5.351,4.352,14.093,4.583,20.024,1.387a29.15,29.15,0,0,0,9.916-9.6,38.623,38.623,0,0,0,4.4-9.6,37.652,37.652,0,0,1-3.738,7.194c-2.415,3.84-5.939,8.256-9.873,10.62" transform="translate(1753.981 5052.221)" fill="#b19d7f"/><path d="M248.466,40.969c-3.349-3.068-33.46-29.449-83.561-27.354-11.034.448-24.884,2.138-44.042,11.209-7.2,3.409-13.658,7.006-19.358,10.172C88.888,42,78.951,47.523,68.169,47.643,52.3,47.809,41.587,37.6,42.107,22.827,42.56,9.25,53.559,4.309,61,4.07c7.313-.243,14.631,4.7,17.31,12.361a27.68,27.68,0,0,1,1.254,6.575,22.23,22.23,0,0,0-.218-6.9,13.142,13.142,0,0,0-2.266-5.683,17.586,17.586,0,0,0-9.135-7.036,21.2,21.2,0,0,0-6.852-1.144C53.069,2.44,41.13,7.906,40.507,22.776a25.053,25.053,0,0,0,5.747,17.647c5.052,5.931,13.052,9.25,21.965,9.084,15.932-.273,39.835-12.173,51.312-17.895l3.593-1.762,1.72-.845c12.536-6.08,24.376-11.823,40.291-13.035,46.444-3.495,79.426,23.51,83.032,26.586l9.652,7.676-6.746-6.9Z" transform="translate(1775.573 5008.598)" fill="#b19d7f"/><path d="M131.2.386C121.384-.667,95.869-.962,70.959,18.857c-7,5.555-13.9,14.486-20.5,26.527C47.735,50.342,45.5,55.1,43.541,59.3l-.06.119c-4.348,9.314-7.778,16.666-13.965,21.3-6.392,4.77-13.692,5.645-19.538,2.33a17.31,17.31,0,0,1-5.764-5.419,14.667,14.667,0,0,1,2.432-19.58,12.887,12.887,0,0,1,14.14-.819c.3.171.606.363.892.559a19.264,19.264,0,0,1,3.465,3.192l.862.969-.567-1.161a15.458,15.458,0,0,0-3-3.827l-.068-.068A9.445,9.445,0,0,0,18.6,54.549a12.915,12.915,0,0,0-8.376-.149,15.675,15.675,0,0,0-4.51,2.278A16.307,16.307,0,0,0,2.972,78.465a18.616,18.616,0,0,0,6.285,5.948,16.9,16.9,0,0,0,4.57,1.779c5.487,1.267,11.584-.252,16.722-4.147C39.739,75.081,48.6,58.138,52.855,49.992l1.984-3.738.021-.051c4.711-8.755,9.161-17.033,17.831-24.432C98.113.126,128.553,1.568,131.936,1.807l8.841.294.026-.358L133.967.651Z" transform="matrix(0.921, 0.391, -0.391, 0.921, 1654.359, 4994.965)" fill="#b19d7f"/><path d="M116.772,7.414c-35.312-.631-51.078,13.8-52.84,29.8-1.412,12.984,8.777,19.8,15.7,19.9A14.842,14.842,0,0,0,94.9,43.563c.969-8.875-5.009-12.113-9.809-12.2-3-.047-5.692.785-7.194,4.327,1.916-2.206,3.977-2.59,6.976-2.56,3.7.085,7.45,3.268,6.678,10.377-.836,7.569-5.974,11.934-11.729,11.836-6.929-.119-16.171-5.141-14.759-18.117C66.736,21.9,81.256,8.571,116.555,9.211c15.732.277,31.314,7.266,43.88,14.912-3.337-2.031-5.3-3.9-8.615-6.038-9.583-6.161-23.868-10.466-35.047-10.671" transform="translate(1851.755 5025.423)" fill="#b19d7f"/><path d="M67.2,23.543c-9.08-1.284-10.914-8.888-9.805-13.888.913-4.177,4.775-7.1,10.082-6.332,5,.7,6.537,3.955,5.935,6.656-.482,2.176-1.118,3.593-2.944,4.583,2.675-.465,3.708-2.249,4.181-4.412.785-3.495-.4-8.389-6.635-9.263-6.238-.9-10.74,3.473-11.87,8.6A12.682,12.682,0,0,0,67.025,24.35,18.728,18.728,0,0,0,80.8,20.7a13.281,13.281,0,0,1-2.616.73A17.1,17.1,0,0,1,67.2,23.543" transform="translate(1826.01 5003.781)" fill="#b19d7f"/><path d="M91.853,25.872c-15.936-4.4-31.122-9.489-46.124-3.46A28.93,28.93,0,0,0,32,34c-2.778,4.284-4.42,12.493.273,17.251,1.882,1.9,3.046,2.18,4.681,3.512-14-11.422-2.116-26.958,10.253-31.037,13.385-4.4,25.878-.875,41.819,3.516,11.537,3.17,23.288,4.984,36.874,1.553,16.6-5.555,25.114-16.619,25.072-17.353-22.4,22.4-48.1,17.46-59.121,14.426" transform="translate(1739.097 5034.58)" fill="#b19d7f"/><path d="M163.162,20.552a6.669,6.669,0,0,0,.026,7.505c-.7-2.223-.111-3.853,1.186-5.965,1.609-2.633,5.8-4.544,10.347-1.225a9.873,9.873,0,0,1,2.756,13.389c-3.349,5.432-11.136,6.891-17,5.594a18.118,18.118,0,0,1-5.231-1.963c-3.934-2.364-7.463-6.776-9.878-10.62a37.9,37.9,0,0,1-3.738-7.194,39.04,39.04,0,0,0,4.4,9.6,29.149,29.149,0,0,0,9.92,9.592c5.927,3.2,14.665,2.965,20.024-1.387,4.373-3.554,6.541-11.064,3.413-16.018-3.375-5.338-12.515-7.373-16.231-1.314" transform="translate(2106.017 5052.217)" fill="#b19d7f"/><path d="M290.009,2.248a21.223,21.223,0,0,0-6.852,1.144,17.548,17.548,0,0,0-9.135,7.036,13.061,13.061,0,0,0-2.261,5.683,22.1,22.1,0,0,0-.222,6.9,27.641,27.641,0,0,1,1.254-6.575c2.675-7.663,10-12.6,17.31-12.361C297.544,4.3,308.54,9.25,309,22.823c.521,14.78-10.2,24.986-26.062,24.82C272.152,47.519,262.219,42,249.6,34.992c-5.7-3.162-12.16-6.759-19.358-10.168-19.158-9.071-33.008-10.761-44.042-11.209C136.1,11.52,105.987,37.9,102.637,40.969l-2.607,2.36-6.75,6.9,9.656-7.676c3.605-3.076,36.583-30.081,83.032-26.586,15.915,1.212,27.755,6.951,40.291,13.035l1.72.841,3.593,1.766c11.478,5.722,35.376,17.622,51.312,17.891,8.913.171,16.918-3.153,21.965-9.084A25.036,25.036,0,0,0,310.6,22.776c-.623-14.87-12.561-20.34-20.587-20.528" transform="translate(1948.061 5008.598)" fill="#b19d7f"/><path d="M135.091,56.677a15.78,15.78,0,0,0-4.519-2.278,12.916,12.916,0,0,0-8.376.149,9.442,9.442,0,0,0-3.763,2.338l-.068.068a15.376,15.376,0,0,0-3,3.827l-.567,1.161.866-.969a19.559,19.559,0,0,1,3.46-3.192c.29-.2.593-.388.892-.559a12.887,12.887,0,0,1,14.14.819,14.668,14.668,0,0,1,2.432,19.58,17.419,17.419,0,0,1-5.76,5.419c-5.845,3.32-13.15,2.441-19.542-2.33C105.1,76.082,101.669,68.73,97.317,59.42l-.051-.124c-1.967-4.194-4.2-8.956-6.921-13.91-6.6-12.045-13.5-20.976-20.5-26.531C44.934-.963,19.418-.665,9.6.385L6.831.649,0,1.742.026,2.1l8.841-.294C12.246,1.567,42.693.129,68.111,21.77c8.674,7.4,13.12,15.676,17.831,24.436l.021.047,1.988,3.742c4.258,8.141,13.108,25.084,22.307,32.048,5.137,3.9,11.226,5.415,16.717,4.147a16.869,16.869,0,0,0,4.574-1.779,18.551,18.551,0,0,0,6.276-5.948,16.3,16.3,0,0,0-2.735-21.786" transform="translate(2280.03 5043.122) rotate(-20)" fill="#b19d7f"/><path d="M141.912,7.414c-11.179.2-25.464,4.51-35.047,10.671-3.315,2.138-5.278,4.007-8.615,6.038C110.816,16.477,126.4,9.488,142.13,9.211c35.3-.64,49.823,12.689,51.492,28.011,1.412,12.975-7.83,18-14.759,18.117-5.752.1-10.893-4.267-11.729-11.836-.772-7.108,2.974-10.292,6.678-10.377,3-.03,5.06.354,6.976,2.56-1.5-3.541-4.19-4.373-7.194-4.327-4.8.09-10.774,3.328-9.809,12.2A14.842,14.842,0,0,0,179.05,57.105c6.925-.1,17.114-6.912,15.7-19.9-1.762-16-17.528-30.427-52.84-29.8" transform="translate(1964.297 5025.423)" fill="#b19d7f"/><path d="M135.735.886c-6.242.879-7.42,5.769-6.639,9.263.478,2.163,1.51,3.947,4.186,4.412-1.83-.99-2.462-2.406-2.948-4.583-.6-2.7.939-5.956,5.939-6.656,5.3-.764,9.165,2.155,10.078,6.332,1.109,5-.725,12.6-9.805,13.888a17.1,17.1,0,0,1-10.987-2.116,13.078,13.078,0,0,1-2.611-.73,18.712,18.712,0,0,0,13.769,3.652A12.68,12.68,0,0,0,147.6,9.488c-1.126-5.129-5.632-9.494-11.866-8.6" transform="translate(2044.977 5003.782)" fill="#b19d7f"/><path d="M232.115,22.412c-15-6.029-30.183-.943-46.12,3.46-11.021,3.038-36.724,7.97-59.125-14.426-.043.734,8.474,11.8,25.076,17.357,13.585,3.426,25.328,1.613,36.874-1.557,15.941-4.391,28.434-7.915,41.814-3.516C243,27.809,254.891,43.345,240.9,54.767c1.626-1.331,2.795-1.609,4.672-3.507,4.694-4.762,3.051-12.971.277-17.251a28.948,28.948,0,0,0-13.731-11.6" transform="translate(2057.792 5034.58)" fill="#b19d7f"/><path d="M97.773,14.073a19.331,19.331,0,0,0-6.084-5.841,21.593,21.593,0,0,0-4.331-2.377,29.065,29.065,0,0,0,.922,3.324c.354,1.045.734,2.082,1.139,3.081a32.8,32.8,0,0,0,1.63,3.448,18.353,18.353,0,0,0,4.28,5.338,25.26,25.26,0,0,0,6.665,4.007,38.709,38.709,0,0,0-2.953-8.623c-.393-.828-.815-1.6-1.267-2.355" transform="translate(1928.715 5020.394)" fill="#b19d7f"/><path d="M98.136,14.073a25.776,25.776,0,0,0-1.276,2.355,38.921,38.921,0,0,0-2.948,8.623,25.17,25.17,0,0,0,6.66-4.007,18.215,18.215,0,0,0,4.28-5.338,31.173,31.173,0,0,0,1.63-3.448c.414-1,.777-2.035,1.131-3.081a27.409,27.409,0,0,0,.926-3.324,21.643,21.643,0,0,0-4.322,2.377,19.318,19.318,0,0,0-6.08,5.841" transform="translate(1950.125 5020.394)" fill="#b19d7f"/><path d="M98.356,8.633c.2-1.481.794-2.889.5-4.425A34.822,34.822,0,0,0,97.071,0l-.017.03a19.828,19.828,0,0,0-1.762,4.177c-.294,1.536.294,2.944.491,4.425a12.318,12.318,0,0,1-2.219,8.376c-1.553,2.108-3.162,4.442-2.513,7.428.678,3.162,4.216,4.621,5.026,7.723H98.07c.8-3.1,4.335-4.561,5.022-7.723.649-2.987-.96-5.321-2.513-7.428a12.3,12.3,0,0,1-2.223-8.376" transform="translate(1940.297 5001.271)" fill="#b19d7f"/><path d="M94.548,7.191l-.077.047L91.676,9.8v4.036l2.795,3.618.077.166.085-.166,2.786-3.618V9.8L94.633,7.238Z" transform="translate(1942.822 5024.76)" fill="#b19d7f"/><path d="M93.975,10.01l-.051.026L91.85,11.478v2.266l2.074,2.044.051.085.064-.085,2.069-2.044V11.478l-2.069-1.442Z" transform="translate(1943.391 5033.968)" fill="#b19d7f"/></g></svg>