<svg xmlns="http://www.w3.org/2000/svg" width="110.079" height="67.275" viewBox="0 0 110.079 67.275"><g transform="translate(9001.805 3942.273)"><path d="M8.148-6.5c.336-.028.672-.028.672.252.2.084.7-.14.672.14a10.824,10.824,0,0,0,5.124-.952c.392.056.448-.252.672-.392.42.056.5-.2.784-.28a3.774,3.774,0,0,1,1.484-.784,23.622,23.622,0,0,1,2.3-2.436,4.28,4.28,0,0,1,.924-1.6,4.255,4.255,0,0,1,.812-2.016c.028-1.4.588-2.3.42-3.92a3.169,3.169,0,0,1-.42-1.344,7.93,7.93,0,0,1-1.2-1.344,3.934,3.934,0,0,1-1.2-.532H17.024c-.2.028-.224.224-.392.28a14.359,14.359,0,0,0-4.592,2.94c-.364.028-.224.588-.672.56-.168.224-.336.448-.532.672a5.079,5.079,0,0,0-.672.672c-.336.084-.28.588-.672.672a6.8,6.8,0,0,1-1.2,1.344c0,.392-.308.476-.532.672-.2.644-.7.98-.952,1.6-.28.168-.308.588-.532.812A26.135,26.135,0,0,0,4.4-8.26a3.674,3.674,0,0,0-.672,1.2c-.336.7-.616,1.316-.952,1.9A8.3,8.3,0,0,0,1.708-3.276a1.33,1.33,0,0,0-.42.812c-.14.28-.5.364-.532.784C.252-.868-.532.336-.308,1.428c0,.2-.028.448.252.392.224.42.616-.112.952,0a2.722,2.722,0,0,1,.532-.812C1.54.224,2.3.112,2.24-.868c.2-.252.7-.2.672-.672.2-.028.112-.308.14-.532.252-.028.448-.084.532-.28.112-.84.924-1.036,1.064-1.876.392.084.364-.42.42-.532.056-.168.448-.42.532-.532.112-.14.28-.28.392-.42.392-.588.84-1.12,1.232-1.736C7.532-7.14,7.84-6.832,8.148-6.5ZM8.008-8.12c-.14-.644.56-.448.56-.952.252-.224.616-.364.672-.784.588-.364.868-1.008,1.344-1.484.42-.476,1.092-.812,1.344-1.484.5-.364,1.148-.672,1.2-1.624-.056-.308-.42-.28-.532-.532-.756.168-1.064.756-1.484,1.2-.7.168-.784.924-1.344,1.232-.252.644-.868.924-1.2,1.456-.14.308-.448.476-.672.672a2.56,2.56,0,0,1-.672.56A17.2,17.2,0,0,1,6.272-8.12a1.93,1.93,0,0,0-.672.672c-.308.14-.224.672-.672.672.168-.5.588-.756.532-1.484a7.673,7.673,0,0,0,1.2-1.876A7.551,7.551,0,0,1,8.008-11.76a6.158,6.158,0,0,1,1.484-2.408c1.148-1.932,3.22-2.968,4.564-4.7.588-.084.84-.532,1.344-.672a4.346,4.346,0,0,1,1.232-.672.555.555,0,0,1,.392-.392,3.317,3.317,0,0,0,1.484,0,3.654,3.654,0,0,0,1.2.532c.252.448,1.036,1.288,1.064,2.016.028.168.224.784-.252.812.112.224.364.336.252.784-.2.588-.224,1.372-.672,1.764-.364,1.96-1.54,3.108-2.548,4.424a20.244,20.244,0,0,1-2.688,1.764,22.5,22.5,0,0,1-3.36,1.064C10.136-7.476,8.708-7.42,8.008-8.12ZM19.124-6.384A6.477,6.477,0,0,0,18.2-4.7c-.084.168-.028.364-.14.532-.056.112-.336.168-.392.28a9.781,9.781,0,0,0-.42.952,5.531,5.531,0,0,0,.28,2.548,7.316,7.316,0,0,0,2.968.14,14.923,14.923,0,0,0,3.22-2.016c.336-.364.224-.616.56-.672-.084-.252.616-.644.784-.812A8.274,8.274,0,0,0,26.684-6.16c0-.028.056-.084.5-.252.42-.168.14-.028.588-.2.224-.084.336-.112.392-.14a3.073,3.073,0,0,0,.672-1.176,2.02,2.02,0,0,0-1.148.056c-.392.14-.028.028-.42.112-.224.056-.364,0-.392-.056a5.739,5.739,0,0,0-.336-1.456c.028-.784-.924-1.148-1.372-1.484a11.257,11.257,0,0,0-2.128.532,11.443,11.443,0,0,1-1.092,1.232c-.728.224-1.064.812-1.876.924a6.966,6.966,0,0,0-.672.532A6.266,6.266,0,0,1,19.124-6.384Zm5.264-2.6a5.211,5.211,0,0,1,.952.112c.252.336.084,1.092.14,1.624a5.372,5.372,0,0,1-2.436.392c.056-.252-.112-.476-.14-.252-.364-.28.308-.672.392-.952a1.263,1.263,0,0,0,.952-.532C24.192-8.82,24.36-8.82,24.388-8.988ZM21.028-6.3c.448.112.7.448,1.064.672.364,0,.756-.056.952.112a4.712,4.712,0,0,0,1.9-.364c0,.448-.224.448-.42.784a4.277,4.277,0,0,0-.924.812,8.341,8.341,0,0,0-.812.924c-.532.084-.784.56-1.2.812-.168.084-.168.028-.28.14a5.46,5.46,0,0,1-1.344.672H18.592c-.112-.7.28-.9.28-1.484.532-.588.924-1.456,1.484-2.156.14-.2.2-.5.532-.532C20.832-6.132,21-6.132,21.028-6.3ZM34.692-2.912c.224-.252.672-.392.868-.672,1.26-.644,1.764-1.484,1.456-2.352-.7.056-1.26.56-1.848.728-.476.28-.476.672-1.036.9-.728.42-1.4.728-2.128,1.12a6.584,6.584,0,0,1-2.548.924c-.364.308-1.2.784-1.764.42.112-.84.868-1.036,1.2-1.624.616-.392,1.26-1.764,1.96-2.044.532-.392.672-1.232,1.372-1.484.224-.756,1.064-.9,1.2-1.736-.308-.2-.112-.868-.672-.812-.5-.14-.42.28-.672.392a6.475,6.475,0,0,1-.672.56c-.112.28-.5.28-.532.672-.28.112-.588.224-.672.532-.924.672-1.9,2.38-2.772,3.108a7.411,7.411,0,0,0-1.4,2.016,2.116,2.116,0,0,0-.084,1.232c-.028.448.448.42.532.784.588-.14,1.316,0,2.016-.112.056-.028.336-.252.392-.28.28-.084.532.168.672-.14.728-.308,1.624-.448,2.3-.812.028-.168.9-.588.952-.392C33.124-2.576,34.328-2.492,34.692-2.912Zm2.408-12.8c.448.224,1.4.476,1.764,0a5.363,5.363,0,0,0-.42-2.016C37.072-17.976,37.072-16.856,37.1-15.708ZM50.288-4.4c.028-.112.476-.28.728-.28.42-.028.728-.56.588-1.876A3.642,3.642,0,0,0,49.84-5.8c-.2.084-.588.42-.812.5a4.029,4.029,0,0,1-.7.616,2.843,2.843,0,0,1-1.008.5c-1.2.868-1.652.756-3.108,1.372-.308.084-.308.224-.672.252-.224.2-.672,0-.952.112-.308-.028-.588.644-.812.28.28-.168.14-.756.532-.812a4.488,4.488,0,0,0,.56-.952,8.882,8.882,0,0,0,1.624-2.632c.364-.084.28-.616.672-.672-.028-.532.588-.42.532-.952a1.589,1.589,0,0,0,.672-2.016c-.672-.364-1.82.2-2.3.42a21.312,21.312,0,0,1-2.3,1.344c-.14.084-.28.308-.42.392a6.619,6.619,0,0,1-1.064.672c-.252.14-.364.364-.672.28-.14.336-.532.448-.672.812-.364-.112-.2.252-.448.252-.2-.056-.336.532-.42.14h.14c0-.14.2-.2,0-.28.336-.56.812-3.024.336-3.472-.672-.112-.98-.168-1.176.308-.14.336-.644,2.688-.756,3.164a34.5,34.5,0,0,1-1.9,3.332,3.833,3.833,0,0,1-.812,1.064c-.224.42-.588.672-.532,1.344.364.5.532.056,1.232.14.308-.2.532-.476.812-.672.42-.084.364-.644.812-.672.588-.42.784-1.148,1.4-1.54a4.77,4.77,0,0,1,.84-.84,20.546,20.546,0,0,1,4.4-2.968c-.336.616-1.2,2.268-1.484,2.66a1.327,1.327,0,0,1-.28.28c-.028.028.028.224,0,.252-.112.168-.308.28-.392.42a4.606,4.606,0,0,0-.28.532c-.056.112-.224.056-.252.14-.112.168,0,.28-.14.392-.056.028.028.224,0,.28a2.917,2.917,0,0,0-.42,1.6c.616.644,1.652.308,2.436.28,1.092-.672,2.38-.756,3.416-1.484.5-.392.756-.28,1.232-.7.756-.336.868-.56,1.344-.728A11.588,11.588,0,0,0,50.288-4.4ZM59.752-3.3c-.392.056-.9-.028-1.036.28a8.207,8.207,0,0,0-.812.14c-.252.112-.42.308-.644.42-.028,0-.756.364-.784.392a3.709,3.709,0,0,1-1.54.616c-.98.14-2.212.56-3.108.14-.028-.028,0-.112-.112-.14a2.7,2.7,0,0,1-.812-.532c-.476-1.036-.028-1.9.14-2.968.336-.2.336-.644.532-.924.168-.28.56-.448.532-.812.728-.448.672-1.26,1.344-1.736.308-.84,1.036-1.232,1.344-2.016.2-.084.7.14.672-.14.476-.56,1.148.056,1.484,0a3.464,3.464,0,0,0,.812-.28.957.957,0,0,0,.784,0c.924-.28.98.168,1.9-.252A3.881,3.881,0,0,0,61.8-11c.756-.28,1.288-.056,1.876-.392.868.084,1.372-.168,2.156-.14-.028.028.56-.056,1.26-.112.336-.42-.14-.644-.476-.812-3.108.252-6.412.392-9.52.672-.28-.084-.9.14-.952-.14.448-1.54,1.624-2.324,2.3-3.64-.308-.252.14-1.2-.42-1.2-.924-.112-.868.728-1.344,1.064-.5.728-.924,1.484-1.484,2.156-.28.392-.868.84-1.064,1.092-.084.112-.056.28-.14.392a.958.958,0,0,1-.532.392c-1.344.14-2.632.336-4.032.42-.2.28-.812.168-1.064.392-.252.252-1.008,0-.952.532.28.924,1.428.5,2.3.42.616-.084,1.288-.224,1.6-.28.42-.056.9-.084,1.092.14a29.892,29.892,0,0,0-1.9,3.36c-.392.364-.588,1.6-.924,2.3a5.143,5.143,0,0,0-.28,2.128c.14.952.868,1.456,1.2,2.016.364.112.784.14.952.42a8.206,8.206,0,0,1,2.408.14,2.34,2.34,0,0,1,.812-.28c.588-.14.14.056.56-.056.252-.056.756-.224.924-.28.336-.084.364-.2.532-.252a2.658,2.658,0,0,1,.588-.252,7.626,7.626,0,0,0,1.2-.7c.448-.224.756-.588,1.428-.9C59.64-2.716,60.172-2.968,59.752-3.3Z" transform="matrix(0.978, -0.208, 0.208, 0.978, -8996.953, -3877.38)" fill="#ddd7cf"/><path d="M20.376-28.872l3.168-.216q5.112,0,7.6,1.908A6.082,6.082,0,0,1,33.624-22.1q0,5.256-5.652,11.736A36.711,36.711,0,0,1,14.544-.576a13.423,13.423,0,0,0,6.912,2.232q1.08,0,1.08.936,0,1.224-2.592,1.224a7.226,7.226,0,0,1-3.96-1.656A37.138,37.138,0,0,1,12.96,0,26.506,26.506,0,0,1,4.32,1.656,11.287,11.287,0,0,1-1.728.288q-2.16-1.368-2.16-2.772A2.5,2.5,0,0,1-2.7-4.68a6.812,6.812,0,0,1,3.708-.792,19.04,19.04,0,0,1,5.112.72A21.615,21.615,0,0,1,9.972-3.384q1.26.648,3.42,2.016A26.934,26.934,0,0,0,24.516-10.4q4.5-6.156,4.5-11.268,0-5.976-6.408-5.976a18.515,18.515,0,0,0-5.22.792,20.233,20.233,0,0,0-3.24,1.116,2.092,2.092,0,0,1-.684.324q-.432,0-.432-.684T14.9-27.5a56.147,56.147,0,0,0,15.552-9.54q8.136-6.732,8.136-10.98a3.963,3.963,0,0,0-1.836-3.564,9.847,9.847,0,0,0-5.328-1.188,22.219,22.219,0,0,0-7.776,1.62,21.751,21.751,0,0,0-7.416,4.608A9.107,9.107,0,0,0,13.1-39.816q0,3.744,3.1,3.744,2.592,0,5.688-2.556A10.61,10.61,0,0,0,25.7-43.956q.72-2.772,2.232-2.772.648,0,.648,1.08,0,3.528-4.68,7.272T15.12-34.632q-4.464,0-4.464-5.112,0-4.1,3.708-7.776a25.277,25.277,0,0,1,8.892-5.652,27.085,27.085,0,0,1,9.612-1.98A12.162,12.162,0,0,1,39.78-53.46a5.952,5.952,0,0,1,2.484,5.292q0,3.6-5.292,8.64T20.376-28.872ZM4.176-3.744Q-1.3-3.744-1.3-2.16-1.3-1.224.576-.4a12.121,12.121,0,0,0,4.86.828A19.377,19.377,0,0,0,11.88-.792Q7.7-3.744,4.176-3.744Z" transform="translate(-8933.859 -3879.539) rotate(-12)" fill="#ddd7cf"/></g></svg>