<svg xmlns="http://www.w3.org/2000/svg" xmlns:xlink="http://www.w3.org/1999/xlink" width="138" height="74.516" viewBox="0 0 138 74.516"><defs><linearGradient id="a" x1="0.5" x2="0.5" y2="1" gradientUnits="objectBoundingBox"><stop offset="0" stop-color="#7b5b02"/><stop offset="0.251" stop-color="#b19446"/><stop offset="0.498" stop-color="#fff0c7"/><stop offset="0.512" stop-color="#b18e31"/><stop offset="1" stop-color="#ba9224"/></linearGradient><filter id="b" x="1.172" y="0" width="135.656" height="41.734" filterUnits="userSpaceOnUse"><feOffset input="SourceAlpha"/><feGaussianBlur stdDeviation="3" result="c"/><feFlood/><feComposite operator="in" in2="c"/><feComposite in="SourceGraphic"/></filter><filter id="e" x="0" y="32.457" width="138" height="42.059" filterUnits="userSpaceOnUse"><feOffset input="SourceAlpha"/><feGaussianBlur stdDeviation="3" result="f"/><feFlood/><feComposite operator="in" in2="f"/><feComposite in="SourceGraphic"/></filter></defs><g transform="translate(6540.954 20118.432)"><g transform="matrix(1, 0, 0, 1, -6540.95, -20118.43)" filter="url(#b)"><path d="M1.628-20.061q-.488,0-.488-.358,0-.293.423-.391l.749-.13a1.708,1.708,0,0,0,.9-.358,1.4,1.4,0,0,0,.212-.912V-41.353a1.4,1.4,0,0,0-.212-.912,1.708,1.708,0,0,0-.9-.358l-.749-.13q-.423-.1-.423-.391,0-.358.488-.358h6.8a6.749,6.749,0,0,1,3.386.83,5.866,5.866,0,0,1,2.279,2.3,6.856,6.856,0,0,1,.814,3.386A6.539,6.539,0,0,1,14.1-33.7a5.763,5.763,0,0,1-2.246,2.23,6.713,6.713,0,0,1-3.321.8H6.186a.4.4,0,0,0-.456.456v7.878a1.264,1.264,0,0,0,.26.928,2.541,2.541,0,0,0,1.172.407l1.2.2q.358.065.358.358,0,.391-.488.391Zm4.1-13.218q0,1.791,2.181,1.791a4.074,4.074,0,0,0,3.337-1.5,6.309,6.309,0,0,0,1.221-4.1,6.227,6.227,0,0,0-1.237-4.135,4.347,4.347,0,0,0-3.516-1.465q-1.986,0-1.986,1.3ZM30.994-19.768q-2.832,0-3.614-3.711l-.749-3.614a11.918,11.918,0,0,0-.8-2.67A2.4,2.4,0,0,0,24.629-31a5.492,5.492,0,0,0-2.1-.326,1.006,1.006,0,0,0-.716.244.793.793,0,0,0-.26.6v8.139a1.264,1.264,0,0,0,.26.928,2.541,2.541,0,0,0,1.172.407l1.2.2q.358.065.358.358,0,.391-.488.391H17.45q-.488,0-.488-.358,0-.293.423-.391l.749-.13a1.708,1.708,0,0,0,.9-.358,1.4,1.4,0,0,0,.212-.912V-41.353a1.4,1.4,0,0,0-.212-.912,1.708,1.708,0,0,0-.9-.358l-.749-.13q-.423-.1-.423-.391,0-.358.488-.358h6.609a7.542,7.542,0,0,1,3.418.749,5.8,5.8,0,0,1,2.344,2.067,5.511,5.511,0,0,1,.846,3.044,5.992,5.992,0,0,1-1.237,3.7,6.7,6.7,0,0,1-3.125,2.328q-.228.065-.244.212t.212.244A4,4,0,0,1,27.917-29.8a6.726,6.726,0,0,1,.928,2.344l.716,3.321a7.143,7.143,0,0,0,.846,2.409,1.453,1.453,0,0,0,1.237.716,1.306,1.306,0,0,0,.472-.081,2.7,2.7,0,0,0,.537-.309.547.547,0,0,1,.488-.081.328.328,0,0,1,.228.342,1.152,1.152,0,0,1-.716.96A3.3,3.3,0,0,1,30.994-19.768ZM23.734-32.14a3.97,3.97,0,0,0,3.353-1.481,6.321,6.321,0,0,0,1.139-3.956,5.156,5.156,0,0,0-1.319-3.76,4.838,4.838,0,0,0-3.63-1.351q-1.725,0-1.725,1.3v7.455Q21.552-32.14,23.734-32.14ZM34.412-20.061q-.488,0-.488-.358,0-.293.423-.391l.749-.13a1.708,1.708,0,0,0,.9-.358,1.4,1.4,0,0,0,.212-.912V-41.353a1.4,1.4,0,0,0-.212-.912,1.708,1.708,0,0,0-.9-.358l-.749-.13q-.423-.1-.423-.391,0-.358.488-.358H45.351a.73.73,0,0,1,.814.749l.26,5.4q.065.553-.423.553a.43.43,0,0,1-.456-.423l-.2-1.2a5.479,5.479,0,0,0-1.465-3.239,4.33,4.33,0,0,0-3.06-1.026,3.175,3.175,0,0,0-1.807.374,1.541,1.541,0,0,0-.5,1.319v7.846a.4.4,0,0,0,.456.456H40.6a1.678,1.678,0,0,0,1.758-1.53l.326-1.628q.13-.488.553-.423.358.065.358.553V-28.4q0,.488-.358.553-.423.065-.553-.423l-.326-1.6a2.767,2.767,0,0,0-.635-1.5,1.694,1.694,0,0,0-1.156-.358h-1.6a.4.4,0,0,0-.456.456v8.171a2.128,2.128,0,0,0,.6,1.693,3.442,3.442,0,0,0,2.2.521,4.644,4.644,0,0,0,2.784-.83,4.837,4.837,0,0,0,1.612-3.109l.391-1.921a.471.471,0,0,1,.488-.423q.456,0,.391.553l-.326,5.795a.73.73,0,0,1-.814.749Zm24.547-.326a.584.584,0,0,1-.293-.1.605.605,0,0,1-.228-.423L53.522-40.864q-.033-.228-.2-.212t-.163.244l-.651,17.971a2.287,2.287,0,0,0,.293,1.384,1.616,1.616,0,0,0,1.139.6l.423.065q.423.033.423.391t-.488.358H49.648q-.488,0-.488-.358t.423-.391l.423-.065a1.588,1.588,0,0,0,1.156-.6,2.72,2.72,0,0,0,.342-1.384l.651-18.492a1.234,1.234,0,0,0-.2-.912,1.938,1.938,0,0,0-.977-.358l-.749-.13q-.423-.1-.423-.391,0-.358.488-.358h3.907a1.149,1.149,0,0,1,1.237.977L59.382-26.28q.065.228.212.228t.179-.228l4.1-16.408a.969.969,0,0,1,1.042-.814h3.842q.488,0,.488.358,0,.293-.423.391l-.749.13a1.824,1.824,0,0,0-.912.358,1.234,1.234,0,0,0-.2.912l.651,19.143a1.606,1.606,0,0,0,.228.912,1.6,1.6,0,0,0,.879.358l.749.13q.423.1.423.391,0,.358-.488.358H63.517q-.488,0-.488-.358,0-.293.423-.391l.749-.13a1.824,1.824,0,0,0,.912-.358,1.234,1.234,0,0,0,.2-.912l-.553-18.622q0-.228-.147-.244T64.4-40.9L59.447-20.908a.644.644,0,0,1-.212.423A.5.5,0,0,1,58.959-20.387Zm12.892.326q-.488,0-.488-.358,0-.293.423-.391l.749-.13a1.708,1.708,0,0,0,.9-.358,1.4,1.4,0,0,0,.212-.912V-41.353a1.4,1.4,0,0,0-.212-.912,1.708,1.708,0,0,0-.9-.358l-.749-.13q-.423-.1-.423-.391,0-.358.488-.358h5.893q.488,0,.488.358,0,.293-.423.391l-.749.13a1.708,1.708,0,0,0-.9.358,1.4,1.4,0,0,0-.212.912V-22.21a1.4,1.4,0,0,0,.212.912,1.708,1.708,0,0,0,.9.358l.749.13q.423.1.423.391,0,.358-.488.358Zm16.6.293a5.817,5.817,0,0,1-3.109-.83,5.628,5.628,0,0,1-2.1-2.311,7.44,7.44,0,0,1-.749-3.4V-41.353a1.4,1.4,0,0,0-.212-.912,1.708,1.708,0,0,0-.9-.358l-.749-.13q-.423-.1-.423-.391,0-.358.488-.358h5.958q.488,0,.488.391,0,.293-.358.358l-.879.13a1.448,1.448,0,0,0-.879.358,1.463,1.463,0,0,0-.228.944V-26.28a5.955,5.955,0,0,0,1.107,3.842,3.756,3.756,0,0,0,3.093,1.367,3.793,3.793,0,0,0,3.125-1.367A5.955,5.955,0,0,0,93.24-26.28v-14.39q0-1.758-1.107-1.953l-.879-.13q-.358-.065-.358-.358,0-.391.488-.391h4.688q.488,0,.488.358,0,.293-.423.391l-.749.13q-1.107.2-1.107,1.921v14.39a6.88,6.88,0,0,1-1.6,4.753A5.391,5.391,0,0,1,88.454-19.768Zm19.4-.619a.584.584,0,0,1-.293-.1.606.606,0,0,1-.228-.423l-4.916-19.957q-.033-.228-.2-.212t-.163.244l-.651,17.971a2.287,2.287,0,0,0,.293,1.384,1.616,1.616,0,0,0,1.139.6l.423.065q.423.033.423.391t-.488.358H98.546q-.488,0-.488-.358t.423-.391l.423-.065a1.588,1.588,0,0,0,1.156-.6,2.72,2.72,0,0,0,.342-1.384l.651-18.492a1.234,1.234,0,0,0-.2-.912,1.938,1.938,0,0,0-.977-.358l-.749-.13q-.423-.1-.423-.391,0-.358.488-.358H103.1a1.15,1.15,0,0,1,1.237.977l3.939,16.245q.065.228.212.228t.179-.228l4.1-16.408a.969.969,0,0,1,1.042-.814h3.842q.488,0,.488.358,0,.293-.423.391l-.749.13a1.824,1.824,0,0,0-.912.358,1.234,1.234,0,0,0-.2.912l.651,19.143a1.606,1.606,0,0,0,.228.912,1.6,1.6,0,0,0,.879.358l.749.13q.423.1.423.391,0,.358-.488.358h-5.893q-.488,0-.488-.358,0-.293.423-.391l.749-.13a1.824,1.824,0,0,0,.912-.358,1.234,1.234,0,0,0,.2-.912l-.553-18.622q0-.228-.147-.244t-.212.179l-4.948,19.989a.644.644,0,0,1-.212.423A.5.5,0,0,1,107.857-20.387Z" transform="translate(9.03 52.5)" fill="url(#a)"/></g><g transform="matrix(1, 0, 0, 1, -6540.95, -20118.43)" filter="url(#e)"><path d="M125.946-20.36a.584.584,0,0,1-.293-.1.606.606,0,0,1-.228-.423l-4.916-19.957q-.033-.228-.2-.212t-.163.244L119.5-22.834a2.287,2.287,0,0,0,.293,1.384,1.616,1.616,0,0,0,1.139.6l.423.065q.423.033.423.391t-.488.358h-4.655q-.488,0-.488-.358t.423-.391l.423-.065a1.588,1.588,0,0,0,1.156-.6,2.72,2.72,0,0,0,.342-1.384l.651-18.492a1.234,1.234,0,0,0-.2-.912,1.938,1.938,0,0,0-.977-.358l-.749-.13q-.423-.1-.423-.391,0-.358.488-.358h3.907a1.149,1.149,0,0,1,1.237.977l3.939,16.245q.065.228.212.228t.179-.228l4.1-16.408a.969.969,0,0,1,1.042-.814h3.842q.488,0,.488.358,0,.293-.423.391l-.749.13a1.824,1.824,0,0,0-.912.358,1.234,1.234,0,0,0-.2.912l.651,19.143a1.605,1.605,0,0,0,.228.912,1.6,1.6,0,0,0,.879.358l.749.13q.423.1.423.391,0,.358-.488.358H130.5q-.488,0-.488-.358,0-.293.423-.391l.749-.13a1.824,1.824,0,0,0,.912-.358,1.234,1.234,0,0,0,.2-.912L131.74-40.8q0-.228-.146-.244t-.212.179l-4.948,19.989a.644.644,0,0,1-.212.423A.5.5,0,0,1,125.946-20.36Zm12.892.326q-.488,0-.488-.358,0-.293.423-.391l.749-.13a1.708,1.708,0,0,0,.9-.358,1.4,1.4,0,0,0,.212-.912V-41.326a1.4,1.4,0,0,0-.212-.912,1.708,1.708,0,0,0-.9-.358l-.749-.13q-.423-.1-.423-.391,0-.358.488-.358h10.939a.73.73,0,0,1,.814.749l.26,5.4q.065.553-.423.553a.43.43,0,0,1-.456-.423l-.2-1.2a5.478,5.478,0,0,0-1.465-3.239,4.33,4.33,0,0,0-3.06-1.026,3.175,3.175,0,0,0-1.807.374,1.541,1.541,0,0,0-.5,1.319v7.846a.4.4,0,0,0,.456.456h1.628a1.678,1.678,0,0,0,1.758-1.53l.326-1.628q.13-.488.553-.423.358.065.358.553v7.325q0,.488-.358.553-.423.065-.553-.423l-.326-1.6a2.767,2.767,0,0,0-.635-1.5,1.694,1.694,0,0,0-1.156-.358h-1.6a.4.4,0,0,0-.456.456v8.171a2.128,2.128,0,0,0,.6,1.693,3.443,3.443,0,0,0,2.2.521,4.644,4.644,0,0,0,2.784-.83,4.837,4.837,0,0,0,1.612-3.109l.391-1.921a.471.471,0,0,1,.488-.423q.456,0,.391.553l-.326,5.795a.73.73,0,0,1-.814.749Zm24.547-.326a.584.584,0,0,1-.293-.1.605.605,0,0,1-.228-.423l-4.916-19.957q-.033-.228-.2-.212t-.163.244l-.651,17.971a2.287,2.287,0,0,0,.293,1.384,1.616,1.616,0,0,0,1.139.6l.423.065q.423.033.423.391t-.488.358h-4.655q-.488,0-.488-.358t.423-.391l.423-.065a1.588,1.588,0,0,0,1.156-.6,2.72,2.72,0,0,0,.342-1.384l.651-18.492a1.234,1.234,0,0,0-.2-.912,1.938,1.938,0,0,0-.977-.358l-.749-.13q-.423-.1-.423-.391,0-.358.488-.358h3.907a1.15,1.15,0,0,1,1.237.977l3.939,16.245q.065.228.212.228t.179-.228l4.1-16.408a.969.969,0,0,1,1.042-.814h3.842q.488,0,.488.358,0,.293-.423.391l-.749.13a1.824,1.824,0,0,0-.912.358,1.234,1.234,0,0,0-.2.912l.651,19.143a1.606,1.606,0,0,0,.228.912,1.6,1.6,0,0,0,.879.358l.749.13q.423.1.423.391,0,.358-.488.358h-5.893q-.488,0-.488-.358,0-.293.423-.391l.749-.13a1.824,1.824,0,0,0,.912-.358,1.234,1.234,0,0,0,.2-.912L169.179-40.8q0-.228-.146-.244t-.212.179l-4.948,19.989a.644.644,0,0,1-.212.423A.5.5,0,0,1,163.384-20.36Zm12.892.326q-.488,0-.488-.358,0-.293.423-.391l.749-.13a1.708,1.708,0,0,0,.9-.358,1.4,1.4,0,0,0,.212-.912V-41.326a1.4,1.4,0,0,0-.212-.912,1.708,1.708,0,0,0-.9-.358l-.749-.13q-.423-.1-.423-.391,0-.358.488-.358h6.609a6.015,6.015,0,0,1,2.9.684,5.241,5.241,0,0,1,2,1.856,4.931,4.931,0,0,1,.733,2.67,4.7,4.7,0,0,1-.863,2.718,6.682,6.682,0,0,1-2.491,2.1.293.293,0,0,0-.2.26q0,.163.228.228a6.789,6.789,0,0,1,3.418,2.393,6.4,6.4,0,0,1,1.2,3.89,6.714,6.714,0,0,1-.879,3.435,6.186,6.186,0,0,1-2.425,2.36,7.168,7.168,0,0,1-3.5.846Zm5.827-13.38a3.639,3.639,0,0,0,2.881-1.351,5,5,0,0,0,1.156-3.37,4.76,4.76,0,0,0-1.107-3.272,3.718,3.718,0,0,0-2.93-1.253q-1.725,0-1.725,1.3v6.153a1.925,1.925,0,0,0,.407,1.367A1.765,1.765,0,0,0,182.1-33.415Zm.488,12.566a4.274,4.274,0,0,0,3.451-1.612,6.55,6.55,0,0,0,1.335-4.314,6.3,6.3,0,0,0-1.351-4.265A4.555,4.555,0,0,0,182.4-32.6q-2.018,0-2.018,1.6v7.911A1.971,1.971,0,0,0,182.592-20.848Zm9.636.814q-.488,0-.488-.358,0-.293.423-.391l.749-.13a1.708,1.708,0,0,0,.9-.358,1.4,1.4,0,0,0,.212-.912V-41.326a1.4,1.4,0,0,0-.212-.912,1.708,1.708,0,0,0-.9-.358l-.749-.13q-.423-.1-.423-.391,0-.358.488-.358h10.939a.73.73,0,0,1,.814.749l.26,5.4q.065.553-.423.553a.43.43,0,0,1-.456-.423l-.2-1.2a5.479,5.479,0,0,0-1.465-3.239,4.33,4.33,0,0,0-3.06-1.026,3.175,3.175,0,0,0-1.807.374,1.541,1.541,0,0,0-.5,1.319v7.846a.4.4,0,0,0,.456.456h1.628a1.678,1.678,0,0,0,1.758-1.53l.326-1.628q.13-.488.553-.423.358.065.358.553v7.325q0,.488-.358.553-.423.065-.553-.423l-.326-1.6a2.767,2.767,0,0,0-.635-1.5,1.694,1.694,0,0,0-1.156-.358h-1.6a.4.4,0,0,0-.456.456v8.171a2.128,2.128,0,0,0,.6,1.693,3.443,3.443,0,0,0,2.2.521,4.644,4.644,0,0,0,2.783-.83,4.837,4.837,0,0,0,1.611-3.109l.391-1.921a.471.471,0,0,1,.488-.423q.456,0,.391.553l-.326,5.795a.73.73,0,0,1-.814.749Zm28.942.293q-2.832,0-3.614-3.711l-.749-3.614a11.918,11.918,0,0,0-.8-2.67,2.4,2.4,0,0,0-1.2-1.237,5.492,5.492,0,0,0-2.1-.326,1.006,1.006,0,0,0-.716.244.793.793,0,0,0-.26.6v8.139a1.264,1.264,0,0,0,.26.928,2.541,2.541,0,0,0,1.172.407l1.2.2q.358.065.358.358,0,.391-.488.391h-6.609q-.488,0-.488-.358,0-.293.423-.391l.749-.13a1.708,1.708,0,0,0,.9-.358,1.4,1.4,0,0,0,.212-.912V-41.326a1.4,1.4,0,0,0-.212-.912,1.708,1.708,0,0,0-.9-.358l-.749-.13q-.423-.1-.423-.391,0-.358.488-.358h6.609a7.542,7.542,0,0,1,3.418.749A5.8,5.8,0,0,1,220-40.658a5.51,5.51,0,0,1,.846,3.044,5.993,5.993,0,0,1-1.237,3.7,6.7,6.7,0,0,1-3.125,2.328q-.228.065-.244.212t.212.244a4,4,0,0,1,1.644,1.367,6.726,6.726,0,0,1,.928,2.344l.716,3.321a7.143,7.143,0,0,0,.846,2.409,1.453,1.453,0,0,0,1.237.716,1.306,1.306,0,0,0,.472-.081,2.7,2.7,0,0,0,.537-.309.547.547,0,0,1,.488-.081.328.328,0,0,1,.228.342,1.152,1.152,0,0,1-.716.96A3.3,3.3,0,0,1,221.171-19.741Zm-7.26-12.371a3.97,3.97,0,0,0,3.353-1.481,6.321,6.321,0,0,0,1.139-3.956,5.156,5.156,0,0,0-1.319-3.76,4.838,4.838,0,0,0-3.63-1.351q-1.725,0-1.725,1.3V-33.9Q211.73-32.113,213.911-32.113Zm15.952,12.371a9.062,9.062,0,0,1-1.449-.13,13.918,13.918,0,0,1-1.5-.326,4.761,4.761,0,0,1-1.091-.423,1.148,1.148,0,0,1-.342-.277.843.843,0,0,1-.114-.5l-.163-5.111q0-.651.423-.651.358,0,.488.586l.293,1.237q1.107,4.655,4.135,4.655a3.275,3.275,0,0,0,2.588-1.091,4.5,4.5,0,0,0,.96-3.077,6.856,6.856,0,0,0-.993-3.581,11.921,11.921,0,0,0-3.174-3.288,14.38,14.38,0,0,1-3.516-3.337,5.959,5.959,0,0,1-1.107-3.435,4.844,4.844,0,0,1,1.677-3.858,6.314,6.314,0,0,1,4.281-1.449,7.756,7.756,0,0,1,1.888.228,4.335,4.335,0,0,1,1.5.651,1.148,1.148,0,0,1,.309.293.722.722,0,0,1,.114.423l.1,4.916q0,.553-.423.553-.293,0-.423-.456l-.228-.814a13.869,13.869,0,0,0-1.481-3.663,2.478,2.478,0,0,0-2.2-1.156,2.868,2.868,0,0,0-2.23.912,3.684,3.684,0,0,0-.83,2.572,4.507,4.507,0,0,0,.912,2.67,17.46,17.46,0,0,0,3.19,3.093,15.773,15.773,0,0,1,3.565,3.825,7.4,7.4,0,0,1,1.123,3.923,6.119,6.119,0,0,1-.814,3.19,5.7,5.7,0,0,1-2.23,2.132A6.707,6.707,0,0,1,229.863-19.741Z" transform="translate(-107.15 85.26)" fill="url(#a)"/></g></g></svg>