<svg xmlns="http://www.w3.org/2000/svg" xmlns:xlink="http://www.w3.org/1999/xlink" width="470.053" height="62.318" viewBox="0 0 470.053 62.318"><defs><linearGradient id="a" x1="0.5" x2="0.5" y2="1" gradientUnits="objectBoundingBox"><stop offset="0" stop-color="#7b5b02"/><stop offset="0.251" stop-color="#b19446"/><stop offset="0.498" stop-color="#fff0c7"/><stop offset="0.512" stop-color="#b18e31"/><stop offset="1" stop-color="#ba9224"/></linearGradient><filter id="b" x="0" y="0" width="470.053" height="62.318" filterUnits="userSpaceOnUse"><feOffset input="SourceAlpha"/><feGaussianBlur stdDeviation="3" result="c"/><feFlood/><feComposite operator="in" in2="c"/><feComposite in="SourceGraphic"/></filter></defs><g transform="matrix(1, 0, 0, 1, 0, 0)" filter="url(#b)"><path d="M2.04-.022q-.9,0-.9-.66,0-.54.78-.72L3.3-1.641A3.146,3.146,0,0,0,4.948-2.3a2.569,2.569,0,0,0,.39-1.679V-39.242a2.569,2.569,0,0,0-.39-1.679,3.146,3.146,0,0,0-1.649-.66l-1.379-.24q-.78-.18-.78-.72,0-.66.9-.66H14.573a12.431,12.431,0,0,1,6.237,1.529,10.805,10.805,0,0,1,4.2,4.228,12.63,12.63,0,0,1,1.5,6.237,12.045,12.045,0,0,1-1.5,6.057,10.616,10.616,0,0,1-4.138,4.108,12.366,12.366,0,0,1-6.117,1.469H10.435a.742.742,0,0,0-.84.84V-4.22a2.328,2.328,0,0,0,.48,1.709,4.681,4.681,0,0,0,2.159.75l2.219.36q.66.12.66.66,0,.72-.9.72ZM9.6-24.37q0,3.3,4.018,3.3a7.5,7.5,0,0,0,6.147-2.759,11.622,11.622,0,0,0,2.249-7.556q0-4.918-2.279-7.616a8.008,8.008,0,0,0-6.477-2.7Q9.6-41.7,9.6-39.3ZM56.132.518q-5.217,0-6.657-6.837L48.1-12.975a21.953,21.953,0,0,0-1.469-4.918,4.412,4.412,0,0,0-2.219-2.279,10.117,10.117,0,0,0-3.868-.6,1.853,1.853,0,0,0-1.319.45,1.46,1.46,0,0,0-.48,1.109V-4.22a2.328,2.328,0,0,0,.48,1.709,4.681,4.681,0,0,0,2.159.75L43.6-1.4q.66.12.66.66,0,.72-.9.72H31.185q-.9,0-.9-.66,0-.54.78-.72l1.379-.24a3.146,3.146,0,0,0,1.649-.66,2.569,2.569,0,0,0,.39-1.679V-39.242a2.57,2.57,0,0,0-.39-1.679,3.146,3.146,0,0,0-1.649-.66l-1.379-.24q-.78-.18-.78-.72,0-.66.9-.66H43.359a13.893,13.893,0,0,1,6.3,1.379,10.681,10.681,0,0,1,4.318,3.808,10.151,10.151,0,0,1,1.559,5.607A11.038,11.038,0,0,1,53.254-25.6,12.333,12.333,0,0,1,47.5-21.311q-.42.12-.45.39t.39.45a7.375,7.375,0,0,1,3.028,2.519,12.391,12.391,0,0,1,1.709,4.318l1.319,6.117A13.158,13.158,0,0,0,55.053-3.08a2.676,2.676,0,0,0,2.279,1.319,2.4,2.4,0,0,0,.87-.15,4.967,4.967,0,0,0,.99-.57,1.008,1.008,0,0,1,.9-.15.6.6,0,0,1,.42.63A2.121,2.121,0,0,1,59.191-.232,6.084,6.084,0,0,1,56.132.518ZM42.759-22.271A7.313,7.313,0,0,0,48.936-25a11.644,11.644,0,0,0,2.1-7.286,9.5,9.5,0,0,0-2.429-6.927A8.912,8.912,0,0,0,41.92-41.7q-3.178,0-3.178,2.4v13.733Q38.741-22.271,42.759-22.271ZM62.429-.022q-.9,0-.9-.66,0-.54.78-.72l1.379-.24a3.146,3.146,0,0,0,1.649-.66,2.569,2.569,0,0,0,.39-1.679V-39.242a2.569,2.569,0,0,0-.39-1.679,3.146,3.146,0,0,0-1.649-.66l-1.379-.24q-.78-.18-.78-.72,0-.66.9-.66h20.15a1.345,1.345,0,0,1,1.5,1.379l.48,9.955q.12,1.019-.78,1.019a.792.792,0,0,1-.84-.78l-.36-2.219a10.092,10.092,0,0,0-2.7-5.967A7.976,7.976,0,0,0,74.243-41.7a5.848,5.848,0,0,0-3.328.69,2.838,2.838,0,0,0-.93,2.429V-24.13a.742.742,0,0,0,.84.84h3a3.09,3.09,0,0,0,3.238-2.819l.6-3q.24-.9,1.019-.78.66.12.66,1.019v13.493q0,.9-.66,1.019-.78.12-1.019-.78l-.6-2.939a5.1,5.1,0,0,0-1.169-2.759,3.12,3.12,0,0,0-2.129-.66H70.825a.742.742,0,0,0-.84.84V-5.6a3.921,3.921,0,0,0,1.109,3.118q1.109.96,4.048.96A8.555,8.555,0,0,0,80.27-3.05Q82.4-4.58,83.239-8.778l.72-3.538a.868.868,0,0,1,.9-.78q.84,0,.72,1.019L84.978-1.4a1.345,1.345,0,0,1-1.5,1.379Zm45.217-.6a1.075,1.075,0,0,1-.54-.18,1.115,1.115,0,0,1-.42-.78L97.632-38.343q-.06-.42-.36-.39t-.3.45l-1.2,33.1a4.213,4.213,0,0,0,.54,2.549,2.977,2.977,0,0,0,2.1,1.109l.78.12q.78.06.78.72t-.9.66H90.5q-.9,0-.9-.66t.78-.72l.78-.12a2.925,2.925,0,0,0,2.129-1.109,5.01,5.01,0,0,0,.63-2.549l1.2-34.063a2.273,2.273,0,0,0-.36-1.679,3.57,3.57,0,0,0-1.8-.66l-1.379-.24q-.78-.18-.78-.72,0-.66.9-.66h7.2a2.117,2.117,0,0,1,2.279,1.8l7.256,29.925q.12.42.39.42t.33-.42L116.7-41.7a1.784,1.784,0,0,1,1.919-1.5H125.7q.9,0,.9.66,0,.54-.78.72l-1.379.24a3.359,3.359,0,0,0-1.679.66,2.273,2.273,0,0,0-.36,1.679L123.6-3.98a2.958,2.958,0,0,0,.42,1.679,2.945,2.945,0,0,0,1.619.66l1.379.24q.78.18.78.72,0,.66-.9.66H116.042q-.9,0-.9-.66,0-.54.78-.72l1.379-.24a3.359,3.359,0,0,0,1.679-.66,2.273,2.273,0,0,0,.36-1.679l-1.019-34.3q0-.42-.27-.45t-.39.33L108.546-1.581a1.186,1.186,0,0,1-.39.78A.929.929,0,0,1,107.647-.622Zm23.748.6q-.9,0-.9-.66,0-.54.78-.72l1.379-.24A3.146,3.146,0,0,0,134.3-2.3a2.57,2.57,0,0,0,.39-1.679V-39.242a2.57,2.57,0,0,0-.39-1.679,3.146,3.146,0,0,0-1.649-.66l-1.379-.24q-.78-.18-.78-.72,0-.66.9-.66h10.855q.9,0,.9.66,0,.54-.78.72l-1.379.24a3.146,3.146,0,0,0-1.649.66,2.57,2.57,0,0,0-.39,1.679V-3.98a2.57,2.57,0,0,0,.39,1.679,3.146,3.146,0,0,0,1.649.66l1.379.24q.78.18.78.72,0,.66-.9.66Zm30.585.54a10.716,10.716,0,0,1-5.727-1.529,10.367,10.367,0,0,1-3.868-4.258A13.706,13.706,0,0,1,151-11.536V-39.242a2.57,2.57,0,0,0-.39-1.679,3.146,3.146,0,0,0-1.649-.66l-1.379-.24q-.78-.18-.78-.72,0-.66.9-.66h10.974q.9,0,.9.72,0,.54-.66.66l-1.619.24a2.668,2.668,0,0,0-1.619.66,2.7,2.7,0,0,0-.42,1.739v27.706q0,4.558,2.039,7.076A6.92,6.92,0,0,0,163-1.881,6.986,6.986,0,0,0,168.756-4.4q2.039-2.519,2.039-7.076V-37.983q0-3.238-2.039-3.6l-1.619-.24q-.66-.12-.66-.66,0-.72.9-.72h8.636q.9,0,.9.66,0,.54-.78.72l-1.379.24q-2.039.36-2.039,3.538v26.507a12.673,12.673,0,0,1-2.939,8.756A9.931,9.931,0,0,1,161.979.518ZM197.721-.622a1.075,1.075,0,0,1-.54-.18,1.115,1.115,0,0,1-.42-.78l-9.055-36.762q-.06-.42-.36-.39t-.3.45l-1.2,33.1a4.213,4.213,0,0,0,.54,2.549,2.977,2.977,0,0,0,2.1,1.109l.78.12q.78.06.78.72t-.9.66H180.57q-.9,0-.9-.66t.78-.72l.78-.12a2.925,2.925,0,0,0,2.129-1.109,5.01,5.01,0,0,0,.63-2.549l1.2-34.063a2.273,2.273,0,0,0-.36-1.679,3.57,3.57,0,0,0-1.8-.66l-1.379-.24q-.78-.18-.78-.72,0-.66.9-.66h7.2a2.117,2.117,0,0,1,2.279,1.8L198.5-11.476q.12.42.39.42t.33-.42L206.777-41.7a1.784,1.784,0,0,1,1.919-1.5h7.076q.9,0,.9.66,0,.54-.78.72l-1.379.24a3.359,3.359,0,0,0-1.679.66,2.273,2.273,0,0,0-.36,1.679l1.2,35.262a2.957,2.957,0,0,0,.42,1.679,2.945,2.945,0,0,0,1.619.66l1.379.24q.78.18.78.72,0,.66-.9.66H206.117q-.9,0-.9-.66,0-.54.78-.72l1.379-.24a3.359,3.359,0,0,0,1.679-.66,2.273,2.273,0,0,0,.36-1.679l-1.02-34.3q0-.42-.27-.45t-.39.33L198.621-1.581a1.186,1.186,0,0,1-.39.78A.929.929,0,0,1,197.721-.622Zm52.474,0a1.075,1.075,0,0,1-.54-.18,1.116,1.116,0,0,1-.42-.78L240.18-38.343q-.06-.42-.36-.39t-.3.45l-1.2,33.1a4.213,4.213,0,0,0,.54,2.549,2.977,2.977,0,0,0,2.1,1.109l.78.12q.78.06.78.72t-.9.66h-8.576q-.9,0-.9-.66t.78-.72l.78-.12a2.925,2.925,0,0,0,2.129-1.109,5.01,5.01,0,0,0,.63-2.549l1.2-34.063a2.273,2.273,0,0,0-.36-1.679,3.57,3.57,0,0,0-1.8-.66l-1.379-.24q-.78-.18-.78-.72,0-.66.9-.66h7.2a2.117,2.117,0,0,1,2.279,1.8l7.256,29.925q.12.42.39.42t.33-.42L259.25-41.7a1.784,1.784,0,0,1,1.919-1.5h7.076q.9,0,.9.66,0,.54-.78.72l-1.379.24a3.359,3.359,0,0,0-1.679.66,2.273,2.273,0,0,0-.36,1.679l1.2,35.262a2.958,2.958,0,0,0,.42,1.679,2.945,2.945,0,0,0,1.619.66l1.379.24q.78.18.78.72,0,.66-.9.66H258.591q-.9,0-.9-.66,0-.54.78-.72l1.379-.24a3.359,3.359,0,0,0,1.679-.66,2.273,2.273,0,0,0,.36-1.679l-1.019-34.3q0-.42-.27-.45t-.39.33L251.094-1.581a1.186,1.186,0,0,1-.39.78A.929.929,0,0,1,250.195-.622Zm23.748.6q-.9,0-.9-.66,0-.54.78-.72l1.379-.24a3.146,3.146,0,0,0,1.649-.66,2.57,2.57,0,0,0,.39-1.679V-39.242a2.57,2.57,0,0,0-.39-1.679,3.146,3.146,0,0,0-1.649-.66l-1.379-.24q-.78-.18-.78-.72,0-.66.9-.66h20.15a1.345,1.345,0,0,1,1.5,1.379l.48,9.955q.12,1.019-.78,1.019a.792.792,0,0,1-.84-.78l-.36-2.219a10.092,10.092,0,0,0-2.7-5.967,7.976,7.976,0,0,0-5.637-1.889,5.849,5.849,0,0,0-3.328.69,2.838,2.838,0,0,0-.929,2.429V-24.13a.742.742,0,0,0,.84.84h3a3.09,3.09,0,0,0,3.238-2.819l.6-3q.24-.9,1.019-.78.66.12.66,1.019v13.493q0,.9-.66,1.019-.78.12-1.019-.78l-.6-2.939a5.1,5.1,0,0,0-1.169-2.759,3.121,3.121,0,0,0-2.129-.66h-2.939a.742.742,0,0,0-.84.84V-5.6a3.921,3.921,0,0,0,1.109,3.118q1.109.96,4.048.96a8.555,8.555,0,0,0,5.127-1.529q2.129-1.529,2.969-5.727l.72-3.538a.868.868,0,0,1,.9-.78q.84,0,.72,1.019l-.6,10.675a1.344,1.344,0,0,1-1.5,1.379Zm45.217-.6a1.075,1.075,0,0,1-.54-.18,1.115,1.115,0,0,1-.42-.78l-9.055-36.762q-.06-.42-.36-.39t-.3.45l-1.2,33.1a4.213,4.213,0,0,0,.54,2.549,2.977,2.977,0,0,0,2.1,1.109l.78.12q.78.06.78.72t-.9.66h-8.576q-.9,0-.9-.66t.78-.72l.78-.12A2.925,2.925,0,0,0,304.8-2.631a5.011,5.011,0,0,0,.63-2.549l1.2-34.063a2.273,2.273,0,0,0-.36-1.679,3.57,3.57,0,0,0-1.8-.66l-1.379-.24q-.78-.18-.78-.72,0-.66.9-.66h7.2a2.117,2.117,0,0,1,2.279,1.8l7.256,29.925q.12.42.39.42t.33-.42L328.216-41.7a1.784,1.784,0,0,1,1.919-1.5h7.076q.9,0,.9.66,0,.54-.78.72l-1.379.24a3.359,3.359,0,0,0-1.679.66,2.273,2.273,0,0,0-.36,1.679l1.2,35.262a2.958,2.958,0,0,0,.42,1.679,2.946,2.946,0,0,0,1.619.66l1.379.24q.78.18.78.72,0,.66-.9.66H327.556q-.9,0-.9-.66,0-.54.78-.72l1.379-.24a3.359,3.359,0,0,0,1.679-.66,2.273,2.273,0,0,0,.36-1.679l-1.02-34.3q0-.42-.27-.45t-.39.33L320.06-1.581a1.186,1.186,0,0,1-.39.78A.929.929,0,0,1,319.16-.622Zm23.748.6q-.9,0-.9-.66,0-.54.78-.72l1.379-.24a3.147,3.147,0,0,0,1.649-.66,2.57,2.57,0,0,0,.39-1.679V-39.242a2.57,2.57,0,0,0-.39-1.679,3.147,3.147,0,0,0-1.649-.66l-1.379-.24q-.78-.18-.78-.72,0-.66.9-.66h12.174a11.079,11.079,0,0,1,5.337,1.259,9.654,9.654,0,0,1,3.688,3.418,9.084,9.084,0,0,1,1.349,4.918,8.656,8.656,0,0,1-1.589,5.007,12.309,12.309,0,0,1-4.588,3.868.541.541,0,0,0-.36.48q0,.3.42.42a12.506,12.506,0,0,1,6.3,4.408,11.8,11.8,0,0,1,2.219,7.166,12.367,12.367,0,0,1-1.619,6.327,11.4,11.4,0,0,1-4.468,4.348,13.2,13.2,0,0,1-6.447,1.559ZM353.643-24.67a6.7,6.7,0,0,0,5.307-2.489,9.214,9.214,0,0,0,2.129-6.207,8.769,8.769,0,0,0-2.039-6.027,6.849,6.849,0,0,0-5.4-2.309q-3.178,0-3.178,2.4v11.334a3.546,3.546,0,0,0,.75,2.519A3.251,3.251,0,0,0,353.643-24.67Zm.9,23.148A7.873,7.873,0,0,0,360.9-4.49a12.066,12.066,0,0,0,2.459-7.946,11.609,11.609,0,0,0-2.489-7.856,8.391,8.391,0,0,0-6.687-2.879q-3.718,0-3.718,2.939V-5.659Q350.465-1.521,354.543-1.521Zm17.751,1.5q-.9,0-.9-.66,0-.54.78-.72l1.379-.24A3.147,3.147,0,0,0,375.2-2.3a2.57,2.57,0,0,0,.39-1.679V-39.242a2.57,2.57,0,0,0-.39-1.679,3.147,3.147,0,0,0-1.649-.66l-1.379-.24q-.78-.18-.78-.72,0-.66.9-.66h20.15a1.344,1.344,0,0,1,1.5,1.379l.48,9.955q.12,1.019-.78,1.019a.792.792,0,0,1-.84-.78l-.36-2.219a10.092,10.092,0,0,0-2.7-5.967,7.976,7.976,0,0,0-5.637-1.889,5.848,5.848,0,0,0-3.328.69,2.838,2.838,0,0,0-.93,2.429V-24.13a.742.742,0,0,0,.84.84h3a3.09,3.09,0,0,0,3.238-2.819l.6-3q.24-.9,1.02-.78.66.12.66,1.019v13.493q0,.9-.66,1.019-.78.12-1.02-.78l-.6-2.939a5.1,5.1,0,0,0-1.169-2.759,3.12,3.12,0,0,0-2.129-.66h-2.939a.742.742,0,0,0-.84.84V-5.6a3.921,3.921,0,0,0,1.109,3.118q1.109.96,4.048.96a8.555,8.555,0,0,0,5.127-1.529q2.129-1.529,2.969-5.727l.72-3.538a.868.868,0,0,1,.9-.78q.84,0,.72,1.019l-.6,10.675a1.344,1.344,0,0,1-1.5,1.379Zm53.313.54q-5.217,0-6.657-6.837l-1.379-6.657a21.953,21.953,0,0,0-1.469-4.918,4.412,4.412,0,0,0-2.219-2.279,10.117,10.117,0,0,0-3.868-.6,1.853,1.853,0,0,0-1.319.45,1.461,1.461,0,0,0-.48,1.109V-4.22a2.328,2.328,0,0,0,.48,1.709,4.681,4.681,0,0,0,2.159.75l2.219.36q.66.12.66.66,0,.72-.9.72H400.659q-.9,0-.9-.66,0-.54.78-.72l1.379-.24a3.146,3.146,0,0,0,1.649-.66,2.569,2.569,0,0,0,.39-1.679V-39.242a2.57,2.57,0,0,0-.39-1.679,3.146,3.146,0,0,0-1.649-.66l-1.379-.24q-.78-.18-.78-.72,0-.66.9-.66h12.174a13.893,13.893,0,0,1,6.3,1.379,10.68,10.68,0,0,1,4.318,3.808,10.151,10.151,0,0,1,1.559,5.607,11.039,11.039,0,0,1-2.279,6.807,12.333,12.333,0,0,1-5.757,4.288q-.42.12-.45.39t.39.45a7.375,7.375,0,0,1,3.028,2.519,12.392,12.392,0,0,1,1.709,4.318l1.319,6.117a13.157,13.157,0,0,0,1.559,4.438,2.676,2.676,0,0,0,2.279,1.319,2.4,2.4,0,0,0,.87-.15,4.967,4.967,0,0,0,.99-.57,1.008,1.008,0,0,1,.9-.15.6.6,0,0,1,.42.63,2.121,2.121,0,0,1-1.319,1.769A6.084,6.084,0,0,1,425.607.518ZM412.234-22.271A7.313,7.313,0,0,0,418.411-25a11.644,11.644,0,0,0,2.1-7.286,9.5,9.5,0,0,0-2.429-6.927,8.912,8.912,0,0,0-6.687-2.489q-3.178,0-3.178,2.4v13.733Q408.216-22.271,412.234-22.271ZM441.619.518a16.693,16.693,0,0,1-2.669-.24,25.642,25.642,0,0,1-2.759-.6,8.771,8.771,0,0,1-2.009-.78,2.114,2.114,0,0,1-.63-.51,1.553,1.553,0,0,1-.21-.93l-.3-9.415q0-1.2.78-1.2.66,0,.9,1.079l.54,2.279q2.039,8.576,7.616,8.576a6.032,6.032,0,0,0,4.768-2.009A8.3,8.3,0,0,0,449.415-8.9a12.629,12.629,0,0,0-1.829-6.6,21.959,21.959,0,0,0-5.847-6.057,26.488,26.488,0,0,1-6.477-6.147,10.977,10.977,0,0,1-2.039-6.327,8.923,8.923,0,0,1,3.088-7.106A11.63,11.63,0,0,1,444.2-43.8a14.287,14.287,0,0,1,3.478.42,7.985,7.985,0,0,1,2.759,1.2,2.114,2.114,0,0,1,.57.54,1.331,1.331,0,0,1,.21.78l.18,9.055q0,1.019-.78,1.019-.54,0-.78-.84l-.42-1.5a25.55,25.55,0,0,0-2.729-6.747A4.564,4.564,0,0,0,442.638-42a5.284,5.284,0,0,0-4.108,1.679A6.786,6.786,0,0,0,437-35.584a8.3,8.3,0,0,0,1.679,4.918,32.162,32.162,0,0,0,5.877,5.7,29.055,29.055,0,0,1,6.567,7.046,13.634,13.634,0,0,1,2.069,7.226,11.273,11.273,0,0,1-1.5,5.877,10.493,10.493,0,0,1-4.108,3.928A12.355,12.355,0,0,1,441.619.518Z" transform="translate(7.86 52.8)" fill="url(#a)"/></g></svg>