<svg xmlns="http://www.w3.org/2000/svg" xmlns:xlink="http://www.w3.org/1999/xlink" width="26.607" height="22.002" viewBox="0 0 26.607 22.002"><defs><style>.a{fill:#fff;}.b{clip-path:url(#a);}</style><clipPath id="a"><rect class="a" width="26.607" height="22.002"/></clipPath></defs><g transform="translate(26.607 22.002) rotate(180)"><g class="b"><path class="a" d="M26.132.154c-.568-.566-.394.582-.852.975-1.357,1.352-2.287,1.164-4.433.157C18.717.28,14.884-.176,15.783,2.859c1.12,4.262-2.177,4.812-2.177,4.812l-.3,4.372-.3-4.372s-3.3-.566-2.177-4.812c.9-3.02-2.918-2.579-5.064-1.573-2.13,1.007-2.918,1.337-4.259,0C.908.846,1.05-.4.482.17s-.9,2.469.568,2.909C.829,3.866.371,4.432.939,4.652s4.054.456,5.174-.9,2.7-1.227,2.13.11S7.013,5.2,5.435,5.2s-3.6.456-2.366,1.573c-.331.11-2.019,1.793-1.467,2.8a2.877,2.877,0,0,0,3.265-.33c.221.566.426.613.9.456,1.01-.33,1.12-1.227,2.019-2.013s2.587-.566,1.909,1.007-.457,2.579.221,3.02a2.312,2.312,0,0,0,.9-.22s-.457,1.573.678,2.249c1.23-.44,1.12,1.352,1.8,1.463.678-.11.568-1.9,1.8-1.463,1.12-.676.678-2.249.678-2.249a2.416,2.416,0,0,0,.9.22c.678-.456.9-1.463.221-3.02s1.041-1.809,1.94-1.022,1.01,1.683,2.019,2.013c.473.157.678.11.9-.456a2.848,2.848,0,0,0,3.265.33c.568-1.007-1.12-2.689-1.467-2.8,1.23-1.117-.789-1.573-2.366-1.573s-2.256,0-2.808-1.337C17.8,2.5,19.38,2.387,20.5,3.74s4.606,1.117,5.174.9.11-.786-.11-1.573c1.467-.44,1.12-2.343.568-2.909" transform="translate(0 6.797)"/><path class="a" d="M5.991.05A2.3,2.3,0,0,0,4.3,2.173c-.568-.11-.678.9-.221,1.683.442.786.9,2.469.331,2.013-.568-.44-1.12.566-.442,1.463.678.912-.457,2.029-.457,2.029s-1.12-1.117-.457-2.013c.678-.9.11-1.9-.457-1.463-.568.456-.11-1.227.331-2.013s.331-1.793-.221-1.683A2.284,2.284,0,0,0,1.022.066C.122-.155-.445.4.454.632c.9.22,1.877,1.982,1.136,5.158-1.1,4.781,1.925,4.356,1.925,4.356s3.029.425,1.909-4.356C4.666,2.6,5.659.852,6.559.632c.9-.236.331-.8-.568-.582" transform="translate(9.793 3.536)"/><path class="a" d="M5.287,3.313a5.742,5.742,0,0,0-4.149-.6c-.647.252-.852-.9-.095-1.1C-.06,1.709-.407.168.586.073a5.624,5.624,0,0,1,2.3.393c-.095-.346-.095-.6.552-.393.647.189,1.8,1.2,1.846,3.24" transform="translate(5.874 4.015)"/><path class="a" d="M0,3.313a5.742,5.742,0,0,1,4.149-.6c.647.252.852-.9.095-1.1,1.1.094,1.451-1.447.442-1.541a5.624,5.624,0,0,0-2.3.393c.095-.346.095-.6-.552-.393C1.2.262.047,1.269,0,3.313" transform="translate(15.421 4.015)"/><path class="a" d="M.9,0A.8.8,0,0,0,0,.9c0,.393.6.849.6,1.242V4.922c0,.252.079.44.252.488v.016H.946V5.41c.174-.047.252-.236.252-.488V2.139c0-.393.6-.849.6-1.242A.8.8,0,0,0,.9,0" transform="translate(12.408)"/></g></g></svg>