<svg xmlns="http://www.w3.org/2000/svg" xmlns:xlink="http://www.w3.org/1999/xlink" width="305" height="326" viewBox="0 0 305 326"><defs><clipPath id="a"><path d="M57.347,32.462a13.613,13.613,0,0,0-1.937-2.85A21.743,21.743,0,0,0,50.1,25.349c-.972-.593-1.99-1.1-3.011-1.6q-.446-.2-.883-.42-.508-.32-1.028-.619a12.508,12.508,0,0,1-3.681-4.081,11.112,11.112,0,0,1-1.3-4.492A12.941,12.941,0,0,1,40.2,12.57,11.19,11.19,0,0,1,42.293,6.7a6.614,6.614,0,0,1,2.47-2,7.46,7.46,0,0,1,8.777,2,6.088,6.088,0,0,1,1.218,2.841,7.959,7.959,0,0,1,.074,1.554,9.465,9.465,0,0,1-.229,1.543,5.676,5.676,0,0,1-1.437,2.648,5.482,5.482,0,0,1-2.648,1.465,5.377,5.377,0,0,1-3.077-.134,3.3,3.3,0,0,1-1.305-.843,2.445,2.445,0,0,1-.354-.5,1.552,1.552,0,1,0-.311-.567,2.586,2.586,0,0,0,.455,1.231,3.51,3.51,0,0,0,1.327,1.106,4.954,4.954,0,0,0,.986.357c-.1.03-.2.054-.292.091a4.762,4.762,0,0,0-1,.542,3.85,3.85,0,0,0-.813.841,3.38,3.38,0,0,0-.586,2.252A2.955,2.955,0,0,0,46.636,23.2a2.839,2.839,0,0,0,2.2.53,4.581,4.581,0,0,0,1.945-.843,1.009,1.009,0,1,0-.5.133c.028,0,.054-.006.081-.008a5.524,5.524,0,0,1-1.564.25,2.468,2.468,0,0,1-1.685-.626,2.365,2.365,0,0,1-.7-1.57,2.77,2.77,0,0,1,.454-1.692,3.392,3.392,0,0,1,1.381-1.189,3.778,3.778,0,0,1,1.856-.4,5.223,5.223,0,0,1,3.513,1.759,10.2,10.2,0,0,1,2.108,3.491,29.413,29.413,0,0,1,1.052,3.988c.421,2.087.724,4.2.95,6.318q-.169-.447-.377-.874M34.285,17.389a23.314,23.314,0,0,1-4.2-3.114A8.025,8.025,0,0,1,28.512,12.2a10.46,10.46,0,0,1-.95-2.426,6.128,6.128,0,0,1-.129-2.542,3.94,3.94,0,0,1,1.153-2.146,4.944,4.944,0,0,1,2.146-1.146,5.1,5.1,0,0,1,2.438-.084A4.034,4.034,0,0,1,35.243,5.08a3.962,3.962,0,0,1,.99,2.222,3.93,3.93,0,0,1-.57,2.408A5.533,5.533,0,0,1,34.121,11.3a1.037,1.037,0,1,0-.121.113,5.489,5.489,0,0,0,1.871-1.57,4.067,4.067,0,0,0,.621-1.276c0,.013,0,.027,0,.04a10.073,10.073,0,0,0-.48,3.027,10.842,10.842,0,0,0,2.418,6.615,14.6,14.6,0,0,0,1.181,1.312A16.221,16.221,0,0,0,40.944,20.7c.084.064.17.124.255.187a58.045,58.045,0,0,1-6.914-3.5m5.04.2a11.255,11.255,0,0,1-2.148-5.977,9.331,9.331,0,0,1,1.878-6.056,11.242,11.242,0,0,1,2.362-2.293,12.717,12.717,0,0,1,2.934-1.557,11.741,11.741,0,0,1,6.571-.4,8.446,8.446,0,0,1,5.294,3.746,12.84,12.84,0,0,1,1.742,6.416c.042,2.258.033,4.534,0,6.8-.033,3.905-.083,7.81-.115,11.715-.161-1.03-.365-2.053-.6-3.069a29.18,29.18,0,0,0-1.229-4A11.868,11.868,0,0,0,53.8,19.365a6.916,6.916,0,0,0-2.884-1.922,5.922,5.922,0,0,0,2.884-1.51,6.139,6.139,0,0,0,1.716-3.069,8.056,8.056,0,0,0,.059-3.47,6.821,6.821,0,0,0-1.56-3.084,7.367,7.367,0,0,0-2.8-1.928,8.87,8.87,0,0,0-3.3-.623,8.6,8.6,0,0,0-6.1,2.531A10.039,10.039,0,0,0,39,12.48a11.054,11.054,0,0,0,.306,3.459,10.451,10.451,0,0,0,.571,1.64A9.6,9.6,0,0,0,40.7,19.1c.166.256.345.5.532.74a16.259,16.259,0,0,1-1.911-2.251M28.158,0c-.229,0-.458.01-.687.025V.017H0V.428H25.365a7.258,7.258,0,0,0-.79.308A6.671,6.671,0,0,0,21.4,3.781a6.081,6.081,0,0,0-.642,2.19,5.089,5.089,0,0,0,.279,2.3,4.162,4.162,0,0,0,1.367,1.863,3.591,3.591,0,0,0,2.062.734l-.031-.022a1.459,1.459,0,0,0,.2.02A1.513,1.513,0,1,0,23.2,9.747a4.464,4.464,0,0,1-.938-1.859,5.829,5.829,0,0,1,.333-3.554,6.536,6.536,0,0,1,2.38-2.884A7.117,7.117,0,0,1,28.745.3a8.542,8.542,0,0,1,2.031.173,7.394,7.394,0,0,1,1.928.659,6.255,6.255,0,0,1,2.831,2.84,8.308,8.308,0,0,1,.507,1.284,4.17,4.17,0,0,0-.379-.534,4.49,4.49,0,0,0-2.339-1.48,4.842,4.842,0,0,0-1.395-.153,6.087,6.087,0,0,0-1.369.2,4.939,4.939,0,0,0-2.389,1.391,4.3,4.3,0,0,0-1.125,2.5,6.481,6.481,0,0,0,.3,2.661,13.211,13.211,0,0,0,1.082,2.412A8.9,8.9,0,0,0,30,14.359a23.468,23.468,0,0,0,4.185,3.2c1.491.931,3.04,1.763,4.612,2.546,1.358.674,2.728,1.32,4.124,1.918.314.183.632.359.954.524.661.35,1.346.651,2.032.939.251.148.5.3.75.449a21.142,21.142,0,0,1,3.727,2.923,14.4,14.4,0,0,1,1.544,1.8,10.425,10.425,0,0,1,1.187,2.045,8.572,8.572,0,0,1,.66,4.625,7.636,7.636,0,0,1-.645,2.262,5.493,5.493,0,0,1-1.422,1.849,5.815,5.815,0,0,1-4.41,1.19,6.974,6.974,0,0,1-4.126-1.937,4.216,4.216,0,0,1-1.092-1.9,3.185,3.185,0,0,1-.087-.63c.556.033,1.1-.512,1.246-1.282.156-.818-.2-1.571-.786-1.683-.571-.108-1.152.427-1.328,1.2H41.12c-.005.022-.007.045-.012.067l0,.008v.01a4.6,4.6,0,0,0,.2,2.554,5.218,5.218,0,0,0,1.486,2.053,7.277,7.277,0,0,0,2.118,1.243,8.1,8.1,0,0,0,2.363.536,7.117,7.117,0,0,0,2.4-.215,5.706,5.706,0,0,0,2.132-1.1,5.64,5.64,0,0,0,1.457-1.9,7.778,7.778,0,0,0,.653-2.307,8.722,8.722,0,0,0-.681-4.7,10.613,10.613,0,0,0-1.177-2.086,14.667,14.667,0,0,0-1.541-1.835,22.306,22.306,0,0,0-3.164-2.633,25.809,25.809,0,0,1,2.675,1.375,19.745,19.745,0,0,1,5.153,4.342,11.717,11.717,0,0,1,1.743,2.85,7.622,7.622,0,0,1,.645,3.194,5.639,5.639,0,0,1-.936,2.991,6.592,6.592,0,0,1-2.31,2.08l.816,1.211a8.581,8.581,0,0,0,2.374-2.778,6.564,6.564,0,0,0,.31-.7c.009,2.278.034,17.806.082,20.083h.411c.06-2.848.084-7,.087-11.644V45.514c-.005-9.824-.1-21.341-.146-27.246-.007-1.134-.034-2.268-.023-3.4-.006-1.136.026-2.264-.01-3.407a13.426,13.426,0,0,0-1.718-6.586,8.473,8.473,0,0,0-2.338-2.536A9.247,9.247,0,0,0,51.023.9a11.749,11.749,0,0,0-3.44-.312,12.293,12.293,0,0,0-3.4.639,14.037,14.037,0,0,0-3.1,1.551,11.882,11.882,0,0,0-2.618,2.308,10.635,10.635,0,0,0-1.634,2.623A10.862,10.862,0,0,0,35.7,3.884,6.724,6.724,0,0,0,32.771,1a7.993,7.993,0,0,0-1.96-.69c-.336-.092-.682-.123-1.024-.192-.344-.043-.69-.084-1.039-.1C28.588.006,28.426,0,28.264,0Z" fill="#b19d7f"/></clipPath></defs><g transform="translate(-1252 21177)"><rect width="305" height="326" rx="10" transform="translate(1252 -21177)" fill="#fff" opacity="0.8"/><g transform="translate(1261.857 -21108.936) rotate(-90)"><g transform="translate(0 0)" clip-path="url(#a)"><rect width="58.403" height="58.741" transform="translate(0 0)" fill="#b19d7f"/></g></g><g transform="translate(1549.503 -20919.676) rotate(90)"><g transform="translate(0 0)" clip-path="url(#a)"><rect width="58.403" height="58.741" transform="translate(0 0)" fill="#b19d7f"/></g></g><g transform="translate(1342.351 -21138.137)"><path d="M14.075.381a1.27,1.27,0,0,1,.417.979,2.049,2.049,0,0,1-.286,1.075,2.327,2.327,0,0,1,1.218,2.316,11.447,11.447,0,0,1-1.97,5.6,20.436,20.436,0,0,1-4.739,5.5,6.511,6.511,0,0,0,2.089-.478,11.791,11.791,0,0,0,1.755-.836,3.85,3.85,0,0,1,.752-.405c.056,0,.084.063.084.191q0,.478-1.815,1.206a8.816,8.816,0,0,1-3.224.728H8.19A8.756,8.756,0,0,1,3.1,18.265a2.95,2.95,0,0,1-2.34-.871A3.868,3.868,0,0,1,0,14.779a11.2,11.2,0,0,1,1.158-4.345A23.87,23.87,0,0,1,4.1,5.527,18.049,18.049,0,0,1,8.237,1.611,8.1,8.1,0,0,1,12.773,0a1.889,1.889,0,0,1,1.3.381M3.844,17.668a6.6,6.6,0,0,0,3.772-1.433,4.71,4.71,0,0,1-3.2-1.289,3.885,3.885,0,0,1-1.05-2.758,8.162,8.162,0,0,1,.8-3.39A13.488,13.488,0,0,1,6.231,5.574,10.951,10.951,0,0,1,9.276,3.127a7.343,7.343,0,0,1,3.57-.979,3.313,3.313,0,0,1,.692.072,1.616,1.616,0,0,0,.31-.919A.726.726,0,0,0,13.466.62a1.772,1.772,0,0,0-.883-.215,7,7,0,0,0-4.059,1.54,16.345,16.345,0,0,0-3.7,3.737,23.312,23.312,0,0,0-2.6,4.667,11.194,11.194,0,0,0-1.027,4.1q0,3.223,2.65,3.223M10.625,6.016l.023.167c0,.191-.056.286-.167.286-.207,0-.31-.219-.31-.657a1.822,1.822,0,0,1,.465-1.205A5.921,5.921,0,0,1,11.986,3.5a9.7,9.7,0,0,0,1.17-.824,2.707,2.707,0,0,0-.621-.1A6.153,6.153,0,0,0,8.6,4.119a11.107,11.107,0,0,0-2.961,3.7A9.024,9.024,0,0,0,4.56,11.795q0,3.82,3.558,4.059a18.509,18.509,0,0,0,4.417-5.42,12.236,12.236,0,0,0,1.887-5.659A2.245,2.245,0,0,0,13.8,3.008,7.378,7.378,0,0,1,12.523,4.07a14.744,14.744,0,0,0-1.373,1.05,1.27,1.27,0,0,0-.525.9" transform="translate(0 0)" fill="#b19d7f"/><path d="M29.092,19.743q-5.038,4.2-6.232,4.2-.693,0-.693-.573a2.618,2.618,0,0,1,.514-1.361,14.079,14.079,0,0,1,1.027-1.4,2.454,2.454,0,0,0,.513-.728c0-.079-.023-.119-.072-.119q-2.22,1.481-2.639,1.815t-1.36,1.1q-.944.764-1.229.955a1.107,1.107,0,0,1-.622.191c-.223,0-.334-.1-.334-.286a7.381,7.381,0,0,1,1.337-2.1,9.848,9.848,0,0,0,1.289-1.982c0-.032-.028-.047-.084-.047s-.744.485-2.065,1.456l-.095-.358q1.694-1.361,2.292-1.743a1.964,1.964,0,0,1,.966-.382.322.322,0,0,1,.37.358,8.558,8.558,0,0,1-1.349,1.946,13.332,13.332,0,0,0-1.349,1.839c0,.087.028.131.084.131s.963-.641,2.722-1.923,2.829-1.922,3.211-1.922a.5.5,0,0,1,.322.131.354.354,0,0,1,.156.251,7,7,0,0,1-1.265,1.9,8.324,8.324,0,0,0-1.266,1.826c0,.143.1.215.3.215a3.473,3.473,0,0,0,1.277-.644,36.83,36.83,0,0,0,3.3-2.411l.525-.43a.546.546,0,0,1,.31-.119.126.126,0,0,1,.143.143Z" transform="translate(-5.599 -5.728)" fill="#b19d7f"/><path d="M38.848,19.5a.541.541,0,0,1,.31-.12c.1,0,.144.056.144.167v.047a40.353,40.353,0,0,1-4.131,3.08A5.783,5.783,0,0,1,32.187,23.7a.939.939,0,0,1-1.075-1.05,4.717,4.717,0,0,1,1.576-3.187q1.576-1.636,2.65-1.636c.4,0,.6.223.6.668q-.121,1.313-3.773,3.533v.239q0,.788.823.788a3.6,3.6,0,0,0,1.779-.549A23.546,23.546,0,0,0,38.251,20Zm-4.131-.931q-.526,0-1.349.883a4.556,4.556,0,0,0-1.11,2.006,10.422,10.422,0,0,0,1.934-1.468q.788-.776.788-1.1t-.263-.322" transform="translate(-9.695 -5.556)" fill="#b19d7f"/><path d="M45.437,19.254q0-1.266,3.295-5.432A62.2,62.2,0,0,1,55.99,6.1a6.044,6.044,0,0,0,.525-2.078Q56.516.8,51.047.8a6.749,6.749,0,0,0-2.961.621q-.787.382-.787.955t.847,1.182a11.579,11.579,0,0,0,1.874,1.086A7.381,7.381,0,0,1,51.9,5.9a2.229,2.229,0,0,1,.847,1.636,2.038,2.038,0,0,1-.1.716c-.063.16-.118.239-.167.239-.08,0-.136-.111-.167-.334q0-1.337-2.006-2.412-.859-.453-1.719-.883-2.005-1.075-2.005-2.316a1.3,1.3,0,0,1,.525-1.015A3.641,3.641,0,0,1,48.445.846,10.2,10.2,0,0,1,51.1.416a12.416,12.416,0,0,1,2.077.167,12.19,12.19,0,0,1,2.041.549,4.03,4.03,0,0,1,1.743,1.182,2.835,2.835,0,0,1,.68,1.9,5.113,5.113,0,0,1-.048.526Q62.58.655,65.469.654q1.194,0,1.194,1a5.738,5.738,0,0,1-1.349,3.008A16.017,16.017,0,0,1,62.043,8a5.854,5.854,0,0,1-3.331,1.468,1.6,1.6,0,0,1-1.766-1.7q0-.381.238-.381c.112,0,.22.119.323.358a2.482,2.482,0,0,0,.6.776,1.332,1.332,0,0,0,.919.418,4.217,4.217,0,0,0,2.627-1.48A16.431,16.431,0,0,0,64.215,4.3a5.694,5.694,0,0,0,1.039-2.423q0-.526-.549-.526-2.412,0-7.378,4.346a26.244,26.244,0,0,1-3.056,5.647,43.216,43.216,0,0,1-4.7,5.909q-2.436,2.531-3.558,2.531-.573,0-.573-.525m1.026-.143q1.17,0,4.2-4.011a44.562,44.562,0,0,0,4.776-7.688,67.052,67.052,0,0,0-6.3,6.912q-2.77,3.523-2.77,4.668c0,.08.032.12.1.12" transform="translate(-14.159 -0.13)" fill="#b19d7f"/><path d="M63.54,20.956a5.511,5.511,0,0,0,3.2-1.5l.406.119Q64.8,21.529,63.11,21.529a1.288,1.288,0,0,1-.286-.023,6.026,6.026,0,0,1-1.408,1.277,2.585,2.585,0,0,1-1.337.489q-.908,0-.907-1.015t1.7-2.71a3.761,3.761,0,0,1-.286-1.456,1.57,1.57,0,0,1,.548-1.242,1.888,1.888,0,0,1,1.278-.477,1.713,1.713,0,0,1,1.229.477,1.793,1.793,0,0,1,.5,1.361,4.971,4.971,0,0,1-.884,2.722,1.272,1.272,0,0,0,.286.024m-3.39,1.17q0,.478.621.478t1.576-1.265a3,3,0,0,1-1.146-1.17,3.214,3.214,0,0,0-1.05,1.958m2.626-1.408a4.346,4.346,0,0,0,.74-2.113,1.727,1.727,0,0,0-.43-1.289,1.236,1.236,0,0,0-.836-.418.75.75,0,0,0-.836.86,4.122,4.122,0,0,0,.382,1.707,2.9,2.9,0,0,0,.979,1.254" transform="translate(-18.439 -5.102)" fill="#b19d7f"/><path d="M74.521,18.762a.639.639,0,0,1,.3-.119c.072,0,.107.047.107.143v.072a7.964,7.964,0,0,1-1.277,1.05q-1.373,1.051-2.937,2.1a5.831,5.831,0,0,1-1.969,1.05q-.693,0-.692-.573a6.7,6.7,0,0,1,1.194-2.614q1.195-1.922,1.744-1.922c.27,0,.4.1.4.31a5.273,5.273,0,0,1-1.1,1.7,4.191,4.191,0,0,0-1.1,1.981c0,.224.083.335.251.335A3.8,3.8,0,0,0,70.7,21.6q1.79-1.194,3.3-2.411Zm-1.969-3.223a.463.463,0,0,1,.359.143.583.583,0,0,1,.131.406,1.15,1.15,0,0,1-.359.668q-.357.406-.62.405a.45.45,0,0,1-.382-.155.568.568,0,0,1-.119-.358,1.341,1.341,0,0,1,.381-.657q.382-.453.609-.454" transform="translate(-21.207 -4.842)" fill="#b19d7f"/><path d="M86.426,19.743q-5.038,4.2-6.232,4.2-.693,0-.693-.573a2.618,2.618,0,0,1,.514-1.361,14.081,14.081,0,0,1,1.027-1.4,2.454,2.454,0,0,0,.513-.728c0-.079-.023-.119-.072-.119q-2.22,1.481-2.639,1.815t-1.36,1.1q-.944.764-1.229.955a1.107,1.107,0,0,1-.622.191c-.223,0-.334-.1-.334-.286a7.38,7.38,0,0,1,1.337-2.1,9.848,9.848,0,0,0,1.289-1.982c0-.032-.028-.047-.084-.047s-.744.485-2.065,1.456l-.095-.358q1.694-1.361,2.292-1.743a1.964,1.964,0,0,1,.966-.382.322.322,0,0,1,.37.358,8.558,8.558,0,0,1-1.349,1.946,13.332,13.332,0,0,0-1.349,1.839c0,.087.028.131.084.131s.963-.641,2.722-1.923,2.829-1.922,3.211-1.922a.5.5,0,0,1,.322.131.354.354,0,0,1,.156.251,7,7,0,0,1-1.265,1.9,8.325,8.325,0,0,0-1.266,1.826c0,.143.1.215.3.215a3.472,3.472,0,0,0,1.277-.644,36.829,36.829,0,0,0,3.3-2.411l.525-.43a.546.546,0,0,1,.31-.119.126.126,0,0,1,.143.143Z" transform="translate(-23.466 -5.728)" fill="#b19d7f"/><path d="M102.774,10.939l-3.414-.167q-2.1,0-4.178.167l.12.477a8.209,8.209,0,0,1-1.552,1.994q-1.552,1.732-3.1,3.772A6.183,6.183,0,0,0,89.093,20.2c0,.255.092.381.275.381a3.518,3.518,0,0,0,1.254-.668q1.815-1.194,3.319-2.411l.526-.43a.52.52,0,0,1,.286-.12c.079,0,.119.048.119.143v.072a7.926,7.926,0,0,1-1.278,1.051q-1.373,1.05-2.937,2.1a5.832,5.832,0,0,1-1.969,1.05q-.693,0-.692-.621a5.27,5.27,0,0,1,1.015-2.507,27.077,27.077,0,0,1,2.22-3.02q1.2-1.421,2.293-2.686A8.558,8.558,0,0,0,94.7,10.987a30.793,30.793,0,0,0-4.035.573l-.477.1c-.128.015-.191.135-.191.358,0,.095-.112.143-.334.143A2.8,2.8,0,0,1,88.842,12q-.489-.155-.489-.442t.478-.381q3.533-.621,5.013-.752t1.97-.167c.326-.023.836-.043,1.528-.059s1.159-.024,1.4-.024q1.075-.047,2.519-.048a7.1,7.1,0,0,1,1.755.12.449.449,0,0,1,.31.454q0,.239-.549.239" transform="translate(-27.422 -3.156)" fill="#b19d7f"/><path d="M121.581,13.516l4.967-.358a.169.169,0,0,1,.191.191c0,.127-.108.262-.322.405a2.889,2.889,0,0,1-1.254.287q-.93.071-3.939.143-2.436,4.752-3.438,4.751a.983.983,0,0,1-.955-.6,17.069,17.069,0,0,0-2.46-3.725l-.692.669a11.7,11.7,0,0,1-8.237,3.295,10.782,10.782,0,0,1-2.089-.179q-.9-.18-.9-.489c0-.143.088-.215.263-.215a1.14,1.14,0,0,1,.406.095,8.383,8.383,0,0,0,2.7.287,10.064,10.064,0,0,0,6.733-2.793q1.146-1.075,1.17-1.1a19.537,19.537,0,0,1-3.772-.6q-2.723-.764-2.722-1.815a.692.692,0,0,1,.394-.6,1.987,1.987,0,0,1,1.039-.239,7.6,7.6,0,0,1,5.4,2.555,1.42,1.42,0,0,1,.31.024,73.52,73.52,0,0,0,5.181-6.494Q120.627,5.566,121.7,4.2q2.244-2.817,3.677-2.818.93,0,.931.812a23.83,23.83,0,0,1-1.541,4.286q-1.54,3.738-3.188,7.032M108.02,11.8q0,.6,2.173,1.145a25.876,25.876,0,0,0,3.009.478,6.678,6.678,0,0,0-4.393-1.982q-.789,0-.788.359m9.455,6.374q.5,0,2.483-3.94-2.674.049-3.33.048t-1.85-.048a16.454,16.454,0,0,1,2.292,3.606c.1.223.231.334.405.334m7.473-16.164q-.788,0-2.1,1.683t-3.474,4.764a50.593,50.593,0,0,1-4.023,5.109q1.672.049,2.925.047t2.017-.047q1.7-3.342,3.308-7.067a22.914,22.914,0,0,0,1.611-4.274q0-.215-.263-.215" transform="translate(-31.929 -0.432)" fill="#b19d7f"/><path d="M143.088,15.66q-4.966,4.011-6.016,4.011-.406,0-.406-.477a6.179,6.179,0,0,1,.359-1.6c0-.015-.017-.023-.048-.023q-2.746,2.269-3.652,2.268-.621,0-.621-.454,0-1,2.161-2.937t3.45-1.934a.51.51,0,0,1,.358.239q.549-.812,6.16-8.81.6-.74.967-.741c.246,0,.37.08.37.239q0,.6-4.107,5.635a40.26,40.26,0,0,0-2.805,3.975,6.9,6.9,0,0,0-1.278,3.14q0,.453.262.454a2.551,2.551,0,0,0,1.1-.549q1.623-1.17,2.842-2.149l.454-.382a.546.546,0,0,1,.31-.119c.1,0,.143.056.143.167Zm-5.324.454.764-1.17a.469.469,0,0,0-.143-.023,4.5,4.5,0,0,0-2.626,1.528q-1.624,1.528-1.623,2.148c0,.112.063.167.191.167a3.563,3.563,0,0,0,1.815-1.015,8.619,8.619,0,0,0,1.623-1.636" transform="translate(-41.354 -1.621)" fill="#b19d7f"/><path d="M150.35,19.8l-.382-.167q-.453,0-4.942,3.892a1.247,1.247,0,0,1-.633.381.361.361,0,0,1-.31-.143.519.519,0,0,1-.108-.322,8.585,8.585,0,0,1,.812-1.623,12.429,12.429,0,0,0,.812-1.552c0-.072-.032-.107-.1-.107a1.284,1.284,0,0,1-.5.167q-.167,0-.167-.107a.286.286,0,0,1,.1-.2,3.109,3.109,0,0,1,1.4-.788q.394,0,.394.454a3.521,3.521,0,0,1-.6,1.468,4.986,4.986,0,0,0-.6,1.182c0,.112.028.167.084.167a.354.354,0,0,0,.2-.1q.119-.095,1.265-1.1,3.892-3.055,4.25-3.056h.024a.516.516,0,0,1,.286.1.321.321,0,0,1,.143.286q0,.192-.549.681a1.55,1.55,0,0,1-.883.489" transform="translate(-44.867 -5.685)" fill="#b19d7f"/><path d="M159.671,18.762a.639.639,0,0,1,.3-.119c.072,0,.107.047.107.143v.072a7.964,7.964,0,0,1-1.277,1.05q-1.373,1.051-2.937,2.1a5.831,5.831,0,0,1-1.969,1.05q-.693,0-.693-.573a6.7,6.7,0,0,1,1.194-2.614q1.195-1.922,1.744-1.922c.27,0,.4.1.4.31a5.273,5.273,0,0,1-1.1,1.7,4.192,4.192,0,0,0-1.1,1.981c0,.224.083.335.251.335a3.8,3.8,0,0,0,1.254-.668q1.79-1.194,3.3-2.411ZM157.7,15.539a.463.463,0,0,1,.359.143.583.583,0,0,1,.131.406,1.15,1.15,0,0,1-.359.668q-.357.406-.62.405a.45.45,0,0,1-.382-.155.568.568,0,0,1-.119-.358,1.341,1.341,0,0,1,.381-.657q.382-.453.609-.454" transform="translate(-47.742 -4.842)" fill="#b19d7f"/><path d="M167.38,19.726a.65.65,0,0,1,.322-.119c.087,0,.131.056.131.167v.048a30.03,30.03,0,0,1-3.891,2.937,6.718,6.718,0,0,1-3.343,1.265q-1.05,0-1.05-1.254a4.086,4.086,0,0,1,1.517-2.734,4.635,4.635,0,0,1,3.283-1.48,1.306,1.306,0,0,1,.657.167.43.43,0,0,1,.131.335,1.75,1.75,0,0,1-.441.776q-.442.562-.8.561c-.271-.048-.406-.143-.406-.286,0-.063.071-.167.214-.31q.407-.358.406-.525c0-.111-.087-.167-.262-.167a3.561,3.561,0,0,0-2.1,1.373,3.743,3.743,0,0,0-1.265,2.232c0,.445.289.668.871.668a3.6,3.6,0,0,0,1.874-.621,30.368,30.368,0,0,0,3.557-2.555Z" transform="translate(-49.72 -5.783)" fill="#b19d7f"/><path d="M176.406,19.5a.541.541,0,0,1,.31-.12c.1,0,.144.056.144.167v.047a40.354,40.354,0,0,1-4.131,3.08,5.783,5.783,0,0,1-2.984,1.026.939.939,0,0,1-1.075-1.05,4.717,4.717,0,0,1,1.576-3.187q1.576-1.636,2.65-1.636c.4,0,.6.223.6.668q-.121,1.313-3.773,3.533v.239q0,.788.823.788a3.6,3.6,0,0,0,1.779-.549A23.546,23.546,0,0,0,175.809,20Zm-4.131-.931q-.526,0-1.349.883a4.556,4.556,0,0,0-1.11,2.006,10.423,10.423,0,0,0,1.934-1.468q.788-.776.788-1.1t-.263-.322" transform="translate(-52.562 -5.556)" fill="#b19d7f"/></g></g></svg>