<svg xmlns="http://www.w3.org/2000/svg" xmlns:xlink="http://www.w3.org/1999/xlink" width="820" height="300" viewBox="0 0 820 300"><defs><clipPath id="a"><path d="M84.841,48.026a20.14,20.14,0,0,0-2.865-4.217A32.167,32.167,0,0,0,74.115,37.5c-1.437-.877-2.944-1.629-4.454-2.373q-.66-.3-1.307-.622-.751-.474-1.521-.916a18.505,18.505,0,0,1-5.445-6.037,16.439,16.439,0,0,1-1.93-6.646,19.145,19.145,0,0,1,.021-2.312,16.555,16.555,0,0,1,3.09-8.677,9.785,9.785,0,0,1,3.655-2.957A11.037,11.037,0,0,1,79.21,9.921a9.006,9.006,0,0,1,1.8,4.2,11.775,11.775,0,0,1,.11,2.3,14,14,0,0,1-.338,2.282,8.4,8.4,0,0,1-2.126,3.918,8.11,8.11,0,0,1-3.918,2.168,7.954,7.954,0,0,1-4.552-.2,4.886,4.886,0,0,1-1.931-1.248,3.618,3.618,0,0,1-.524-.734,2.3,2.3,0,1,0-.46-.839,3.826,3.826,0,0,0,.674,1.821,5.192,5.192,0,0,0,1.963,1.637,7.33,7.33,0,0,0,1.459.529c-.144.045-.291.08-.432.135a7.044,7.044,0,0,0-1.478.8,5.7,5.7,0,0,0-1.2,1.244,5,5,0,0,0-.867,3.331,4.372,4.372,0,0,0,1.608,3.051,4.2,4.2,0,0,0,3.248.785,6.777,6.777,0,0,0,2.878-1.247,1.492,1.492,0,1,0-.733.2c.041,0,.079-.008.12-.012a8.172,8.172,0,0,1-2.314.37,3.651,3.651,0,0,1-2.492-.926,3.5,3.5,0,0,1-1.039-2.323,4.1,4.1,0,0,1,.672-2.5A5.018,5.018,0,0,1,71.377,26.9a5.589,5.589,0,0,1,2.745-.6,7.727,7.727,0,0,1,5.2,2.6,15.087,15.087,0,0,1,3.119,5.165,43.513,43.513,0,0,1,1.556,5.9c.623,3.087,1.071,6.213,1.405,9.347q-.25-.661-.558-1.293m-34.118-22.3a34.492,34.492,0,0,1-6.218-4.606,11.873,11.873,0,0,1-2.324-3.071,15.475,15.475,0,0,1-1.405-3.589,9.065,9.065,0,0,1-.19-3.761,5.83,5.83,0,0,1,1.706-3.175,7.315,7.315,0,0,1,3.175-1.7A7.541,7.541,0,0,1,49.074,5.7,5.967,5.967,0,0,1,52.14,7.515,5.861,5.861,0,0,1,53.606,10.8a5.814,5.814,0,0,1-.844,3.563,8.186,8.186,0,0,1-2.282,2.359,1.533,1.533,0,1,0-.179.168,8.12,8.12,0,0,0,2.768-2.323,6.017,6.017,0,0,0,.919-1.888c0,.019,0,.04,0,.06a14.9,14.9,0,0,0-.709,4.478A16.04,16.04,0,0,0,56.857,27,21.6,21.6,0,0,0,58.6,28.944a24,24,0,0,0,1.97,1.682c.124.1.252.184.378.277a85.874,85.874,0,0,1-10.229-5.177m7.457.3A16.65,16.65,0,0,1,55,17.179,13.8,13.8,0,0,1,57.781,8.22a16.631,16.631,0,0,1,3.495-3.393,18.814,18.814,0,0,1,4.341-2.3,17.37,17.37,0,0,1,9.721-.594A12.5,12.5,0,0,1,83.17,7.472a19,19,0,0,1,2.577,9.493c.062,3.341.049,6.708.007,10.061-.049,5.777-.123,11.554-.17,17.332-.238-1.524-.54-3.038-.889-4.54A43.169,43.169,0,0,0,82.877,33.9a17.558,17.558,0,0,0-3.287-5.25,10.233,10.233,0,0,0-4.267-2.843,8.761,8.761,0,0,0,4.267-2.234,9.082,9.082,0,0,0,2.538-4.541,11.918,11.918,0,0,0,.088-5.133,10.092,10.092,0,0,0-2.308-4.562,10.9,10.9,0,0,0-4.141-2.852,13.122,13.122,0,0,0-4.877-.922,12.719,12.719,0,0,0-9.028,3.744A14.852,14.852,0,0,0,57.7,18.463a16.354,16.354,0,0,0,.453,5.118A15.461,15.461,0,0,0,59,26.007a14.2,14.2,0,0,0,1.217,2.25c.246.379.51.743.787,1.095a24.054,24.054,0,0,1-2.827-3.33M41.657,0c-.338,0-.678.014-1.017.037V.025H0V.633H37.526a10.738,10.738,0,0,0-1.169.455,9.869,9.869,0,0,0-4.691,4.506,9,9,0,0,0-.95,3.24,7.528,7.528,0,0,0,.412,3.4,6.157,6.157,0,0,0,2.022,2.757A5.313,5.313,0,0,0,36.2,16.079c-.016-.01-.03-.022-.047-.033a2.159,2.159,0,0,0,.292.029,2.238,2.238,0,1,0-2.128-1.656,6.6,6.6,0,0,1-1.388-2.751,8.624,8.624,0,0,1,.493-5.258,9.67,9.67,0,0,1,3.521-4.266A10.529,10.529,0,0,1,42.526.439a12.638,12.638,0,0,1,3.005.255,10.939,10.939,0,0,1,2.853.975,9.254,9.254,0,0,1,4.188,4.2,12.29,12.29,0,0,1,.75,1.9,6.17,6.17,0,0,0-.56-.79A6.643,6.643,0,0,0,49.3,4.791a7.163,7.163,0,0,0-2.063-.226,9.005,9.005,0,0,0-2.025.3,7.308,7.308,0,0,0-3.535,2.058,6.359,6.359,0,0,0-1.664,3.692,9.589,9.589,0,0,0,.442,3.937,19.545,19.545,0,0,0,1.6,3.569,13.175,13.175,0,0,0,2.325,3.126,34.719,34.719,0,0,0,6.191,4.728c2.206,1.377,4.5,2.609,6.824,3.767,2.009,1,4.035,1.952,6.1,2.838.465.27.935.531,1.412.775.979.518,1.991.963,3.007,1.389.372.218.744.437,1.109.665a31.278,31.278,0,0,1,5.514,4.325,21.31,21.31,0,0,1,2.284,2.657,15.423,15.423,0,0,1,1.756,3.025,12.682,12.682,0,0,1,.976,6.842A11.3,11.3,0,0,1,78.6,55.6a8.126,8.126,0,0,1-2.1,2.735,8.6,8.6,0,0,1-6.524,1.76,10.318,10.318,0,0,1-6.1-2.865,6.237,6.237,0,0,1-1.616-2.805,4.711,4.711,0,0,1-.129-.932c.822.049,1.628-.757,1.844-1.9.23-1.21-.291-2.324-1.163-2.49-.844-.16-1.7.632-1.965,1.78l-.008,0c-.008.032-.011.066-.018.1l0,.012v.015a6.806,6.806,0,0,0,.3,3.779,7.72,7.72,0,0,0,2.2,3.038,10.767,10.767,0,0,0,3.133,1.839,11.984,11.984,0,0,0,3.5.792,10.529,10.529,0,0,0,3.55-.318,8.441,8.441,0,0,0,3.155-1.63A8.344,8.344,0,0,0,78.8,55.694a11.507,11.507,0,0,0,.965-3.413,12.9,12.9,0,0,0-1.008-6.947,15.7,15.7,0,0,0-1.742-3.085,21.7,21.7,0,0,0-2.28-2.714,33,33,0,0,0-4.682-3.895,38.182,38.182,0,0,1,3.958,2.034A29.212,29.212,0,0,1,81.637,44.1a17.334,17.334,0,0,1,2.578,4.216,11.277,11.277,0,0,1,.955,4.725,8.343,8.343,0,0,1-1.385,4.426,9.752,9.752,0,0,1-3.417,3.077l1.207,1.792a12.7,12.7,0,0,0,3.512-4.11,9.712,9.712,0,0,0,.459-1.03c.014,3.37.051,26.342.122,29.712h.608c.089-4.214.125-10.362.128-17.226V67.335c-.008-14.535-.142-31.573-.216-40.309-.01-1.678-.05-3.356-.034-5.034-.008-1.681.038-3.35-.014-5.041A19.863,19.863,0,0,0,83.6,7.207a12.535,12.535,0,0,0-3.459-3.752,13.68,13.68,0,0,0-4.653-2.123A17.381,17.381,0,0,0,70.4.87a18.187,18.187,0,0,0-5.029.945,20.767,20.767,0,0,0-4.585,2.294,17.579,17.579,0,0,0-3.873,3.415A15.734,15.734,0,0,0,54.49,11.4a16.07,16.07,0,0,0-1.68-5.658,9.948,9.948,0,0,0-4.328-4.269,11.826,11.826,0,0,0-2.9-1.021c-.5-.136-1.009-.182-1.515-.283C43.56.11,43.048.049,42.531.021,42.294.008,42.054,0,41.814,0Z" fill="#b19d7f"/></clipPath></defs><g transform="translate(-602 -159)"><g transform="translate(-72 -15)"><rect width="820" height="300" rx="10" transform="translate(674 174)" fill="#fff" opacity="0.795"/><g transform="translate(687.529 271.652) rotate(-90)"><g clip-path="url(#a)"><rect width="86.403" height="86.903" transform="translate(0 0)" fill="#b19d7f"/></g></g><g transform="translate(1477.432 373.25) rotate(90)"><g clip-path="url(#a)"><rect width="86.403" height="86.903" transform="translate(0 0)" fill="#b19d7f"/></g></g></g><g transform="translate(-996.596 164.116) rotate(-8)"><g transform="translate(1886.688 295.673) rotate(7)"><path d="M22.39.607a2.02,2.02,0,0,1,.664,1.557A3.259,3.259,0,0,1,22.6,3.873q1.938.949,1.937,3.685,0,3.684-3.134,8.906a32.508,32.508,0,0,1-7.538,8.755,10.358,10.358,0,0,0,3.323-.76,18.756,18.756,0,0,0,2.791-1.329,6.125,6.125,0,0,1,1.2-.645c.089,0,.134.1.134.3q0,.76-2.886,1.918a14.023,14.023,0,0,1-5.128,1.159h-.265q-4.33,3.19-8.09,3.19a4.692,4.692,0,0,1-3.722-1.386A6.153,6.153,0,0,1,0,23.509,17.815,17.815,0,0,1,1.842,16.6,37.97,37.97,0,0,1,6.514,8.792,28.71,28.71,0,0,1,13.1,2.563,12.891,12.891,0,0,1,20.319,0,3,3,0,0,1,22.39.607M6.115,28.1a10.494,10.494,0,0,0,6-2.279,7.492,7.492,0,0,1-5.09-2.051,6.18,6.18,0,0,1-1.671-4.387A12.984,12.984,0,0,1,6.627,14,21.455,21.455,0,0,1,9.912,8.867a17.421,17.421,0,0,1,4.843-3.893,11.681,11.681,0,0,1,5.679-1.557,5.27,5.27,0,0,1,1.1.114,2.57,2.57,0,0,0,.494-1.462A1.154,1.154,0,0,0,21.421.987a2.819,2.819,0,0,0-1.4-.342,11.13,11.13,0,0,0-6.457,2.45A26,26,0,0,0,7.672,9.039a37.082,37.082,0,0,0-4.139,7.424A17.807,17.807,0,0,0,1.9,22.978Q1.9,28.1,6.115,28.1M16.9,9.57l.037.266c0,.3-.089.456-.266.456-.33,0-.493-.348-.493-1.045a2.9,2.9,0,0,1,.74-1.917,9.418,9.418,0,0,1,2.146-1.766,15.434,15.434,0,0,0,1.86-1.311,4.306,4.306,0,0,0-.988-.152,9.787,9.787,0,0,0-6.266,2.451,17.668,17.668,0,0,0-4.71,5.887,14.354,14.354,0,0,0-1.71,6.324q0,6.077,5.659,6.456A29.442,29.442,0,0,0,19.939,16.6q3-5.356,3-9a3.572,3.572,0,0,0-.989-2.81,11.736,11.736,0,0,1-2.031,1.69,23.454,23.454,0,0,0-2.183,1.671A2.02,2.02,0,0,0,16.9,9.57" transform="translate(0 0)" fill="#b19d7f"/><path d="M35.665,20.547q-8.014,6.685-9.913,6.684-1.1,0-1.1-.911a4.164,4.164,0,0,1,.817-2.165A22.4,22.4,0,0,1,27.1,21.933a3.9,3.9,0,0,0,.816-1.159c0-.126-.037-.189-.114-.189q-3.531,2.355-4.2,2.886t-2.164,1.748q-1.5,1.215-1.956,1.519a1.761,1.761,0,0,1-.989.3c-.355,0-.531-.152-.531-.456q0-.532,2.127-3.342a15.666,15.666,0,0,0,2.051-3.153c0-.05-.045-.076-.134-.076s-1.184.772-3.285,2.316l-.151-.569q2.7-2.165,3.646-2.773a3.124,3.124,0,0,1,1.537-.608.513.513,0,0,1,.589.569,13.613,13.613,0,0,1-2.146,3.1,21.208,21.208,0,0,0-2.146,2.925c0,.139.044.209.134.209s1.532-1.019,4.33-3.058,4.5-3.057,5.108-3.057a.789.789,0,0,1,.512.209.564.564,0,0,1,.247.4q0,.455-2.013,3.019A13.242,13.242,0,0,0,26.359,25.6c0,.228.158.342.475.342a5.524,5.524,0,0,0,2.031-1.025,58.587,58.587,0,0,0,5.242-3.836l.835-.684a.869.869,0,0,1,.494-.189.2.2,0,0,1,.228.228Z" transform="translate(1.707 1.746)" fill="#b19d7f"/><path d="M43.418,20.487a.86.86,0,0,1,.493-.191c.153,0,.229.09.229.266v.076a64.188,64.188,0,0,1-6.571,4.9,9.2,9.2,0,0,1-4.747,1.633A1.494,1.494,0,0,1,31.112,25.5q0-2.469,2.506-5.07t4.216-2.6c.632,0,.95.355.95,1.063q-.192,2.089-6,5.621v.38q0,1.253,1.31,1.254a5.731,5.731,0,0,0,2.829-.874,37.455,37.455,0,0,0,5.546-3.988Zm-6.571-1.482q-.836,0-2.145,1.4A7.248,7.248,0,0,0,32.935,23.6a16.579,16.579,0,0,0,3.076-2.336q1.253-1.235,1.254-1.748t-.418-.512" transform="translate(2.956 1.694)" fill="#b19d7f"/><path d="M45.437,30.382q0-2.014,5.241-8.641A98.938,98.938,0,0,1,62.225,9.455a9.614,9.614,0,0,0,.835-3.3q0-5.126-8.7-5.128a10.736,10.736,0,0,0-4.71.988Q48.4,2.618,48.4,3.53t1.348,1.88a18.42,18.42,0,0,0,2.982,1.728A11.741,11.741,0,0,1,55.71,9.132a3.546,3.546,0,0,1,1.348,2.6,3.242,3.242,0,0,1-.152,1.139c-.1.254-.188.38-.265.38-.127,0-.216-.176-.266-.531q0-2.127-3.191-3.837-1.367-.721-2.734-1.4Q47.26,5.77,47.26,3.8A2.069,2.069,0,0,1,48.1,2.182,5.791,5.791,0,0,1,50.222,1.1,16.232,16.232,0,0,1,54.438.416a19.751,19.751,0,0,1,3.3.265,19.391,19.391,0,0,1,3.247.874,6.411,6.411,0,0,1,2.773,1.88,4.51,4.51,0,0,1,1.082,3.019,8.134,8.134,0,0,1-.076.837Q72.707.8,77.3.795q1.9,0,1.9,1.6,0,1.822-2.146,4.785a25.479,25.479,0,0,1-5.2,5.3q-3.057,2.336-5.3,2.336a2.543,2.543,0,0,1-2.81-2.7q0-.606.379-.607c.177,0,.349.189.514.569a3.948,3.948,0,0,0,.949,1.234,2.118,2.118,0,0,0,1.462.665q1.748,0,4.179-2.354a26.136,26.136,0,0,0,4.082-5.033A9.058,9.058,0,0,0,76.96,2.733q0-.836-.874-.837-3.837,0-11.736,6.913a41.747,41.747,0,0,1-4.861,8.982,68.745,68.745,0,0,1-7.482,9.4q-3.875,4.026-5.659,4.026-.912,0-.911-.835m1.633-.228q1.861,0,6.684-6.381a70.885,70.885,0,0,0,7.6-12.23A106.66,106.66,0,0,0,51.324,22.538q-4.407,5.6-4.406,7.425c0,.127.05.191.152.191" transform="translate(4.317 0.04)" fill="#b19d7f"/><path d="M66.121,23.664q2.125,0,5.09-2.393l.646.189q-3.724,3.114-6.42,3.114a2.049,2.049,0,0,1-.456-.037,9.586,9.586,0,0,1-2.24,2.031,4.111,4.111,0,0,1-2.127.779q-1.444,0-1.443-1.614t2.7-4.311a5.982,5.982,0,0,1-.456-2.316,2.5,2.5,0,0,1,.872-1.975,3,3,0,0,1,2.033-.759,2.725,2.725,0,0,1,1.956.759,2.852,2.852,0,0,1,.8,2.165,7.908,7.908,0,0,1-1.406,4.33,2.023,2.023,0,0,0,.456.038m-5.393,1.86q0,.76.988.76t2.506-2.013A4.766,4.766,0,0,1,62.4,22.41a5.112,5.112,0,0,0-1.671,3.114m4.177-2.24a6.913,6.913,0,0,0,1.177-3.362,2.748,2.748,0,0,0-.683-2.051,1.966,1.966,0,0,0-1.329-.665,1.193,1.193,0,0,0-1.329,1.368,6.558,6.558,0,0,0,.608,2.716,4.619,4.619,0,0,0,1.557,1.994" transform="translate(5.622 1.555)" fill="#b19d7f"/><path d="M78.343,20.666a1.017,1.017,0,0,1,.475-.189c.114,0,.171.076.171.228v.114a12.668,12.668,0,0,1-2.031,1.671q-2.185,1.672-4.672,3.342A9.276,9.276,0,0,1,69.153,27.5q-1.1,0-1.1-.911,0-1.1,1.9-4.159t2.774-3.057c.429,0,.644.165.644.494a8.388,8.388,0,0,1-1.745,2.7q-1.749,2.2-1.748,3.151c0,.356.132.532.4.532a6.048,6.048,0,0,0,1.994-1.063q2.848-1.9,5.242-3.836ZM75.21,15.539a.736.736,0,0,1,.571.228.928.928,0,0,1,.208.646,1.829,1.829,0,0,1-.571,1.063q-.568.646-.987.645a.716.716,0,0,1-.608-.246.9.9,0,0,1-.189-.569,2.133,2.133,0,0,1,.607-1.045q.608-.721.969-.722" transform="translate(6.465 1.476)" fill="#b19d7f"/><path d="M93,20.547q-8.014,6.685-9.913,6.684-1.1,0-1.1-.911a4.164,4.164,0,0,1,.817-2.165,22.4,22.4,0,0,1,1.634-2.222,3.9,3.9,0,0,0,.816-1.159c0-.126-.037-.189-.114-.189q-3.531,2.355-4.2,2.886t-2.164,1.748q-1.5,1.215-1.956,1.519a1.761,1.761,0,0,1-.989.3c-.355,0-.531-.152-.531-.456q0-.532,2.126-3.342a15.665,15.665,0,0,0,2.051-3.153c0-.05-.045-.076-.134-.076s-1.184.772-3.285,2.316l-.151-.569q2.7-2.165,3.646-2.773a3.124,3.124,0,0,1,1.537-.608.513.513,0,0,1,.589.569,13.613,13.613,0,0,1-2.146,3.1,21.207,21.207,0,0,0-2.146,2.925c0,.139.044.209.134.209s1.532-1.019,4.33-3.058,4.5-3.057,5.108-3.057a.789.789,0,0,1,.512.209.564.564,0,0,1,.247.4q0,.455-2.013,3.019A13.243,13.243,0,0,0,83.693,25.6c0,.228.158.342.475.342A5.524,5.524,0,0,0,86.2,24.915a58.587,58.587,0,0,0,5.242-3.836l.835-.684a.869.869,0,0,1,.494-.189.2.2,0,0,1,.228.228Z" transform="translate(7.154 1.746)" fill="#b19d7f"/><path d="M111.5,11.419l-5.431-.266q-3.342,0-6.647.266l.191.759q0,.419-2.469,3.172t-4.937,6q-2.47,3.247-2.469,4.8c0,.405.146.607.437.607A5.6,5.6,0,0,0,92.172,25.7q2.888-1.9,5.279-3.836l.837-.683a.827.827,0,0,1,.456-.191c.126,0,.189.077.189.228v.114A12.608,12.608,0,0,1,96.9,23q-2.185,1.67-4.671,3.342A9.278,9.278,0,0,1,89.1,28.016q-1.1,0-1.1-.988a8.383,8.383,0,0,1,1.614-3.988,43.071,43.071,0,0,1,3.531-4.8q1.917-2.26,3.647-4.273a13.614,13.614,0,0,0,1.879-2.469,48.983,48.983,0,0,0-6.419.911l-.759.153c-.2.024-.3.215-.3.569,0,.151-.177.228-.531.228a4.46,4.46,0,0,1-1.311-.247q-.779-.246-.779-.7t.76-.607q5.621-.987,7.975-1.2t3.134-.266c.518-.037,1.329-.069,2.43-.094s1.843-.038,2.223-.038q1.71-.076,4.007-.077a11.291,11.291,0,0,1,2.792.191.714.714,0,0,1,.493.722q0,.379-.873.38" transform="translate(8.36 0.962)" fill="#b19d7f"/><path d="M132.878,20.681l7.9-.569a.269.269,0,0,1,.3.3c0,.2-.172.417-.512.645a4.6,4.6,0,0,1-2,.457q-1.48.113-6.266.228-3.875,7.559-5.47,7.558a1.563,1.563,0,0,1-1.519-.949,27.152,27.152,0,0,0-3.912-5.925l-1.1,1.064a18.611,18.611,0,0,1-13.1,5.241,17.151,17.151,0,0,1-3.323-.285q-1.424-.286-1.425-.779c0-.228.14-.342.418-.342a1.813,1.813,0,0,1,.646.151,13.335,13.335,0,0,0,4.291.457,16.009,16.009,0,0,0,10.71-4.444q1.823-1.71,1.86-1.748a31.077,31.077,0,0,1-6-.949q-4.331-1.215-4.33-2.886a1.1,1.1,0,0,1,.626-.949,3.16,3.16,0,0,1,1.652-.38q4.519,0,8.584,4.064a2.26,2.26,0,0,1,.493.038,116.95,116.95,0,0,0,8.241-10.33q1.71-2.316,3.419-4.482,3.569-4.481,5.85-4.482,1.48,0,1.482,1.291,0,.875-2.451,6.818t-5.071,11.185m-21.572-2.734q0,.949,3.456,1.822a41.161,41.161,0,0,0,4.786.76q-3.533-3.152-6.988-3.153-1.255,0-1.254.57m15.04,10.14q.8,0,3.95-6.267-4.254.077-5.3.077t-2.943-.077a26.174,26.174,0,0,1,3.646,5.736c.151.355.367.531.645.531M138.234,2.375q-1.253,0-3.342,2.677t-5.526,7.577a80.48,80.48,0,0,1-6.4,8.127q2.659.077,4.653.076t3.208-.076q2.7-5.317,5.261-11.241t2.563-6.8q0-.342-.418-.342" transform="translate(9.734 0.132)" fill="#b19d7f"/><path d="M149.223,21.837q-7.9,6.381-9.57,6.381-.645,0-.646-.759a9.83,9.83,0,0,1,.57-2.546c0-.024-.026-.037-.077-.037q-4.367,3.609-5.81,3.608-.987,0-.988-.722,0-1.595,3.437-4.671t5.488-3.077a.811.811,0,0,1,.569.38Q143.072,19.1,152,6.38q.949-1.178,1.539-1.178c.391,0,.588.127.588.38q0,.949-6.533,8.964a64.04,64.04,0,0,0-4.462,6.324q-2.032,3.285-2.032,4.994,0,.721.417.722a4.057,4.057,0,0,0,1.748-.874q2.582-1.861,4.52-3.419l.722-.608A.869.869,0,0,1,149,21.5c.152,0,.228.089.228.265Zm-8.469.722L141.97,20.7a.746.746,0,0,0-.228-.037q-1.595,0-4.177,2.431t-2.582,3.418c0,.178.1.266.3.266q.948,0,2.886-1.614a13.711,13.711,0,0,0,2.582-2.6" transform="translate(12.608 0.494)" fill="#b19d7f"/><path d="M154.116,20.713l-.608-.266q-.721,0-7.861,6.191a1.984,1.984,0,0,1-1.007.607.575.575,0,0,1-.493-.228.826.826,0,0,1-.172-.512,13.656,13.656,0,0,1,1.291-2.582,19.77,19.77,0,0,0,1.292-2.469c0-.114-.051-.171-.152-.171a2.042,2.042,0,0,1-.8.266q-.266,0-.266-.171a.455.455,0,0,1,.153-.323,4.946,4.946,0,0,1,2.221-1.254q.627,0,.627.722a5.6,5.6,0,0,1-.95,2.336,7.931,7.931,0,0,0-.949,1.88c0,.177.045.266.134.266a.564.564,0,0,0,.323-.152q.189-.151,2.013-1.747,6.191-4.86,6.761-4.862h.038a.821.821,0,0,1,.456.152.511.511,0,0,1,.228.456q0,.306-.874,1.083a2.465,2.465,0,0,1-1.4.779" transform="translate(13.679 1.733)" fill="#b19d7f"/><path d="M163.493,20.666a1.017,1.017,0,0,1,.475-.189c.114,0,.171.076.171.228v.114a12.671,12.671,0,0,1-2.031,1.671q-2.185,1.672-4.672,3.342A9.276,9.276,0,0,1,154.3,27.5q-1.1,0-1.1-.911,0-1.1,1.9-4.159t2.774-3.057c.429,0,.644.165.644.494a8.388,8.388,0,0,1-1.745,2.7q-1.749,2.2-1.748,3.151c0,.356.132.532.4.532a6.047,6.047,0,0,0,1.994-1.063q2.848-1.9,5.242-3.836Zm-3.133-5.127a.736.736,0,0,1,.571.228.928.928,0,0,1,.208.646,1.829,1.829,0,0,1-.57,1.063q-.568.646-.987.645a.716.716,0,0,1-.608-.246.9.9,0,0,1-.189-.569,2.133,2.133,0,0,1,.607-1.045q.608-.721.969-.722" transform="translate(14.555 1.476)" fill="#b19d7f"/><path d="M172.006,20.416a1.034,1.034,0,0,1,.512-.189c.139,0,.209.089.209.265v.077a47.769,47.769,0,0,1-6.19,4.671,10.686,10.686,0,0,1-5.318,2.013q-1.67,0-1.671-1.994t2.412-4.348a7.373,7.373,0,0,1,5.222-2.354,2.077,2.077,0,0,1,1.045.265.684.684,0,0,1,.208.532,2.783,2.783,0,0,1-.7,1.234q-.7.894-1.271.892c-.431-.076-.646-.228-.646-.456,0-.1.113-.266.341-.494q.647-.57.646-.835c0-.176-.139-.266-.417-.266q-1.33.039-3.343,2.185t-2.012,3.551c0,.708.46,1.063,1.385,1.063a5.724,5.724,0,0,0,2.982-.988,48.3,48.3,0,0,0,5.659-4.064Z" transform="translate(15.158 1.763)" fill="#b19d7f"/><path d="M180.976,20.487a.861.861,0,0,1,.493-.191c.153,0,.229.09.229.266v.076a64.19,64.19,0,0,1-6.571,4.9,9.2,9.2,0,0,1-4.747,1.633A1.494,1.494,0,0,1,168.67,25.5q0-2.469,2.506-5.07t4.216-2.6c.632,0,.95.355.95,1.063q-.192,2.089-6,5.621v.38q0,1.253,1.31,1.254a5.731,5.731,0,0,0,2.829-.874,37.457,37.457,0,0,0,5.546-3.988ZM174.4,19.005q-.836,0-2.145,1.4a7.248,7.248,0,0,0-1.766,3.191,16.58,16.58,0,0,0,3.076-2.336q1.253-1.235,1.254-1.748t-.418-.512" transform="translate(16.025 1.694)" fill="#b19d7f"/></g></g></g></svg>