<svg xmlns="http://www.w3.org/2000/svg" width="1979.113" height="191.392" viewBox="0 0 1979.113 191.392"><g transform="translate(31.531 -5985.966)"><path d="M21800.832-13381.643c-141.559,0-244.277-30.508-353.025-62.807-110.455-32.806-224.672-66.729-384.963-66.729-310.18,0-554.256,127.662-556.686,128.951l-4.687-8.832c2.451-1.3,248.732-130.119,561.373-130.119,161.746,0,276.67,34.133,387.811,67.143,108.031,32.086,210.072,62.393,350.178,62.393,283.811,0,672.051-158.788,675.939-160.392l3.813,9.244C22476.678-13541.179,22086.6-13381.643,21800.832-13381.643Z" transform="translate(-20533.002 19538)" fill="#707070"/><path d="M21800.832-13381.643c-141.559,0-244.277-30.508-353.025-62.807-110.455-32.806-224.672-66.729-384.963-66.729-310.18,0-554.256,127.662-556.686,128.951l-4.687-8.832c2.451-1.3,248.732-130.119,561.373-130.119,161.746,0,276.67,34.133,387.811,67.143,108.031,32.086,210.072,62.393,350.178,62.393,283.811,0,672.051-158.788,675.939-160.392l3.813,9.244C22476.678-13541.179,22086.6-13381.643,21800.832-13381.643Z" transform="translate(-20533.002 19559)" fill="#707070"/></g></svg>