<svg xmlns="http://www.w3.org/2000/svg" xmlns:xlink="http://www.w3.org/1999/xlink" width="17" height="17" viewBox="0 0 17 17">
  <defs>
    <clipPath id="clip-path">
      <rect id="Rectangle_2339" data-name="Rectangle 2339" width="17" height="17" transform="translate(0 0.001)" fill="#939393"/>
    </clipPath>
  </defs>
  <g id="Group_6951" data-name="Group 6951" transform="translate(0 0.241)">
    <g id="Group_6382" data-name="Group 6382" transform="translate(0 -0.242)" clip-path="url(#clip-path)">
      <path id="Path_2029" data-name="Path 2029" d="M16.535.245c-.458-.458-1.248-.254-2.086.427-.759.6-4.736,3.82-6.818,5.823A9.178,9.178,0,0,0,4.8,9.9a1.353,1.353,0,0,0-.044.243L3.707,11.2,1.216,12.95a1.3,1.3,0,0,0-.166.14,1.269,1.269,0,0,0-.34.613L0,16.78l3.077-.71a1.271,1.271,0,0,0,.613-.34,1.225,1.225,0,0,0,.14-.167l1.755-2.49,1.053-1.053a1.316,1.316,0,0,0,.243-.044,9.175,9.175,0,0,0,3.4-2.828c2-2.082,5.22-6.058,5.823-6.818.681-.838.885-1.628.427-2.086M3.368,15.238a.686.686,0,0,1-.078.092.7.7,0,0,1-.34.189l-1.914.442,1.273-1.273a.392.392,0,1,0-.215-.216L.82,15.744l.442-1.914a.7.7,0,0,1,.189-.34.712.712,0,0,1,.092-.078l2.4-1.689,1.118,1.118Zm1.885-2.632L4.175,11.528l.753-.753a1.624,1.624,0,0,0,.189.22l.669.669a1.623,1.623,0,0,0,.22.189Z" transform="translate(0 0.217)" fill="#939393"/>
    </g>
  </g>
</svg>
